<svg width="199" height="202" viewBox="0 0 199 202" fill="none" xmlns="http://www.w3.org/2000/svg">
<path d="M12.6669 52.4124C12.9881 46.9519 19.5583 41.18 23.595 38.3619C28.4076 35.0022 34.2806 31.1719 37.8189 26.4798C40.9077 22.3838 44.4817 18.6482 48.5736 15.5517C56.3453 9.67036 68.6688 6.33717 78.2356 4.97049C85.9319 3.87102 95.3966 1.71906 103.214 3.40933C118.596 6.73521 138.804 5.66124 149.268 19.4546C154.462 26.3005 164.796 27.7892 170.951 33.505C176.816 38.9513 179.677 44.5377 183.224 51.6318C184.95 55.084 186.24 58.8395 187.17 62.5599C188.311 67.1254 191.574 69.1906 194.022 72.7508C196.382 76.1847 194.613 85.9387 195.279 90.2705C197.226 102.923 195.759 115.989 193.761 128.476C192.845 134.201 188.882 142.375 184.785 146.472C182.494 148.763 181.537 152.403 179.364 154.972C176.959 157.814 174.422 160.471 171.948 163.255C167.587 168.161 162.404 171.131 157.464 175.31C155.07 177.337 151.828 177.868 149.615 180.081C147.331 182.365 144.462 185.253 141.289 186.065C137.694 186.985 135.002 188.992 131.749 190.575C128.266 192.269 123.742 192.395 120.04 193.697C111.336 196.76 103.393 197.6 94.1941 197.6C90.8531 197.6 87.7708 196.82 84.4802 196.82C81.3848 196.82 78.004 197.289 75.1133 196.039C71.7515 194.585 67.5805 192.359 64.0117 191.529C60.5468 190.723 57.7324 188.411 54.2111 187.279C49.764 185.85 42.0455 182.578 39.2066 178.693C36.5165 175.012 33.7753 167.176 29.8396 164.989C25.2088 162.417 21.5691 156.785 18.3044 152.673C16.45 150.338 15.8967 148.319 14.228 145.908C12.814 143.866 11.0691 141.865 10.3252 139.447C8.67503 134.084 6.56681 129.317 5.25138 123.792C4.33507 119.944 3.89211 115.974 2.95301 112.083C2.07233 108.435 3.29993 104.469 3.29993 100.722C3.29993 97.4453 4.86109 95.0152 4.86109 91.8316C4.86109 87.3272 6.19674 82.3371 7.54976 78.0848C10.0379 70.2649 10.0341 61.4941 13.7944 53.9735C15.5073 50.5477 18.1089 45.1488 22.0772 43.826C26.9467 42.2028 27.7661 38.1011 31.0539 35.283C34.1065 32.6665 34.6955 27.8736 37.2551 24.7452C39.2448 22.3134 43.544 19.8587 46.2318 18.0669" stroke="black" stroke-width="4" stroke-linecap="round"/>
<path d="M118.584 9.70264C133.428 11.3519 134.424 45.1671 135.999 55.8001C139.625 80.2736 140.555 104.268 138.414 128.897C137.492 139.493 134.257 148.808 128.536 157.8C125.362 162.787 123.845 170.172 119.243 173.751C116.401 175.961 109.365 188.466 109.365 192.117C109.365 194.654 102.78 203.528 102.78 196.727" stroke="black" stroke-width="4" stroke-linecap="round"/>
<path d="M3.95984 117.622C23.4695 107.867 44.8297 100.487 65.8256 94.8126C84.4192 89.7873 101.002 83.8767 120.739 83.8767C128.473 83.8767 136.206 83.8767 143.939 83.8767C152.06 83.8767 159.813 86.7935 167.764 88.0167C173.385 88.8815 178.272 90.7961 183.308 92.2348C185.331 92.8129 188.158 92.313 190.26 92.313C191.874 92.313 193.775 94.8851 193.775 93.719" stroke="black" stroke-width="4" stroke-linecap="round"/>
<path d="M40.517 179.488C50.1194 179.488 60.4726 172.162 68.3253 166.833C77.3335 160.72 84.8125 151.843 91.7593 143.633C96.6336 137.873 101.692 131.243 107.694 127.464C114.805 122.987 124.292 117.636 132.535 116.138C138.379 115.075 143.134 112.07 149.485 113.482C155.591 114.839 164.358 119.225 167.373 124.652C168.851 127.312 175.195 133.971 177.606 135.9C180.964 138.586 178.252 146.417 182.527 148.555" stroke="black" stroke-width="4" stroke-linecap="round"/>
<path d="M17.3016 45.46C33.8198 36.7151 59.7638 34.2911 78.2213 39.0764C93.7302 43.0972 107.151 51.6766 120.54 59.328C125.012 61.8829 134.06 62.4448 139.141 62.2996C145.935 62.1055 152.126 58.0593 158.512 56.3563C161.441 55.5753 163.414 54.0965 166.106 53.1644C167.351 52.7337 171.079 52.8369 171.83 51.8987C173.728 49.5256 178.338 51.2633 179.754 48.4317" stroke="black" stroke-width="4" stroke-linecap="round"/>
</svg>
