<svg width="338" height="199" viewBox="0 0 338 199" fill="none" xmlns="http://www.w3.org/2000/svg">
<path d="M20.1708 142.529C20.1708 134.016 15.0795 125.613 12.3384 117.709C9.02453 108.152 6.73854 99.4544 4.44584 89.5368C-0.525944 68.0304 1.1056 44.9052 18.5441 29.7807C31.8452 18.2445 54.5911 -0.950122 71.1414 15.1984C87.192 30.8594 95 52.788 95 75.2649C95 83.0972 87.3146 85.6279 82.8297 89.7851C76.4506 95.6981 64.7036 96.3546 56.5612 95.5559C48.8311 94.7977 41.2482 91.461 37.2815 100.086C34.0308 107.154 33.3038 111.396 35.6559 119.067C38.4662 128.233 42.5115 135.961 44.555 142.529C45.9601 147.046 46.846 152.194 39.6915 155.684C33.4737 158.718 25.7639 156.249 22.882 150.906C19.9587 145.487 17.3084 137.439 15.8329 131.36" stroke="black" stroke-width="3" stroke-linecap="round"/>
<path d="M76.2882 8.6264C73.2546 10.2119 77.9399 16.0853 79.4084 17.5839C85.2576 25.499 91.9534 34.1002 95 47C101.5 69 97.4282 71.92 102.699 74.1256C112.236 75.1181 135.849 66.7986 140.5 58C145.535 48.4733 143.935 40.33 141.715 30.7824C138.5 23.5 141.715 29 133.5 16C130.682 12.8967 125.869 9.40833 121.488 7.57513C116.636 5.54455 114.982 4.02043 109.185 3.41717C102.915 2.76464 97.2276 3.09164 91.0207 3.65838C85.9948 4.11728 80.4172 6.46841 76.2882 8.6264Z" stroke="black" stroke-width="3" stroke-linecap="round"/>
<path d="M300.957 191.175C298.301 194.038 299.879 192.62 297.302 193.984C294.726 195.349 290.205 195.628 285.914 191.58C282.969 188.801 282.167 185.677 282.91 182.2C284.923 172.792 293.444 163.168 295.441 153.828C297.09 146.121 300.122 140.935 296.535 133.357C293.837 127.659 290.966 126.826 285.388 125.79C282.605 125.273 279.272 125.673 276.488 125.953C273.785 126.225 271.342 125.647 268.704 125.083C262.574 123.772 257.184 122.466 252.33 118.182C247.167 113.625 245.632 106.637 244.905 100.116C244.431 95.8652 244.163 91.0406 245.063 86.8327C245.888 82.9718 247.46 79.507 248.493 75.72C249.148 73.3164 250.197 70.9989 250.757 68.5717C251.274 66.3333 251.552 63.9934 252.376 61.8418C253.557 58.757 254.256 55.3508 256.306 52.6648C258.351 49.9863 260.484 46.1139 263.585 44.5616C265.405 43.6508 267.409 43.0959 269.53 42.6928C274.314 41.7836 280.416 42.956 284.783 44.9812C287.468 46.2261 290.522 46.8739 293.27 48.0488C297.53 49.8693 301.439 52.3222 305.108 55.1524C311.84 60.3452 316.789 66.8457 320.344 74.4317C322.866 79.8137 323.959 85.3407 325.594 90.9591C326.864 95.3203 326.038 100.884 325.886 105.392C325.465 117.898 321.753 129.733 319.156 141.877C318.447 145.189 318.046 148.81 316.818 151.971C315.735 154.759 314.491 157.75 313.733 160.634C312.415 165.643 311.751 167.217 309.3 175.598C307.535 180.511 307.417 181.971 303.667 187.314C300.957 191.175 301.637 189.743 300.957 191.175Z" stroke="black" stroke-width="3" stroke-linecap="round"/>
<path d="M201.642 47.1164C204.263 42.2492 206.449 40.2793 209.748 38.4977C213.286 36.5868 216.718 35.4457 220.458 34.1008C223.507 33.0044 227.371 33.5748 230.571 33.7457C235.129 33.9892 240.008 34.3563 243.844 37.0957C245.698 38.4192 249.778 40.6122 249.783 43.2324C249.786 44.4232 250.459 45.6783 250.394 46.8909C250.318 48.3044 250.243 49.7179 250.167 51.1314C249.972 54.7901 248.641 58.5333 247.659 62.0543C246.64 65.7068 246.53 70.1249 244.85 73.5878C243.828 75.6915 243.447 78.2395 242.958 80.5148C242.426 82.986 241.078 85.5389 240.943 88.062C240.869 89.4511 240.029 91.7774 239.379 93.0368C238.061 95.593 237.201 98.3542 235.825 100.905C231.28 109.333 221.763 102.788 214.258 98.8629C208.453 95.0478 207.285 93.9841 202.728 89.7349C198.501 84.5021 198.587 83.0045 197.342 78.0784C196.709 75.5726 196.828 68.9627 196.965 66.3943C197.213 61.7389 198.077 55.7505 199.706 51.3459C200.83 48.3083 201.718 47.1091 203.273 44.3741" stroke="black" stroke-width="3" stroke-linecap="round"/>
<path d="M205.495 51.497C206.617 50.1873 208.516 48.9586 209.717 49.3234C211.723 49.9323 211.631 50.9837 211.061 53.1873C210.149 56.7166 209.614 64.5752 206.118 66.6305C204.949 67.3182 203.074 65.579 202.76 64.6534C202.265 63.1945 202.565 59.6706 202.996 58.2498C203.889 55.312 204.545 51.5545 206.891 50.1771" stroke="black" stroke-width="3" stroke-linecap="round"/>
<path d="M287.442 118.441C278.353 116.987 267.956 118.854 260.542 112.28C258.12 110.132 256.62 107.372 257.156 104.019C257.603 101.23 264.955 101.319 266.985 101.722C269.021 102.126 270.714 103.949 272.8 104.282C274.827 104.607 276.836 105.275 278.894 105.665C280.796 106.026 282.584 107.071 284.505 107.378C286.861 107.755 288.798 108.218 290.954 109.225C292.999 110.181 295.586 114.964 293.2 116.692C291.606 117.846 287.551 117.644 285.583 117.329" stroke="black" stroke-width="3" stroke-linecap="round"/>
<path d="M49.4332 87.5907C58.5869 86.6228 68.8691 89.0424 76.6236 82.8726C79.1572 80.8568 80.8023 78.1809 80.4453 74.8045C80.1482 71.995 72.8014 71.6925 70.7527 71.9862C68.6987 72.2806 66.91 74.0107 64.8096 74.2328C62.7684 74.4487 60.7263 75.009 58.6507 75.2886C56.7318 75.5471 54.8909 76.4953 52.9564 76.6998C50.5834 76.9508 48.6245 77.3095 46.4175 78.2004C44.3244 79.0452 41.4859 83.6838 43.7771 85.5367C45.3074 86.7744 49.3669 86.7886 51.349 86.579" stroke="black" stroke-width="3" stroke-linecap="round"/>
<path d="M24.6577 148.826C24.6577 147.278 26.1404 147.625 27.3331 147.083C28.2001 146.689 28.6069 148.16 29.2693 148.702C29.6823 149.04 30.8945 151.019 31.311 151.043C32.5942 151.119 33.9379 151.037 35.1129 150.48C36.9783 149.597 38.425 148.977 39.2669 147.083C39.9771 145.485 42.0115 145.305 43.3504 145.974" stroke="black" stroke-width="3" stroke-linecap="round"/>
<path d="M284.455 182.726C286.658 182.726 287.908 182.282 288.239 184.926C288.422 186.388 289.489 188.543 290.791 189.309C292.698 190.431 294.44 190.33 296.652 190.33C297.468 190.33 298.283 190.33 299.099 190.33C300.785 190.33 300.613 191.355 300.613 192.864" stroke="black" stroke-width="3" stroke-linecap="round"/>
</svg>
