<svg width="1413" height="199" viewBox="0 0 1413 199" fill="none" xmlns="http://www.w3.org/2000/svg">
<path d="M86.6955 18.4609C95.8181 40.3551 94.2936 65.6147 95.7543 88.7766C96.708 103.899 93.5928 118.831 93.0718 133.939C92.841 140.633 92.6172 147.553 93.6435 154.167C94.3685 158.839 94.2543 163.618 95.0067 168.283C95.8179 173.313 95.4025 167.655 95.4025 165.689" stroke="black" stroke-width="3" stroke-linecap="round"/>
<path d="M86.6955 10.5455C95.9082 12.3881 105.93 11.3371 115.279 11.3371C130.625 11.3371 145.936 10.5878 161.277 10.5455C192.137 10.4605 223.039 10.6592 253.888 9.71002C257.096 9.6113 263 9.89426 265.585 8.1709" stroke="black" stroke-width="3" stroke-linecap="round"/>
<path d="M282.999 10.5455C287.144 15.9336 286.165 24.2539 286.165 30.5541C286.165 44.9548 285.915 59.3834 286.209 73.7813C286.486 87.3587 289.093 100.671 288.1 114.282C287.397 123.918 282.748 138.675 287.704 147.659C289.89 151.62 294.872 156.204 294.872 160.939C294.872 163.923 274.165 164.757 272.357 164.985C266.179 165.763 259.965 165.402 253.8 166.172C248.103 166.884 242.646 168.743 236.913 169.295C215.485 171.357 193.697 167.396 172.182 169.251C162.373 170.096 152.555 168.308 142.719 168.943C137.04 169.309 131.484 170.735 125.833 171.273C118.894 171.934 113.577 170.76 106.66 169.822C104.512 169.531 102.315 169.646 100.152 169.646C97.772 169.646 96.7093 170.733 97.7771 168.063" stroke="black" stroke-width="3" stroke-linecap="round"/>
<path d="M108.859 24.7933C102.448 25.5057 106.12 35.1711 111.673 30.598C113.911 28.755 113.277 25.5615 110.794 24.3536C108.665 23.3182 106.512 25.3697 104.901 26.3764" stroke="black" stroke-width="3" stroke-linecap="round"/>
<path d="M125.481 21.6272C125.481 26.0291 127.304 31.3317 132.737 27.0801C136.082 24.4626 126.886 21.4995 124.69 24.7934" stroke="black" stroke-width="3" stroke-linecap="round"/>
<path d="M146.853 24.0018C146.853 26.6983 151.07 30.4543 152.834 26.8161C154.713 22.9403 146.824 23.8611 145.27 24.7933" stroke="black" stroke-width="3" stroke-linecap="round"/>
<path d="M169.808 23.2102C169.939 27.6679 173.212 29.5263 177.196 26.3764C178.907 25.0233 177.384 23.8328 175.876 23.3861C173.007 22.536 171.554 23.3672 169.016 24.0017" stroke="black" stroke-width="3" stroke-linecap="round"/>
<path d="M195.137 23.2102C194.904 24.8469 194.16 27.5933 196.281 28.3992C198.205 29.1303 201.03 28.0036 201.646 25.9806C202.749 22.3564 196.328 22.4175 194.346 23.2102" stroke="black" stroke-width="3" stroke-linecap="round"/>
<path d="M215.718 22.4187C216.422 23.9837 216.76 26.462 218.312 27.4318C220.196 28.6095 225.304 29.0521 226.184 26.2885C227.815 21.1618 219.787 21.3485 218.092 25.5849" stroke="black" stroke-width="3" stroke-linecap="round"/>
<path d="M237.089 23.2102C237.217 23.2596 248.221 26.0135 245.049 23.3421C243.477 22.0184 240.579 22.4187 238.672 22.4187" stroke="black" stroke-width="3" stroke-linecap="round"/>
<path d="M258.461 20.8356C259.709 23.3322 271.126 40.2645 271.126 30.7299C271.126 28.2338 266.127 28.3446 264.969 26.3764C263.419 23.7401 261.443 21.4998 260.836 18.4609" stroke="black" stroke-width="3" stroke-linecap="round"/>
<path d="M270.334 35.0834C273.283 38.0326 274.86 41.8995 274.204 46.165C273.46 51.0034 272.709 54.9489 272.709 60.0171C272.709 70.1605 265.575 78.1069 271.302 87.8531C274.323 92.9953 275.599 98.8319 278.865 103.86C281.9 108.531 284.903 112.659 285.33 118.416C285.574 121.713 286.171 124.446 288.628 126.903C291.186 129.461 293.74 129.087 297.071 129.629C303.095 130.61 315.486 132.049 319.63 137.149C321.683 139.676 320.016 146.368 320.246 149.462C320.592 154.133 326.206 158.538 329.964 160.587C334.517 163.071 340.06 162.563 345.003 163.49C348.315 164.111 351.396 164.105 354.854 164.105C361.514 164.105 367.614 163.329 373.675 166.084C382.145 169.934 393.492 162.299 402.083 162.522C408.554 162.69 413.623 166.345 419.673 167.931C425.374 169.427 430.779 168.616 436.207 166.656C445.438 163.323 454.898 163.555 464.439 165.513C472.89 167.246 481.613 166.098 490.164 166.876C500.873 167.849 511.483 168.767 522.046 170.834C530.354 172.459 538.366 173.801 546.848 172.021C555 170.31 562.161 166.695 570.77 166.48C576.899 166.327 582.935 164.728 589.108 165.425C598.266 166.459 598.75 173.662 594.824 180.728C589.488 190.334 576.226 194.89 565.713 192.953C560.263 191.949 553.042 189.566 556.566 183.059C559.466 177.706 563.401 174.566 569.539 174.396C575.372 174.234 580.939 172.115 586.777 172.021C594.741 171.892 600.34 176.245 607.005 180.244C609.16 181.537 612.016 183.021 611.051 185.917C609.751 189.818 609.298 192.598 614.041 193.569C618.827 194.547 623.346 195.575 628.113 196.735C632.643 197.837 636.245 196.944 640.602 195.591C644.262 194.455 646.319 195.139 646.319 191.018" stroke="black" stroke-width="3" stroke-linecap="round"/>
<path d="M110.442 49.3313C109.02 50.9311 111.025 53.8141 111.233 55.7956C112.016 63.235 113.139 70.6551 114.004 78.0908C114.61 83.3008 112.816 88.1168 112.816 93.3501C112.816 101.857 112.025 110.328 112.025 118.855C112.025 127.002 113.206 135.03 111.849 143.174C111.401 145.861 109.652 148.298 109.035 151.001C108.884 151.661 108.859 156.737 108.859 154.607" stroke="black" stroke-width="3" stroke-linecap="round"/>
<path d="M110.442 47.7482C112.361 44.337 119.516 44.3681 122.931 43.9664C131.352 42.9756 139.793 42.9259 148.26 42.9989C167.162 43.1619 185.858 42.9512 204.812 42.3833C214.3 42.099 223.339 43.7905 232.692 43.7905C238.183 43.7905 243.632 42.9989 249.138 42.9989C253.448 42.9989 257.757 42.9989 262.067 42.9989C264.621 42.9989 267.208 43.0305 269.147 44.582C270.685 45.8123 270.334 48.4154 270.334 50.1228C270.334 54.7279 270.504 59.0557 271.522 63.5791C273.879 74.0543 272.215 85.2521 274.732 95.6807C276.901 104.666 280.97 112.074 282.032 121.362C282.854 128.557 281.373 135.079 279.657 141.942C278.936 144.828 278.599 149.714 276.491 152.056C272.966 155.972 265.413 154.105 260.836 154.783C247.931 156.695 235.733 154.607 222.841 154.607C215.278 154.607 207.285 153.856 199.799 155.047C192.409 156.222 184.459 157.685 176.976 157.685C169.999 157.685 162.835 156.472 155.824 156.146C150.258 155.887 145.386 154.177 139.773 155.003C134.897 155.72 130.403 155.09 125.569 154.651C123.753 154.486 121.182 154.238 119.501 155.003C118.186 155.6 108.577 154.607 111.233 154.607" stroke="black" stroke-width="3" stroke-linecap="round"/>
<path d="M119.94 48.5397C117.391 51.0887 115.44 53.402 113.608 56.4551" stroke="black" stroke-width="3" stroke-linecap="round"/>
<path d="M141.312 45.3735C132.838 51.3915 124.423 57.3104 116.774 64.3707" stroke="black" stroke-width="3" stroke-linecap="round"/>
<path d="M161.892 50.1228C146.861 62.7341 132.786 76.4147 118.357 89.7001" stroke="black" stroke-width="3" stroke-linecap="round"/>
<path d="M195.929 47.7482C176.226 59.3262 157.643 72.2807 139.377 86.0062C134.029 90.0248 127.29 94.0538 123.898 99.9902" stroke="black" stroke-width="3" stroke-linecap="round"/>
<path d="M237.881 48.5397C213.408 65.9077 187.879 81.9964 163.036 98.8469C152.324 106.112 140.481 113.316 131.374 122.681C127.959 126.193 128.751 125.767 131.022 126.903" stroke="black" stroke-width="3" stroke-linecap="round"/>
<path d="M251.337 54.8721C251.938 54.4962 252.479 53.7461 253.184 53.8167C256.218 54.12 248.329 57.5077 245.84 59.2695C223.649 74.9816 201.985 91.6583 180.977 108.917C167.821 119.726 155.801 132.398 141.928 142.294C137.569 145.403 137.748 143.924 140.521 141.151" stroke="black" stroke-width="3" stroke-linecap="round"/>
<path d="M258.461 77.8269C252.404 81.9298 246.854 87.0197 241.135 91.547C223.588 105.439 206.044 119.312 188.805 133.587C182.519 138.792 171.501 145.479 167.257 153.024C165.578 156.009 172.748 148.92 175.349 146.691" stroke="black" stroke-width="3" stroke-linecap="round"/>
<path d="M260.836 100.782C250.832 118.288 203.268 156.828 219.675 145.108" stroke="black" stroke-width="3" stroke-linecap="round"/>
<path d="M271.126 115.821C264.277 127.429 255.078 135.662 245.269 144.757C240.727 148.967 239.299 150.595 245.005 147.483" stroke="black" stroke-width="3" stroke-linecap="round"/>
<path d="M271.126 130.069C274.438 134.485 261.627 143.786 261.627 145.9" stroke="black" stroke-width="3" stroke-linecap="round"/>
<path d="M270.334 140.359C270.623 144.86 270.858 148.755 267.96 152.232" stroke="black" stroke-width="3" stroke-linecap="round"/>
<path d="M120.732 132.444C132.911 138.906 145.081 145.079 158.154 149.594C165.383 152.09 172.853 153.775 180.098 156.19" stroke="black" stroke-width="3" stroke-linecap="round"/>
<path d="M136.563 113.447C135.462 110.144 142.914 116.326 145.93 118.064C158.012 125.028 170.147 131.788 182.736 137.809C194.539 143.453 206.759 148.046 218.092 154.607" stroke="black" stroke-width="3" stroke-linecap="round"/>
<path d="M141.312 88.1171C168.182 99.9235 192.046 116.395 216.949 131.74C223.231 135.611 230.276 140.595 237.441 142.822C239.543 143.475 237.283 140.003 237.089 139.568" stroke="black" stroke-width="3" stroke-linecap="round"/>
<path d="M137.354 53.2889C133.389 54.2804 143.411 58.8054 146.721 61.2044C165.242 74.6291 183.376 88.5972 200.986 103.2C213.068 113.22 224.761 123.729 236.21 134.466C242.116 140.006 238.322 135.448 236.298 131.652" stroke="black" stroke-width="3" stroke-linecap="round"/>
<path d="M171.391 44.582C177.859 53.8801 190.044 60.7348 198.743 67.6248C210.6 77.0156 222.09 86.8217 233.659 96.5602C239.949 101.855 246.387 107.02 251.865 113.183C253.072 114.54 253.94 115.597 255.295 116.613" stroke="black" stroke-width="3" stroke-linecap="round"/>
<path d="M212.551 51.7059C209.069 51.7059 217.442 56.6718 220.027 59.0058C228.792 66.9188 237.465 74.9264 246.148 82.928C251.153 87.5404 256.731 94.2325 263.21 96.8241" stroke="black" stroke-width="3" stroke-linecap="round"/>
<path d="M245.796 53.2889C254.645 57.7135 261.619 66.6458 267.168 74.6607" stroke="black" stroke-width="3" stroke-linecap="round"/>
<path d="M149.228 7.37929C149.062 9.69387 146.297 3.52394 146.501 3.46554C149.265 2.67581 153.291 3.42156 156.176 3.42156C160.734 3.42156 165.293 3.42156 169.852 3.42156C176.714 3.42156 185.299 3.63353 192.015 2.23424C196.843 1.22852 202.251 1.83847 207.186 1.83847C210.021 1.83847 214.1 1.09349 216.861 1.88244C217.552 2.07977 216.118 4.47219 215.893 5.00465C215.389 6.20161 215.866 7.70236 215.718 8.96239C215.467 11.092 214.134 8.36206 214.134 7.37929C214.134 6.04299 213.953 5.06172 214.75 4.03721C215.597 2.9482 205.321 2.63001 204.284 2.63001C200.707 2.63001 197.131 2.63001 193.554 2.63001C190.311 2.63001 187.24 3.71423 184.056 4.16913C180.644 4.65655 176.862 4.21311 173.414 4.21311C167.081 4.21311 160.749 4.21311 154.417 4.21311C153.17 4.21311 147.52 5.58279 149.228 5.7962C149.542 5.83553 151.973 7.31023 152.218 7.55519C152.339 7.67633 150.738 9.10717 151.602 7.37929" stroke="black" stroke-width="3" stroke-linecap="round"/>
<path d="M90.6532 123.737C83.2709 124.147 79.3241 130.826 78.736 137.589C78.0438 145.549 66.0023 154.043 60.5745 158.741C56.8322 161.979 53.9251 165.267 49.0531 166.92C45.7756 168.032 39.4522 170.111 36.0365 169.163C30.5501 167.639 25.0124 157.419 23.9874 152.408C22.4416 144.851 24.2509 137.592 24.9988 130.113C25.5395 124.707 28.2259 119.794 28.121 114.238C28.0545 110.711 24.4288 98.54 20.9971 96.8241" stroke="black" stroke-width="3" stroke-linecap="round"/>
<path d="M24.9549 102.365C20.7208 104.606 18.4498 108.04 14.0491 104.739C12.0863 103.267 9.42651 94.0117 12.2901 92.8663C18.177 90.5115 20.8187 87.4225 26.494 91.679C30.8236 94.9262 30.0858 99.0715 24.9549 100.782" stroke="black" stroke-width="3" stroke-linecap="round"/>
<path d="M2 99.1987C2 94.4315 4.11188 89.6806 4.37464 84.9509C4.43086 83.9389 5.35813 83.2421 5.12221 82.1805C5.06011 81.901 3.48769 79.792 3.75899 79.7619C5.36926 79.5829 7.74229 80.2016 9.47572 80.2016C12.143 80.2016 14.0827 79.1201 16.5996 78.6625C22.0559 77.6704 31.5024 80.2505 36.5202 82.1805C41.2134 83.9856 41.5773 81.2894 41.5773 87.2815C41.5773 91.4062 42.2764 95.3078 42.3689 99.3746C42.4463 102.782 43.7854 106.158 43.952 109.489C44.1495 113.44 39.912 112.721 37.0039 112.655C33.1141 112.567 31.4199 111.99 27.5054 113.447C23.3146 115.006 18.3129 115.03 13.8732 115.03C11.0328 115.03 8.19118 115.821 5.56196 115.821C3.14116 115.821 3.08263 112.563 2.74757 110.72C2.39061 108.757 2 107.244 2 105.135C2 102.795 3.58309 101.607 3.58309 99.1987" stroke="black" stroke-width="3" stroke-linecap="round"/>
<path d="M648.649 190.141C646.013 196.323 653.698 188.29 655.778 187.42C659.791 185.744 662.459 181.151 666.222 178.577C674.541 172.888 687.663 167.016 697.888 171.095C703.311 173.258 707.386 177.945 712.809 180.108C720.03 182.989 726.853 179.801 733.615 178.067C749.079 174.101 758.507 176.756 773.984 180.618C782.183 182.664 790.774 186.077 799.35 185.21C812.358 183.894 824.347 181.316 836.983 184.87C845.822 187.356 856.631 191.683 865.665 192.862C877.014 194.344 891.64 183.468 901.392 178.832C912.282 173.656 924.289 172.255 936.124 171.69C957.381 170.676 976.299 169.92 997.3 174.836C1008.65 177.494 1019.81 179.206 1031.45 179.428C1037.92 179.55 1046.21 181.894 1052.34 179.088C1062.21 174.57 1069.54 169.014 1080.69 167.183C1089.1 165.803 1094.59 164.242 1102.99 165.568C1108.71 166.47 1114.62 161.866 1120.23 161.146C1136.98 158.998 1157.01 164.464 1171.21 173.305C1188.13 183.842 1207.25 169.906 1223.43 166.333C1240.17 162.638 1258.98 167.183 1276.07 167.183C1284.21 167.183 1287.89 171.194 1294.89 173.986C1302.23 176.915 1311.18 174.235 1318.6 173.39C1331.02 171.975 1342.46 174.058 1354.74 170.584C1363.59 168.079 1370.64 170.244 1379.02 170.244C1389.69 170.244 1402.83 164.363 1411.1 158" stroke="black" stroke-width="3" stroke-linecap="round"/>
</svg>
