<svg width="430" height="462" viewBox="0 0 430 462" fill="none" xmlns="http://www.w3.org/2000/svg">
<path d="M25.5073 11.4489C25.5073 10.1335 26.5188 9.80598 27.7795 10.1662C28.9001 10.4864 28.752 12.9507 29.1355 13.7944C30.213 16.165 30.1363 19.5667 30.9312 22.1501C31.7735 24.8874 33.545 27.5289 34.0463 30.286C34.5547 33.082 34.4179 35.919 35.2557 38.6418C40.0919 54.3592 41.0627 70.6052 43.355 86.6508C44.0007 91.1709 44.6376 95.8755 44.6376 100.504C44.6376 104.449 45.957 108.063 45.957 112.048C45.957 122.986 47.831 133.555 48.6323 144.372C48.8985 147.965 50.5746 151.917 50.5746 155.256C50.5746 157.955 50.6327 160.3 51.1977 162.842C51.4465 163.962 51.2343 165.33 51.2343 166.47C51.2343 167.899 49.9661 167.84 49.4019 169.109C49.0342 169.936 49.1559 171.513 49.2553 172.407C49.4291 173.971 52.2927 174.386 49.2553 174.386" stroke="black" stroke-opacity="0.05" stroke-linecap="round"/>
<path d="M63.7676 10.7892C68.3673 9.31732 66.7527 13.4192 67.3957 16.7629C68.2471 21.1901 68.6174 25.6172 69.1915 30.0662C70.6481 41.3549 69.2512 52.8733 70.8773 64.0756C73.451 81.8057 76.2287 99.5546 79.7462 117.142C81.1885 124.354 80.2592 132.449 80.2592 139.791C80.2592 146.045 80.2592 152.3 80.2592 158.554C80.2592 164.272 80.2592 181.423 80.2592 175.706" stroke="black" stroke-opacity="0.05" stroke-linecap="round"/>
<path d="M86.856 13.4279C89.054 13.4279 91.4149 12.8267 92.793 14.8938C95.3547 18.7364 95.7676 23.5333 96.4211 27.9772C98.2535 40.4371 99.3097 53.015 100.562 65.5415C101.787 77.7831 102.645 90.3023 104.337 102.483C105.068 107.748 105.686 113.154 106.976 118.315C108.174 123.107 107.775 128.093 108.772 132.827C110.911 142.99 112.471 153.105 114.709 163.172C116.235 170.043 115.222 191.32 115.222 184.281" stroke="black" stroke-opacity="0.05" stroke-linecap="round"/>
<path d="M123.797 8.81025C131.678 5.30754 130.173 19.1432 130.541 23.3229C131.898 38.7644 136.991 53.0311 136.991 68.5833C136.991 81.1279 138.97 93.3959 138.97 105.891C138.97 116.002 140.78 125.648 144.394 135.1C145.791 138.755 147.635 142.083 148.718 145.874C149.233 147.678 149.273 149.578 150.037 151.298C151.125 153.745 149.601 159.151 151.503 160.863C153.135 162.332 154.142 167.278 154.142 169.439C154.142 170.978 154.142 172.517 154.142 174.057C154.142 177.159 153.077 168.934 152.823 167.79" stroke="black" stroke-opacity="0.05" stroke-linecap="round"/>
<path d="M155 7C158.188 12.9366 159.184 19.578 159.687 26.8803C160.539 39.2345 163.231 51.4207 164.635 63.6942C165.921 74.9294 165.806 86.1742 167.5 97.3378C168.313 102.695 169.215 107.824 170.336 113.078C171.297 117.582 171.098 122.275 171.551 126.879C172.091 132.366 173.42 138.171 174.502 143.551C175.155 146.797 176.875 151.018 176.875 154.368C176.875 158.978 177.981 164.941 179.074 169.325C179.28 170.152 180 175.661 180 173.502" stroke="black" stroke-opacity="0.05" stroke-linecap="round"/>
<path d="M189 11C189.055 13.4913 189.548 15.6677 189.97 18.0183C190.601 21.5275 190.519 25.3241 190.519 28.9521C190.519 40.4359 190.913 52.0753 191.362 63.5266C191.874 76.5853 194.792 89.2208 196.213 102.017C197.325 112.027 198.427 122.451 200.473 132.011C201.912 138.73 203.099 145.697 204.481 152.475C205.425 157.104 206.161 161.327 206.759 166.142C207.086 168.779 207.216 172.177 207.897 174.564C208.491 176.642 206.36 170.696 205.324 169.245" stroke="black" stroke-opacity="0.05" stroke-linecap="round"/>
<path d="M226 6C228.609 6.34206 227.476 24.9373 227.476 28.8143C227.476 35.966 227.367 43.1678 227.493 50.3125C227.594 56.094 228.668 61.4854 228.953 67.2039C229.245 73.0702 229.543 78.7612 229.543 84.6802C229.543 89.8465 229.008 96.5655 230.134 101.279C232.144 109.697 231.468 120.013 232.43 129.066C232.767 132.235 233.144 135.367 233.513 138.535C233.846 141.402 233.831 144.731 234.71 147.127C235.515 149.321 235.448 150.97 235.448 153.745C235.448 155.966 235.85 157.613 236.055 159.668C236.194 161.063 236.933 162.263 237.154 163.799C237.417 165.622 237.457 167.912 238.04 169.357C238.438 170.342 238.918 174.035 238.992 172.72C239.112 170.575 237.921 167.75 237.22 166.578" stroke="black" stroke-opacity="0.05" stroke-linecap="round"/>
<path d="M266.945 6.17163C271.711 6.35492 272.16 11.0802 272.736 15.0405C273.549 20.6353 272.728 26.5402 271.856 32.0452C270.991 37.5028 269.645 43.5345 269.584 49.0499C269.341 70.8855 267.202 92.5664 264.453 114.21C262.808 127.167 266.945 139.621 266.945 152.471C266.945 157.528 266.945 162.586 266.945 167.643C266.945 169.011 266.945 170.38 266.945 171.748C266.945 173.349 266.22 168.616 265.626 167.13" stroke="black" stroke-opacity="0.05" stroke-linecap="round"/>
<path d="M297.949 5.51191C297.949 2.74557 300.144 10.6776 300.441 13.4279C301.132 19.8164 301.06 27.1018 300.515 33.5111C299.961 40.0108 299.269 46.113 299.269 52.7147C299.269 58.6272 299.269 64.5398 299.269 70.4524C299.269 81.0681 301.497 90.7674 298.609 101.163C296.365 109.24 296.63 116.904 296.63 125.241C296.63 127.928 297.316 131.724 295.97 134.147C294.58 136.65 294.651 139.287 294.651 142.063C294.651 147.34 294.651 152.617 294.651 157.895C294.651 162.93 295.311 167.743 295.311 172.701C295.311 178.484 292.437 170.916 291.353 169.109" stroke="black" stroke-opacity="0.05" stroke-linecap="round"/>
<path d="M328.294 3.53296C330.622 12.5849 331.629 21.5553 330.859 30.9824C329.815 43.7778 328.661 56.4467 326.681 69.1697C325.041 79.7125 324.742 90.5171 323.346 101.127C322.166 110.095 321.697 119.836 321.697 128.869C321.697 142.063 321.697 181.643 321.697 168.449" stroke="black" stroke-opacity="0.05" stroke-linecap="round"/>
<path d="M356 4.19263C359.852 10.6922 359.958 18.2892 359.958 25.6318C359.958 31.5728 357.486 36.6954 356.366 42.4533C355.037 49.2904 353.908 56.0406 352.702 62.9029C350.978 72.7033 351.183 83.2337 350.686 93.1742C350.477 97.3602 349.343 101.591 348.89 105.781C348.37 110.593 348.744 115.604 348.744 120.44C348.744 133.728 349.403 147.006 349.403 160.24C349.403 162.701 350.063 164.905 350.063 167.46C350.063 168.449 350.063 169.439 350.063 170.428C350.063 172.872 350.063 166.363 350.063 165.811" stroke="black" stroke-opacity="0.05" stroke-linecap="round"/>
<path d="M392.941 4.85229C392.941 6.96635 393.461 7.94605 393.968 9.90973C394.971 13.7999 394.261 18.624 394.261 22.6266C394.261 27.3764 392.418 32.4468 391.622 37.1759C390.552 43.5359 388.427 49.7938 386.968 56.0864C384.413 67.103 382.387 77.2982 382.387 88.6299C382.387 99.3808 379.748 109.576 379.748 120.294C379.748 132.608 379.748 144.921 379.748 157.235C379.748 160.973 379.748 164.711 379.748 168.449C379.748 171.309 380.822 174.8 377.769 171.748" stroke="black" stroke-opacity="0.05" stroke-linecap="round"/>
<path d="M9.67497 24.6422C7.77327 28.6833 18.5377 25.9809 20.3762 25.5951C29.7616 23.6253 39.7608 23.5874 49.2916 22.3334C66.311 20.094 83.7011 21.0822 100.709 19.2183C117.385 17.3907 133.77 17.4667 150.477 16.6896C173.772 15.6061 197.365 14.0876 220.695 14.0876C263.964 14.0876 307.129 12.7733 350.356 14.7839C367.091 15.5623 383.86 15.4069 400.637 15.4069C406.542 15.4069 414.854 13.938 420.61 15.7367C422.129 16.2113 425.265 16.858 425.265 14.7472" stroke="black" stroke-opacity="0.05" stroke-linecap="round"/>
<path d="M14.293 45.0919C61.0736 45.0919 107.744 39.8146 154.582 39.8146C164.302 39.8146 174.269 40.7898 183.974 41.4637C200.084 42.5825 216.408 41.2866 232.496 42.5998C244.359 43.5683 256.295 42.4545 268.154 43.4427C278.346 44.292 288.942 44.0906 299.122 43.2595C316.758 41.8199 334.861 43.3894 352.555 43.1129C359.787 42.9999 366.925 41.7936 374.214 41.7936C379.626 41.7936 385.037 41.7936 390.449 41.7936C397.389 41.7936 405.539 41.9249 412.438 42.9663C415.285 43.3961 418.396 43.1129 421.27 43.1129C423.224 43.1129 423.677 43.1129 421.307 43.1129C418.357 43.1129 415.618 42.2059 412.731 41.7936" stroke="black" stroke-opacity="0.05" stroke-linecap="round"/>
<path d="M18.9106 75.4365C3.07218 75.4365 50.5742 74.5203 66.4066 74.0805C81.8943 73.6503 97.3882 73.3111 112.876 72.8345C125.728 72.4391 138.653 71.4785 151.503 71.4785C176.359 71.4785 201.176 72.7978 226.009 72.7978C247.409 72.7978 268.787 74.7768 290.18 74.7768C307.908 74.7768 325.703 75.4365 343.466 75.4365C348.573 75.4365 353.679 75.4365 358.785 75.4365C363.422 75.4365 367.791 76.6824 372.345 76.7558C382.453 76.9189 392.58 76.7558 402.69 76.7558C404.717 76.7558 406.745 76.7558 408.773 76.7558C411.741 76.7558 415.572 76.6541 410.093 75.4365" stroke="black" stroke-opacity="0.05" stroke-linecap="round"/>
<path d="M30.7847 105.121C51.7076 105.121 72.7046 103.973 93.5995 102.996C121.852 101.674 150.189 102.064 178.33 104.315C200.563 106.094 222.485 106.441 244.81 106.441C254.057 106.441 263.305 106.441 272.552 106.441C284.029 106.441 295.358 105.121 306.818 105.121C321.2 105.121 335.642 104.462 350.063 104.462C360.289 104.462 370.23 104.193 380.371 103.179C385.382 102.678 391.012 104.194 395.91 103.106C397.868 102.671 400.16 101.935 402.177 101.823C406.374 101.59 404.125 101.63 400.857 101.163" stroke="black" stroke-opacity="0.05" stroke-linecap="round"/>
<path d="M26.167 131.508C31.3285 131.508 36.2723 130.474 41.4859 130.995C53.4252 132.189 65.6239 131.508 77.6209 131.508C89.9012 131.508 102.132 132.828 114.416 132.828C128.537 132.828 142.659 132.828 156.781 132.828C181.168 132.828 205.821 134.681 230.15 132.974C249.974 131.583 270.315 132.828 290.18 132.828C304.22 132.828 318.314 132.168 332.399 132.168C339.117 132.168 345.836 132.168 352.555 132.168C357.321 132.168 361.799 130.36 366.408 130.189C373.301 129.934 380.25 130.189 387.151 130.189C389.178 130.189 401.251 131.381 402.177 129.529" stroke="black" stroke-opacity="0.05" stroke-linecap="round"/>
<path d="M24.8477 157.235C68.218 157.235 111.542 159.214 154.948 159.214C198.193 159.214 241.438 159.214 284.683 159.214C292.232 159.214 299.782 159.214 307.331 159.214C315.691 159.214 324.501 159.976 332.802 158.884C338.785 158.097 345.022 158.554 351.052 158.554C356.588 158.554 362.146 157.895 367.727 157.895C376.042 157.895 384.532 157.235 392.941 157.235C395.812 157.235 398.683 157.235 401.554 157.235C402.525 157.235 404.063 157.563 404.852 156.905C405.728 156.175 404.563 156.885 404.156 155.256" stroke="black" stroke-opacity="0.05" stroke-linecap="round"/>
<path d="M39.3601 178.344C45.1759 178.344 41.3519 204.974 40.7527 209.019C39.9383 214.516 38.0328 219.382 36.5748 224.668C35.1074 229.987 35.1478 235.604 34.2293 241.013C32.4842 251.29 30.3962 262.566 26.8264 272.383C25.7924 275.227 25.0974 278.032 23.6747 280.593C20.9132 285.563 21.5491 280.421 21.5491 277.294" stroke="black" stroke-opacity="0.05" stroke-linecap="round"/>
<path d="M80.2592 179.004C80.2592 185.809 80.1691 191.885 78.2436 198.464C76.108 205.761 71.1671 212.831 71.0239 220.563C70.8605 229.384 70.3642 238.178 70.3642 246.95C70.3642 251.405 70.1943 254.682 68.7151 258.824C67.7826 261.435 66.8441 264.026 65.8932 266.593C65.2657 268.287 64.8474 270.052 64.3906 271.65C64.1762 272.401 63.1079 275.102 63.1079 273.336" stroke="black" stroke-opacity="0.05" stroke-linecap="round"/>
<path d="M117.86 178.344C117.86 184.536 117.546 190.098 116.614 196.155C115.469 203.602 115.385 211.098 113.902 218.511C112.693 224.555 110.176 230.282 109.138 236.395C108.277 241.466 107.049 246.38 106.133 251.421C105.51 254.846 105.052 258.606 104.704 262.085C104.389 265.228 102.688 268.629 102.688 271.687C102.688 274.742 103.538 280.273 99.3896 278.614" stroke="black" stroke-opacity="0.05" stroke-linecap="round"/>
<path d="M153.482 176.365C157.325 174.684 156.781 184.864 156.781 186.59C156.781 189.873 155.461 192.807 155.461 196.155C155.461 199.588 155.461 203.021 155.461 206.453C155.461 213.025 155.809 219.26 154.179 225.511C152.89 230.452 153.482 235.902 153.482 240.976C153.482 245.875 151.207 250.188 150.037 254.866C149.053 258.803 148.079 262.863 146.886 266.74C145.485 271.292 144.247 275.836 144.247 280.593" stroke="black" stroke-opacity="0.05" stroke-linecap="round"/>
<path d="M183.827 179.664C186.849 181.086 187.125 179.933 187.125 183.768C187.125 188.545 185.681 193.701 184.78 198.464C182.444 210.81 179.869 222.995 179.869 235.589C179.869 241.127 180.025 246.691 179.869 252.227C179.738 256.889 177.89 261.23 177.89 266.08C177.89 269.422 176.571 271.826 176.571 274.985C176.571 275.797 176.571 280.679 176.571 278.614" stroke="black" stroke-opacity="0.05" stroke-linecap="round"/>
<path d="M224.726 179.004C224.589 179.021 226.13 185.923 226.376 187.25C227.477 193.198 228.609 199.487 228.684 205.537C228.765 211.997 228.684 218.464 228.684 224.924C228.684 227.209 228.684 229.493 228.684 231.777C228.684 234.388 229.891 236.412 230.004 238.887C230.525 250.358 230.004 284.819 230.004 273.336" stroke="black" stroke-opacity="0.05" stroke-linecap="round"/>
<path d="M260.348 177.025C260.641 178.344 261.491 179.49 261.814 180.983C262.423 183.799 262.864 186.629 263.646 189.412C265.547 196.169 267.021 202.9 268.594 209.715C271.554 222.541 272.043 235.679 274.897 248.525C275.4 250.787 276.974 253.009 277.829 255.195C279.003 258.195 278.819 261.091 278.819 264.284C278.819 266.08 278.819 267.876 278.819 269.671C278.819 271.255 280.052 271.833 280.138 273.336C280.293 276.05 280.138 278.824 280.138 281.545C280.138 282.645 280.138 283.744 280.138 284.844C280.138 286.36 282.261 286.405 279.478 284.551" stroke="black" stroke-opacity="0.05" stroke-linecap="round"/>
<path d="M293.332 177.025C293.552 177.908 294.987 179.891 295.64 180.69C297.103 182.477 297.618 186.074 298.279 188.276C299.463 192.222 299.659 196.218 301.248 200.077C302.663 203.514 304.653 206.609 305.206 210.338C306.619 219.878 308.299 229.27 309.97 238.74C311.72 248.66 316.406 258.059 318.399 268.022C318.656 269.306 318.956 270.302 319.865 271.211C320.853 272.198 320.541 274.462 321.038 275.828C321.632 277.463 321.74 279.421 322.87 280.739C323.984 282.039 320.483 278.244 319.059 277.294" stroke="black" stroke-opacity="0.05" stroke-linecap="round"/>
<path d="M320.378 175.046C325.528 179.008 327.41 186.193 328.954 192.197C330.683 198.922 333.947 204.998 335.88 211.657C337.631 217.689 338.66 224.145 341.487 229.798C343.847 234.518 344.465 239.019 345.848 244.091C347.316 249.473 349.322 254.33 352.665 258.787C355.615 262.721 355.313 268.666 358.639 272.383C359.94 273.838 359.45 276.12 360.947 277.917C361.925 279.091 363.26 279.281 363.916 280.593" stroke="black" stroke-opacity="0.05" stroke-linecap="round"/>
<path d="M352.042 175.706C354.963 181.062 358.432 186.518 361.937 191.538C366.182 197.618 369.286 204.104 372.821 210.631C375.372 215.34 377.914 219.352 378.392 224.851C378.849 230.111 381.032 234.279 381.874 239.327C383.627 249.85 384.653 260.419 386.345 270.991C386.901 274.471 390.214 275.656 390.962 278.65C391.76 281.839 394.992 284.426 391.622 279.933" stroke="black" stroke-opacity="0.05" stroke-linecap="round"/>
<path d="M381.067 173.067C376.693 173.249 382.882 181.197 383.706 183.622C384.961 187.318 386.763 190.609 388.323 194.176C390.01 198.03 390.878 202.162 392.611 206.014C395.705 212.889 396.239 218.977 396.239 226.5C396.239 229.348 397.559 231.563 397.559 234.416C397.559 236.759 398.685 239.372 399.208 241.672C399.807 244.309 399.374 246.955 400.051 249.588C400.51 251.374 401.295 253.063 401.847 254.829C402.559 257.108 403.663 259.161 404.302 261.462C404.764 263.126 405.343 267.282 406.281 268.572C407.525 270.283 406.794 274.153 406.794 276.305C406.794 278.358 408.773 284.715 408.773 279.273" stroke="black" stroke-opacity="0.05" stroke-linecap="round"/>
<path d="M22.8687 283.891C24.6628 288.152 24.2955 293.056 24.9942 297.597C25.6863 302.096 26.775 306.566 27.3397 311.084C28.4408 319.893 30.6613 329.104 30.7846 337.984C30.9053 346.67 32.1678 354.938 33.5699 363.491C35.1688 373.244 36.2268 383.296 38.7006 392.882C41.7264 404.607 40.6796 417.502 40.6796 429.531C40.6796 433.466 39.8109 438.728 40.9728 442.504C41.711 444.903 42.6978 447.453 43.978 449.614C45.5582 452.28 42.1257 450.647 41.3393 449.467" stroke="black" stroke-opacity="0.05" stroke-linecap="round"/>
<path d="M60.4697 283.231C61.8509 284.766 61.7375 286.382 62.1189 288.289C63.2216 293.802 63.1084 299.409 63.1084 305C63.1084 317.683 64.9589 330.029 65.0874 342.748C65.2039 354.279 68.4195 366.378 71.0244 377.564C72.9945 386.023 76.3017 395.178 76.3017 403.95C76.3017 409.804 76.2566 414.851 77.7676 420.442C79.1089 425.404 79.6282 429.897 80.4063 434.954C80.928 438.346 82.2387 440.736 82.2387 444.19C82.2387 445.619 82.2387 447.048 82.2387 448.478C82.2387 451.062 82.2065 450.4 80.9194 448.148" stroke="black" stroke-opacity="0.05" stroke-linecap="round"/>
<path d="M98.73 288.509C99.1482 294.364 100.049 300.134 100.049 306.026C100.049 311.728 99.6897 317.268 101.075 322.811C102.591 328.873 104.667 333.561 104.667 339.999C104.667 348.63 102.688 356.866 102.688 365.396C102.688 374.201 106.646 382.359 106.646 391.417C106.646 399.377 106.475 409.267 111.264 415.971C112.706 417.99 114.195 419.08 114.525 421.725C114.811 424.01 114.895 426.201 115.881 428.358C116.918 430.625 117.249 435.015 118.667 436.787C119.555 437.898 119.752 441.383 119.839 442.871C119.959 444.905 121.89 446.385 122.478 448.148" stroke="black" stroke-opacity="0.05" stroke-linecap="round"/>
<path d="M144.907 289.168C145.167 294.115 146.636 298.899 146.849 303.901C147.069 309.08 146.91 314.199 146.226 319.33C144.271 333.99 141.097 348.718 140.949 363.564C140.831 375.312 143.973 386.206 145.933 397.683C147.132 404.706 148.396 411.649 150.514 418.426C152.433 424.569 151.503 432.159 151.503 438.583C151.503 440.672 151.503 442.761 151.503 444.85C151.503 446.428 150.184 446.944 150.184 448.661C150.184 450.871 149.378 445.345 148.865 444.19" stroke="black" stroke-opacity="0.05" stroke-linecap="round"/>
<path d="M175.911 291.807C175.911 298.795 175.911 305.782 175.911 312.77C175.911 319.751 177.23 326.555 177.23 333.623C177.23 347.5 177.23 361.377 177.23 375.255C177.23 383.87 178.55 391.98 178.55 400.652C178.55 404.208 177.411 409.949 179.209 413.186C180.609 415.704 181.736 418.181 181.848 421.102C182.011 425.343 183.167 429.33 183.167 433.635C183.167 435.481 182.556 438.501 183.461 440.085C184.328 441.602 184.487 442.043 184.487 443.86C184.487 446.657 185.806 448.14 185.806 450.787C185.806 452.141 186.466 453.2 186.466 454.305C186.466 454.875 186.473 453.104 186.173 452.619C185.341 451.28 184.414 450.275 183.827 448.808" stroke="black" stroke-opacity="0.05" stroke-linecap="round"/>
<path d="M226.706 287.849C225.621 286.9 226.046 291.786 226.046 292.613C226.046 297.593 226.067 302.24 225.02 307.126C222.355 319.56 224.776 332.205 222.381 344.58C221.101 351.194 219.543 357.624 219.449 364.37C219.377 369.594 218.683 375.022 217.983 380.202C216.621 390.28 214.743 400.374 212.999 410.4C211.358 419.836 212.853 430.756 212.853 440.378C212.853 443.473 211.697 446.358 211.533 449.467C211.396 452.065 210.874 458.943 210.874 452.106" stroke="black" stroke-opacity="0.05" stroke-linecap="round"/>
<path d="M271.563 287.189C269.419 290.405 270.335 296.334 269.29 300.163C267.3 307.461 264.634 314.389 262.327 321.565C259.961 328.928 259.541 336.33 257.856 343.847C256.278 350.89 254.347 357.866 252.835 364.92C249.435 380.787 251.113 397.816 251.113 413.992C251.113 418.886 248.474 423.674 248.474 428.688C248.474 431.465 248.193 437.439 246.825 439.902C245.728 441.876 245.176 443.963 245.176 446.169C245.176 447.445 245.293 448.166 244.516 449.137C242.877 451.187 244.401 445.483 244.516 444.85" stroke="black" stroke-opacity="0.05" stroke-linecap="round"/>
<path d="M324.336 285.87C320.139 296.828 316.296 308.982 314.148 320.502C311.547 334.454 306.736 347.858 303.74 361.732C301.278 373.127 299.904 383.906 298.939 395.484C298.124 405.262 297.805 415.56 300.588 425.023C301.995 429.809 301.907 434.5 301.907 439.426C301.907 441.828 302.063 444.286 301.907 446.682C301.775 448.703 299.928 449.73 299.928 451.776C299.928 454.282 297.408 454.215 296.483 456.064C294.468 460.094 293.998 455.097 293.332 452.765" stroke="black" stroke-opacity="0.05" stroke-linecap="round"/>
<path d="M362.597 285.87C357.019 296.349 360.657 307.589 358.639 318.89C356.052 333.376 356.317 348.182 352.702 362.538C347.497 383.204 348.744 405.431 348.744 426.635C348.744 428.495 349.24 431.247 348.45 432.976C347.693 434.633 346.205 436.022 345.592 437.74C344.213 441.601 342.766 445.393 342.184 449.467C341.84 451.873 340.168 453.748 340.168 456.723C340.168 457.798 340.043 458.956 340.168 460.022C340.283 460.997 341.428 460.468 341.267 459.545C340.975 457.864 339.494 455.698 338.849 454.085" stroke="black" stroke-opacity="0.05" stroke-linecap="round"/>
<path d="M387.004 289.168C387.004 297.842 387.004 306.515 387.004 315.188C387.004 329.998 380.408 343.326 375.497 357.077C368.794 375.844 367.214 394.11 367.214 413.845C367.214 423.081 367.214 432.316 367.214 441.551C367.214 445.118 367.214 448.685 367.214 452.252C367.214 454.476 367.214 456.699 367.214 458.922C367.214 461.414 367.214 453.938 367.214 451.446" stroke="black" stroke-opacity="0.05" stroke-linecap="round"/>
<path d="M412.072 289.828C410.436 301.277 408.383 312.646 407.161 324.167C405.698 337.962 402.691 350.622 398.878 363.967C394.003 381.032 393.517 398.287 391.109 415.678C390.352 421.148 388.784 426.641 387.298 431.949C386.056 436.384 385.671 441.21 383.999 445.509C382.702 448.845 381.145 451.87 380.261 455.404C379.672 457.759 378.795 462.257 377.109 458.043" stroke="black" stroke-opacity="0.05" stroke-linecap="round"/>
<path d="M24.4671 193C19.4074 191.068 20.0924 191.125 25.1769 191.125C32.0145 191.125 38.852 191.125 45.6896 191.125C65.6814 191.125 85.5966 189.25 105.595 189.25C126.064 189.25 146.569 189.875 167.062 189.875C178.734 189.875 190.246 191.125 201.913 191.125C214.116 191.125 226.537 190.492 238.715 191.438C274.57 194.222 311.026 189.555 346.921 189.25C359.719 189.141 372.598 188 385.391 188C390.945 188 396.556 188.625 402 188.625" stroke="black" stroke-opacity="0.05" stroke-linecap="round"/>
<path d="M21.0292 212C19.6306 212 12.8176 212 17.7917 212C25.3562 212 32.8346 211.813 40.3819 211.058C73.3171 207.762 106.351 208.145 139.376 208.145C166.834 208.145 194.293 208.145 221.751 208.145C241.808 208.145 262.279 209.552 282.255 207.203C321.044 202.641 438.141 204.29 399.163 204.29" stroke="black" stroke-opacity="0.05" stroke-linecap="round"/>
<path d="M16 224C33.2916 221.587 51.4696 224.442 68.841 222.631C99.0533 219.482 129.964 221.317 160.325 220.29C190.381 219.272 220.383 221.263 250.422 221.263C271.357 221.263 292.281 221.81 313.191 221.81C330.073 221.81 346.949 221.588 363.79 222.388C373.562 222.852 383.298 222.905 393.11 222.905C396.446 222.905 399.891 222.708 403.216 222.936C405.153 223.068 406.95 223.453 408.909 223.453C409.458 223.453 407.367 223.493 406.703 222.358" stroke="black" stroke-opacity="0.05" stroke-linecap="round"/>
<path d="M9.67529 246.95C15.0929 244.542 22.7345 245.326 28.5124 244.971C41.9653 244.143 55.4624 243.495 68.9353 242.992C102.244 241.746 135.774 239.751 169.095 241.526C212.207 243.822 255.433 242.992 298.609 242.992C325.704 242.992 352.799 242.992 379.895 242.992C387.762 242.992 395.629 242.992 403.496 242.992C405.999 242.992 407.504 243.664 409.946 244.164C411.827 244.55 407.676 244.311 407.124 244.311C405.473 244.311 404.283 244.375 402.836 243.651" stroke="black" stroke-opacity="0.05" stroke-linecap="round"/>
<path d="M2 264.66C21.4601 264.66 40.9203 264.66 60.3804 264.66C75.0019 264.66 89.6272 264.558 104.248 264.66C118.655 264.76 133.047 265.979 147.456 265.979C195.004 265.979 242.401 264 289.944 264C297.69 264 305.328 265.319 313.069 265.319C322.011 265.319 330.953 265.319 339.896 265.319C353.222 265.319 366.572 264.66 379.842 264.66C388.467 264.66 397.091 264.66 405.716 264.66C408.244 264.66 410.773 264.66 413.302 264.66C414.761 264.66 420.872 265.313 417.59 264" stroke="black" stroke-opacity="0.05" stroke-linecap="round"/>
<path d="M16.3307 304.061C-15.1564 302.131 79.4255 303.424 110.974 303.424C157.826 303.424 204.678 303.424 251.53 303.424C284.754 303.424 317.969 303.615 351.195 304.061C367.282 304.277 383.403 305.974 399.528 305.974C404.007 305.974 408.486 305.974 412.966 305.974C415.302 305.974 417.638 305.974 419.973 305.974C422.169 305.974 422.799 306.292 420.768 304.699" stroke="black" stroke-opacity="0.05" stroke-linecap="round"/>
<path d="M12 322.517C51.7954 322.517 91.5854 319.476 131.4 322.004C175.662 324.815 220.047 323.312 264.322 325.119C301.35 326.631 338.401 326.475 375.476 326.475C385.371 326.475 395.266 326.475 405.161 326.475C408.459 326.475 411.758 326.475 415.056 326.475C416.99 326.475 420.789 326.817 417.695 324.496" stroke="black" stroke-opacity="0.05" stroke-linecap="round"/>
<path d="M21 344.5C64.0352 344.5 107 343 150.05 343C176.368 343 203 343.179 229.286 344.667C247.521 345.698 266.295 346.127 284.533 344.875C300.651 343.768 316.961 344.5 333.112 344.5C346.101 344.5 359.861 342.979 372.765 344.583C376.854 345.092 380.425 346 384.619 346C388.206 346 391.793 346 395.379 346C399.079 346 402.701 345.25 406.421 345.25C408.415 345.25 411.653 346.26 408.997 343.75" stroke="black" stroke-opacity="0.05" stroke-linecap="round"/>
<path d="M25.0497 362.363C22.2845 362.363 18.1662 362.363 23.8444 362.363C33.0375 362.363 42.2305 362.363 51.4235 362.363C61.7933 362.363 72.1495 361.42 82.512 361.145C93.9697 360.841 105.471 361.11 116.933 361.11C137.72 361.11 158.398 362.363 179.181 362.363C198.015 362.363 216.801 362.441 235.615 362.954C276.046 364.057 316.328 366.121 356.814 366.121C369.183 366.121 381.539 366.531 393.858 366.747C400.238 366.859 406.631 368 413 368" stroke="black" stroke-opacity="0.05" stroke-linecap="round"/>
<path d="M16 384.319C20.5829 385.284 25.3375 384.979 29.9996 384.979C38.5997 384.979 47.1998 384.979 55.7999 384.979C82.9075 384.979 109.99 383 137.085 383C145.93 383 154.774 383 163.619 383C175.014 383 186.353 384.319 197.738 384.319C217.776 384.319 237.633 386.255 257.621 386.921C279.725 387.658 301.943 386.958 324.064 386.958C338.281 386.958 352.414 387.618 366.612 387.618C378.834 387.618 415.446 389.597 403.224 389.597" stroke="black" stroke-opacity="0.05" stroke-linecap="round"/>
<path d="M20.8896 404.61C37.6424 406.421 55.0037 405.269 71.8305 405.269C87.0517 405.269 102.273 405.269 117.494 405.269C128.633 405.269 139.727 404.052 150.844 403.95C170.679 403.768 190.524 403.95 210.36 403.95C219.779 403.95 229.198 403.95 238.616 403.95C249.375 403.95 260.025 405.057 270.756 405.269C290.327 405.657 310.123 407.031 329.687 405.416C343.094 404.309 356.537 404.61 370 404.61C378.99 404.61 387.9 403.95 396.899 403.95C399.33 403.95 401.761 403.95 404.192 403.95C405.487 403.95 406.782 403.95 408.077 403.95C410.489 403.95 404.557 403.95 404.156 403.95" stroke="black" stroke-opacity="0.05" stroke-linecap="round"/>
<path d="M22 424.958C36.7888 424.958 51.4454 423.754 66.1976 422.832C88.7923 421.42 111.468 421 134.107 421C176.193 421 218.406 421.607 260.469 422.942C281.268 423.603 302.181 422.979 322.991 422.979C335.186 422.979 347.85 422.001 359.969 423.492C370.811 424.826 382.445 423.639 393.392 423.639C396.018 423.639 398.645 423.639 401.271 423.639C406.373 423.639 401.991 423.08 399.329 422.319" stroke="black" stroke-opacity="0.05" stroke-linecap="round"/>
<path d="M28.8057 438.912C41.8281 438.912 54.7741 439.572 67.7993 439.572C94.0238 439.572 120.28 437.729 146.483 439.939C189.598 443.575 233.348 441.551 276.62 441.551C307.869 441.551 339.117 441.551 370.366 441.551C380.609 441.551 390.938 439.572 401.15 439.572C401.958 439.572 405.922 439.572 403.129 439.572C400.494 439.572 398.164 439.429 395.58 438.912" stroke="black" stroke-opacity="0.05" stroke-linecap="round"/>
<path d="M3.96875 10.4196C3.96875 13.2972 6.2147 15.3733 7.74859 17.7837C9.15895 20 10.3273 24.6886 10.4205 27.2985C10.4824 29.0313 11.5936 30.542 11.5936 32.1536C11.5936 34.6914 12.1801 37.172 12.1801 39.7459C12.1801 44.8114 13.3532 49.749 13.3532 54.8652C13.3532 59.8184 13.8014 64.2265 14.4936 69.0722C14.9361 72.1692 16.8723 74.8572 16.8723 78.0004C16.8723 86.1207 18.7621 94.0383 21.4342 101.787C23.5309 107.868 25.0837 113.564 25.0837 120.1C25.0837 129.208 25.6702 138.136 25.6702 147.21C25.6702 152.88 25.6702 158.55 25.6702 164.22C25.6702 166.62 25.6702 169.021 25.6702 171.421C25.6702 172.496 25.6702 173.572 25.6702 174.647C25.6702 176.979 24.4972 175.766 24.4972 174.06" stroke="black" stroke-width="3.8" stroke-linecap="round"/>
<path d="M25.6699 174.06C25.6699 175.136 25.6699 176.211 25.6699 177.286C25.6699 178.414 24.4969 178.708 24.4969 179.926C24.4969 183.319 21.8404 185.194 21.1081 188.398C19.9114 193.633 17.4586 199.67 17.4586 205.016C17.4586 210.646 16.4745 217.2 15.2428 222.742C14.6856 225.25 15.1125 228.252 15.1125 230.823C15.1125 233.899 14.239 235.992 13.3529 238.871C12.7367 240.874 12.1798 243.85 12.1798 245.942C12.1798 249.486 10.2317 252.615 8.95394 255.881C6.967 260.958 7.37318 266.895 4.84825 271.945C3.80009 274.041 3.96846 275.779 3.96846 278.136C3.96846 280.397 2.79541 282.059 2.79541 284.034C2.79541 285.852 4.39994 287.058 5.14151 288.726C6.47779 291.733 7.39783 294.591 8.20448 297.817C8.98962 300.958 9.66933 304.248 10.5506 307.332C11.5427 310.805 11.5411 314.298 12.3102 317.759C14.0822 325.733 16.6859 334.332 16.872 342.524C16.9882 347.636 17.0465 352.689 17.5889 357.773C18.0052 361.676 19.2181 365.349 19.2181 369.243C19.2181 372.626 18.4168 377.126 19.3485 380.387C20.68 385.047 22.1508 389.056 22.1508 394.04C22.1508 398.146 22.1508 402.252 22.1508 406.357C22.1508 409.567 24.5004 411.835 25.0508 414.862C25.4866 417.258 25.6699 419.38 25.6699 421.868C25.6699 425.112 27.4295 428.271 27.4295 431.545C27.4295 435 28.5685 436.821 30.0363 439.757C30.793 441.27 30.3621 443.666 30.3621 445.329C30.3621 447.936 31.2597 448.791 32.1217 451.161C33.2872 454.366 34.4001 455.961 29.7756 454.42" stroke="black" stroke-width="3.8" stroke-linecap="round"/>
<path d="M3.9689 7.48687C2.76095 9.2988 16.9501 7.67989 17.9152 7.48687C28.0709 5.45573 39.1173 7.35399 49.4247 6.60708C68.376 5.23379 87.413 5.72729 106.415 5.72729C127.4 5.72729 148.385 5.72729 169.369 5.72729C190.42 5.72729 211.384 4.55423 232.421 4.55423C274.031 4.55423 315.535 2.20813 357.188 2.20813C367.49 2.20813 377.757 2.79466 388.078 2.79466C395.618 2.79466 402.948 3.75982 410.432 3.96771C414.659 4.08513 418.827 4.55423 423.074 4.55423C424.334 4.55423 425.594 4.55423 426.854 4.55423C430.5 4.55423 423.506 4.0843 422.749 3.96771" stroke="black" stroke-width="3.8" stroke-linecap="round"/>
<path d="M426.854 5.14075C426.854 8.4336 424.65 11.2238 423.628 14.4926C422.733 17.3583 421.924 20.4246 421.119 23.3231C418.83 31.5645 417.593 39.9841 415.449 48.2504C414.122 53.3706 413.951 58.1407 413.951 63.4023C413.951 69.9291 410.658 75.5378 410.431 82.106C410.164 89.8486 408.682 97.4238 406.619 104.85C405.081 110.388 402.22 116.27 402.22 122.153C402.22 125.574 402.22 128.996 402.22 132.417C402.22 134.323 403.112 135.845 403.523 137.696C403.956 139.644 403.98 141.432 403.98 143.431C403.98 149.507 402.068 156.006 399.874 161.711C399.06 163.826 398.238 166.558 398.114 168.782C397.995 170.923 397.528 175.519 397.528 170.541" stroke="black" stroke-width="3.8" stroke-linecap="round"/>
<path d="M397.528 174.647C399.659 175.846 402.566 183.263 402.807 185.791C403.371 191.715 404.865 197.493 405.707 203.387C406.141 206.426 405.809 209.779 406.456 212.771C407.1 215.75 408.085 218.176 408.085 221.243C408.085 223.455 407.898 227.565 408.965 229.487C410.23 231.763 408.688 235.335 410.171 237.666C412.333 241.063 411.119 245.329 413.071 248.842C414.237 250.941 414.369 254.502 415.254 256.891C416.208 259.467 416.45 261.762 417.014 264.516C417.536 267.068 419.24 269.274 419.783 271.717C420.014 272.756 419.543 273.934 419.946 274.943C420.341 275.931 420.989 277.091 420.989 278.169C420.989 279.667 422.011 281.788 422.618 283.154C422.989 283.989 422.748 289.031 422.748 285.5" stroke="black" stroke-width="3.8" stroke-linecap="round"/>
<path d="M421.576 286.673C421.576 292.667 422.138 298.941 421.543 304.888C421.088 309.438 420.989 313.874 420.989 318.476C420.989 320.572 421.102 322.705 420.989 324.798C420.84 327.552 419.24 330.321 418.643 333.009C417.735 337.093 416.678 341.691 416.329 345.88C415.922 350.763 414.079 354.978 412.908 359.663C412.475 361.395 412.241 362.917 412.191 364.681C412.109 367.541 410.299 370.429 409.584 373.186C408.493 377.395 409.144 381.72 407.76 385.796C405.315 392.995 406.326 401.073 406.326 408.703C406.326 413.275 402.22 416.833 402.22 421.574C402.22 425.104 402.22 428.634 402.22 432.164C402.22 437.729 402.802 443.614 402.22 449.141C402.164 449.679 401.201 451.434 400.917 452.074C400.518 452.971 400.096 453.79 399.841 454.681C399.371 456.328 399.152 458.492 396.941 457.939" stroke="black" stroke-width="3.8" stroke-linecap="round"/>
<path d="M32.1221 454.42C41.5316 454.42 51.7451 453.247 61.5787 453.247C69.4578 453.247 77.2722 451.487 85.2027 451.487C89.493 451.487 93.7833 451.487 98.0737 451.487C101.941 451.487 105.615 450.4 109.413 450.314C128.246 449.886 147.143 450.314 165.98 450.314C177.034 450.314 188.045 452.682 199.087 453.279C212.711 454.016 226.379 455.046 240.013 455.56C260.547 456.335 281.034 457.251 301.533 458.493C318.195 459.503 334.763 458.525 351.453 458.525C357.248 458.525 362.881 457.939 368.658 457.939C373.802 457.939 379.968 457.898 384.918 456.799C388.208 456.067 392.387 456.766 395.768 456.766C397.522 456.766 404.81 456.766 399.287 456.766" stroke="black" stroke-width="3.8" stroke-linecap="round"/>
<path d="M6.90137 284.327C10.268 282.743 16.7377 283.285 20.3915 283.154C29.1109 282.843 37.6887 281.395 46.4593 281.395C57.3643 281.395 68.2694 281.395 79.1744 281.395C88.8435 281.395 98.6959 280.839 108.305 281.851C133.67 284.521 159.332 281.997 184.749 283.61C214.367 285.491 244.187 283.741 273.803 283.741C284.873 283.741 295.838 282.568 306.91 282.568C317.076 282.568 327.242 282.568 337.409 282.568C350.184 282.568 362.707 282.242 375.468 283.187C383.893 283.811 392.575 285.243 401.112 284.295C407.059 283.634 413.947 282.86 419.816 284.327" stroke="black" stroke-width="3.8" stroke-linecap="round"/>
<path d="M30.3623 177.579C33.924 176.44 38.1251 176.993 41.8321 176.993C50.7169 176.993 59.6017 176.993 68.4865 176.993C88.7108 176.993 108.935 176.993 129.159 176.993C154.517 176.993 179.782 175.233 205.147 175.233C224.895 175.233 244.649 174.647 264.419 174.647C279.163 174.647 293.88 172.887 308.636 172.887C322.265 172.887 335.777 171.714 349.433 171.714C363.511 171.714 405.74 172.301 391.662 172.301" stroke="black" stroke-width="3.8" stroke-linecap="round"/>
<path d="M63.0301 206.445C63.2209 205.586 65.0367 205.455 64.3477 204.192C63.0423 201.798 58.6891 201.498 56.4422 201.671C52.9002 201.943 46.051 204.186 44.5457 207.82C42.5607 212.611 53.14 216.637 56.0793 218.551C59.4009 220.715 67.5746 225.505 64.0994 230.658C62.5627 232.936 58.8276 234.628 56.3085 235.432C53.1804 236.43 49.7237 236.494 46.5125 235.947C43.526 235.439 40.9978 234.302 38.2633 233.083C37.0479 232.541 34.1677 231.719 33.8904 230.009C33.5107 227.667 40.259 226.361 41.7196 226.037" stroke="black" stroke-width="3" stroke-linecap="round"/>
<path d="M76.4353 214.694C75.3741 214.812 73.2997 217.662 72.5398 218.322C70.1069 220.436 67.7601 222.967 66.8111 226.113C66.4476 227.319 65.6731 229.051 66.6966 230.123C68.0075 231.496 70.6252 231.647 72.387 231.804C78.4805 232.347 84.4454 229.659 89.7448 226.915C93.1335 225.16 102.121 215.425 94.786 212.823C90.8209 211.416 86.0232 211.781 82.1066 212.975C79.8261 213.671 73.8597 214.689 72.6544 217.1" stroke="black" stroke-width="3" stroke-linecap="round"/>
<path d="M115.275 209.538C115.08 211.358 113.769 212.98 113.289 214.77C112.554 217.515 112.047 220.337 111.342 223.096C110.859 224.983 109.609 229.557 107.713 230.505" stroke="black" stroke-width="3" stroke-linecap="round"/>
<path d="M108.745 211.601C107.783 209.556 112.511 207.817 113.901 207.132C119.948 204.15 127.546 203.729 134.161 203.351C137.707 203.149 145.924 201.628 147.375 206.464C148.943 211.692 136.279 214.677 133.149 215.381C127.532 216.645 122.319 216.424 116.727 215.305C116.552 215.27 114.598 214.674 115.657 215.305C117.454 216.374 119.582 217.231 121.481 218.131C126.159 220.347 131.501 221.532 135.879 224.318C137.314 225.231 139.057 225.918 140.329 227.049C140.759 227.431 141.398 228.683 141.398 227.755" stroke="black" stroke-width="3" stroke-linecap="round"/>
<path d="M43.7817 30.1172C45.7056 30.6516 46.5341 35.313 47.028 36.877C48.591 41.8267 50.2603 46.2508 50.9998 51.4277C51.4586 54.639 52.6446 57.92 52.7184 61.1664C52.747 62.4224 50.9755 62.4024 50.3124 61.7393" stroke="black" stroke-width="3" stroke-linecap="round"/>
<path d="M66.811 29.4298C66.811 35.273 66.811 41.1162 66.811 46.9595C66.811 49.8837 67.4985 52.6615 67.4985 55.5524C67.4985 56.6063 67.9381 58.0204 66.811 58.3022" stroke="black" stroke-width="3" stroke-linecap="round"/>
<path d="M45.1567 46.6157C48.5136 45.1238 53.1546 44.8598 56.7668 44.2097C60.042 43.6201 64.0454 42.3113 67.1547 43.8659" stroke="black" stroke-width="3" stroke-linecap="round"/>
<path d="M87.5 47C87.5 45.7762 84.3494 44.9437 83.5 43.9999C81.5 43 79.0956 41.538 77.4664 44.7061C76.2613 47.0493 75.2941 49.7831 75.404 52.4588C75.5028 54.8618 78.608 57.4448 80.6362 58.3784C83.8762 59.8699 87.5 52.216 87.5 49" stroke="black" stroke-width="3" stroke-linecap="round"/>
<path d="M86.4028 43.5222C86.4028 44.3877 86.871 44.8195 87.2048 45.5845C87.8025 46.9542 87.5365 48.9227 87.7777 50.3966C88.2173 53.0831 88.5131 56.6075 91.2149 57.9584" stroke="black" stroke-width="3" stroke-linecap="round"/>
<path d="M96.3706 28.0549C96.5316 26.6868 97.7455 26.8279 97.7455 28.2076C97.7455 32.8648 97.2939 37.4259 97.0962 42.0709C96.8918 46.8748 97.3373 50.8847 99.1204 55.3423C99.7012 56.7943 100.495 58.4164 100.495 60.0207" stroke="black" stroke-width="3" stroke-linecap="round"/>
<path d="M108.401 29.0861C110.885 29.0861 111.106 30.6027 111.151 33.0197C111.237 37.714 110.529 42.2943 110.463 46.9594C110.425 49.6475 109.934 52.7363 111.265 55.1323C111.717 55.9459 111.573 56.9533 112.526 57.271" stroke="black" stroke-width="3" stroke-linecap="round"/>
<path d="M123.181 46.6156C120.541 48.0823 121.023 52.2915 121.118 54.8649C121.273 59.0443 129.12 59.6248 131.755 57.9202C136.484 54.8597 135.727 46.6159 130.284 44.8016C126.798 43.6397 121.168 46.2225 118.712 48.678" stroke="black" stroke-width="3" stroke-linecap="round"/>
<path d="M159.271 27.7112C159.271 30.0239 158.718 32.2085 158.507 34.5092C158.131 38.6199 157.643 42.6303 157.381 46.7685C157.179 49.9633 157.209 53.1548 157.209 56.3544C157.209 57.582 157.637 59.1191 156.521 59.677" stroke="black" stroke-width="3" stroke-linecap="round"/>
<path d="M160.659 28.5113C160.582 28.4357 159.589 27.6236 160.195 28.2133C161.42 29.4044 163.021 30.0975 164.138 31.4166C166.615 34.3424 168.2 38.6638 169.49 42.2556C170.841 46.0152 172.075 50.2232 174.717 53.2437C175.727 54.3976 176.507 55.6103 178 56" stroke="black" stroke-width="3" stroke-linecap="round"/>
<path d="M182.3 26.5C182.3 28.5 182.3 32.3315 182.3 33.4016C182.3 41.0767 178.52 48.5212 178.52 56.2398" stroke="black" stroke-width="3" stroke-linecap="round"/>
<path d="M197.5 42.5C197.79 42.1736 195 41.5364 194.178 41.5364C192.507 41.5364 190.972 42.4235 190.053 43.3314C187.519 45.8365 185.561 48.4997 184.917 52.0771C184.571 53.9953 184.464 55.7366 186.425 56.7173C188.031 57.52 189.968 57.3837 191.581 56.7173C193.47 55.9371 194.891 54.6063 196.565 53.4901" stroke="black" stroke-width="3" stroke-linecap="round"/>
<path d="M197.768 40.4288C197.768 44.0315 197.768 47.6342 197.768 51.2369C197.768 55.1668 200.513 56.8205 203.955 57.6148" stroke="black" stroke-width="3" stroke-linecap="round"/>
<path d="M218.735 43.5222C218.735 41.6923 218.957 41.2104 217.092 40.6961C213.035 39.5767 210.357 40.6159 207.468 43.8659C204.382 47.3383 201.495 53.7474 207.812 55.5523C211.141 56.5034 217.891 56.7007 220.797 54.5212" stroke="black" stroke-width="3" stroke-linecap="round"/>
<path d="M226.64 27.7112C226.64 29.5243 227.327 31.0412 227.327 32.8479C227.327 36.8834 227.153 40.789 226.487 44.7825C225.909 48.2534 225.952 51.6841 225.952 55.1896" stroke="black" stroke-width="3" stroke-linecap="round"/>
<path d="M227 44C228 42.5001 228.85 41.4146 230 40.5C231.084 39.6374 233.783 38.5893 235.309 39.5502C238.007 41.2491 236.914 46.7283 236.951 49.3653C236.972 50.8721 237.487 53.8419 238.5 55" stroke="black" stroke-width="3" stroke-linecap="round"/>
<path d="M244.857 31.1484C247.992 34.6313 247.173 42.1087 246.882 46.4057C246.727 48.6823 246.232 50.8028 246.232 53.1082" stroke="black" stroke-width="3" stroke-linecap="round"/>
<path d="M247.951 42.8348C248.476 40.4714 254.919 40.7526 256.467 40.7725C260.521 40.8245 263.743 44.4408 263.036 48.5062C262.772 50.0247 260.24 52.8786 258.95 53.5C253.5 56.1239 248.5 54 247 52" stroke="black" stroke-width="3" stroke-linecap="round"/>
<path d="M281.5 45C281.5 43.6502 279.869 42.2228 278.5 41.5C275.363 39.8432 272.679 41.3922 270.216 43.7049C268.048 45.7404 262.89 52.9944 268.602 53.7148C271.239 54.0474 273.637 54.294 276.147 53.2298C277.841 52.5114 278.755 51.1903 279.997 49.9514" stroke="black" stroke-width="3" stroke-linecap="round"/>
<path d="M283.5 42C281.349 45.5 281.059 45.9472 280.2 49.7663C279.862 51.2681 279.877 52.7525 280.849 53.9673C281.641 54.9582 283.019 54.6548 284.171 54.6548" stroke="black" stroke-width="3" stroke-linecap="round"/>
<path d="M293.049 44.4372C293.049 46.9005 293.049 49.3638 293.049 51.8271C293.049 52.7767 292.938 53.8026 293.049 54.7487C293.177 55.8323 293.737 54.9113 293.737 54.2141C293.737 52.5655 293.737 50.9169 293.737 49.2683C293.737 47.86 293.345 45.7844 293.794 44.4372C294.284 42.9669 297.187 42.3759 298.434 41.9548C300.499 41.2581 302.231 41 304.392 41" stroke="black" stroke-width="3" stroke-linecap="round"/>
<path d="M309 37C312.375 37.4219 311.062 47.7517 311.062 49.794C311.062 51.8984 311.218 54.0717 311.062 56.1719" stroke="black" stroke-width="3" stroke-linecap="round"/>
<path d="M312 45.9921C312 44.1452 316.588 40.3178 318.024 39.4802C320.518 38.025 325.074 37.0971 327.342 39.3656C328.585 40.6081 328.14 43.5907 328.03 45.1324C327.854 47.5917 326.5 52.9921 327.342 55.9921" stroke="black" stroke-width="3" stroke-linecap="round"/>
<path d="M337.468 52C334.93 54.8207 335.268 59.2876 333 62.3116" stroke="black" stroke-width="3" stroke-linecap="round"/>
<path d="M53 84.1235C55.6414 86.0538 55.8548 88.9489 56.4372 91.9527C56.9138 94.4112 57.6295 97.1337 58.4231 99.5145C58.7136 100.386 60.1986 97.7108 60.6382 97.2612C61.6465 96.23 63.6422 92.411 65.202 92.411C67.3683 92.411 67.8402 100.6 70.7206 99.5527C72.3063 98.976 73.03 93.9572 73.4513 92.5637C74.1464 90.2644 75.284 88.0776 76.0291 85.8421" stroke="black" stroke-width="3" stroke-linecap="round"/>
<path d="M85.3099 89.2793C85.3099 91.7136 85.8588 94.8605 85.1571 97.1848C84.7224 98.6249 84.3379 100.112 83.5913 97.8723" stroke="black" stroke-width="3" stroke-linecap="round"/>
<path d="M80.4976 80.3427C81.152 80.3699 81.5907 80.6864 82.2162 80.6864" stroke="black" stroke-width="3" stroke-linecap="round"/>
<path d="M92.4736 86.7923C94.8417 90.0813 94.3681 94.1361 95.739 97.944C96.9872 101.411 94.2638 98.2427 93.9249 96.7601C93.4002 94.4645 93.2322 89.2352 95.2234 87.6707C96.2364 86.8747 97.3794 86.3617 98.6606 86.1812C101.762 85.7444 104.849 85.2454 107.941 84.73" stroke="black" stroke-width="3" stroke-linecap="round"/>
<path d="M118.63 91.1973C118.63 86.0432 106.31 91.7702 104.958 94.0235C102.53 98.0704 109.874 100.713 112.787 99.3893C115.142 98.3191 118.165 94.8775 119.318 92.5722" stroke="black" stroke-width="3" stroke-linecap="round"/>
<path d="M120.505 75.73C122.01 76.0644 120.338 87.1749 120.18 88.734C119.968 90.8355 119.474 92.7711 119.474 94.9018C119.474 96.5717 119.433 98.7284 120.849 99.7903" stroke="black" stroke-width="3" stroke-linecap="round"/>
<path d="M149.585 69C148.482 75.2476 147.021 81.3747 146.854 87.7899C146.772 90.9639 147.155 93.4294 147.828 96.4593C148.059 97.499 148.21 98.5291 148.21 99.5909" stroke="black" stroke-width="3" stroke-linecap="round"/>
<path d="M171.974 89.73C171.974 88.23 170.694 85.5898 168.834 83.7299C165.999 80.8951 160.167 88.3593 159.286 90.6542C158.586 92.48 156.974 96.7067 161.474 98.23C165.023 99.4314 168.834 97.5286 171.974 93.23" stroke="black" stroke-width="3" stroke-linecap="round"/>
<path d="M172.27 83.4362C172.27 87.4589 172.27 91.4817 172.27 95.5045C172.27 98.3184 171.803 99.3653 174.676 98.2161" stroke="black" stroke-width="3" stroke-linecap="round"/>
<path d="M181.895 83.7799C181.895 87.3716 180.485 91.4052 181.265 94.9126C181.471 95.8404 183.165 97.1467 184.148 97.1467C185.675 97.1467 187.209 95.0333 188.082 94.0151C189.51 92.3483 190.837 90.5328 191.863 88.592C192.065 88.21 193.815 84.8305 193.543 86.396C192.865 90.2976 191.852 94.7678 194.956 97.8724" stroke="black" stroke-width="3" stroke-linecap="round"/>
<path d="M207.674 70.0311C207.674 72.6802 207.97 75.5161 207.521 78.1276C206.918 81.6331 205.359 85.0024 205 88.5155C204.619 92.2564 205.211 93.2516 208.017 95.1226" stroke="black" stroke-width="3" stroke-linecap="round"/>
<path d="M198.049 83.4362C204.639 83.2581 211.007 81.0302 217.641 81.0302" stroke="black" stroke-width="3" stroke-linecap="round"/>
<path d="M47.9067 120.172C48.9047 122.98 50.0487 125.45 50.5037 128.421C51.0407 131.927 52.5 136.962 52.5 140.5C52.5 143.937 52.5 147.374 52.5 150.812" stroke="black" stroke-width="3" stroke-linecap="round"/>
<path d="M52.7188 137.701C53.177 133.576 61.593 133.723 64.2333 134.799C68.3775 136.487 67.1549 142.348 67.1549 145.912C67.1549 147.387 66.8327 149.264 67.1931 150.705C67.493 151.905 68.4338 150.019 68.5298 149.731" stroke="black" stroke-width="3" stroke-linecap="round"/>
<path d="M76.0913 142.169C75.7808 142.113 77.618 141.201 77.9627 140.718C78.6609 139.741 79.6033 138.749 80.0632 137.625C80.2193 137.243 80.9282 135.258 80.3305 135.028C79.0362 134.53 77.7193 135.051 77.1225 136.212C75.4353 139.492 74.3208 144.64 78.7647 146.256C82.8423 147.739 85.701 146.428 89.1526 144.232" stroke="black" stroke-width="3" stroke-linecap="round"/>
<path d="M90.8712 135.295C90.8712 136.855 90.8712 138.414 90.8712 139.973C90.8712 141.414 90.2116 144.876 91.1004 146.141C93.9198 150.153 96.965 144.814 98.624 142.857C100.168 141.036 101.665 139.209 103.169 137.357C103.795 136.587 104.019 139.409 104.104 139.973C104.359 141.652 105.351 147.325 107.713 147.325" stroke="black" stroke-width="3" stroke-linecap="round"/>
<path d="M118.712 116.047C123.943 116.047 120.947 130.783 120.622 133.615C120.347 136.01 118.153 147.325 122.837 147.325" stroke="black" stroke-width="3" stroke-linecap="round"/>
<path d="M112.869 131.858C117.453 130.92 121.654 131.514 126.274 131.514" stroke="black" stroke-width="3" stroke-linecap="round"/>
<path d="M132.805 135.639C132.424 136.249 134.853 135.858 135.211 135.62C136.305 134.891 137.793 134.421 138.457 133.214C138.832 132.532 140.13 129.751 138.763 129.49C136.824 129.121 134.559 131.135 133.321 132.373C131.6 134.094 130.857 135.676 131.086 138.159C131.292 140.384 135.413 142.279 137.35 142.704C142.982 143.941 148.498 141.885 153.428 139.42" stroke="black" stroke-width="3" stroke-linecap="round"/>
<path d="M170.958 112.953V133.233" stroke="black" stroke-width="3" stroke-linecap="round"/>
<path d="M174.051 144.575C174.051 145.202 173.921 145.124 173.364 145.263" stroke="black" stroke-width="3" stroke-linecap="round"/>
<path d="M164.427 209.538C163.941 214.891 160.701 219.854 157.973 224.318C156.939 226.01 156.853 229.24 154.459 228.443" stroke="black" stroke-width="3" stroke-linecap="round"/>
<path d="M160.302 208.507C164.21 206.915 167.665 206.286 171.97 206.12C176.016 205.964 181.557 205.506 184.974 208.163C188.845 211.174 179.143 215.411 177.335 216.393C172.461 219.041 168.146 220.763 162.727 219.01C161.374 218.572 160.706 217.865 159.615 217.024C159.448 216.895 157.998 215.896 158.813 216.68C161.878 219.627 166.263 221.043 170.098 222.6C174.839 224.523 179.537 226.543 184.286 228.443C185.725 229.018 186.425 228.744 186.425 227.068" stroke="black" stroke-width="3" stroke-linecap="round"/>
<path d="M192.612 204.414C191.143 203.587 192.03 205.438 192.612 206.209C194.186 208.292 195.895 210.263 197.443 212.357C199.376 214.972 201.206 217.623 203.42 220.015C204.303 220.968 205.461 222.56 206.704 222.974" stroke="black" stroke-width="3" stroke-linecap="round"/>
<path d="M221.485 208.507C221.205 209.44 219.614 210.257 218.868 210.76C216.804 212.156 215.238 213.956 213.579 215.802C208.431 221.528 203.436 227.084 197.902 232.453C194.186 236.057 191.261 240.411 187.647 244.025C186.556 245.116 186.082 242.896 186.082 242.191" stroke="black" stroke-width="3" stroke-linecap="round"/>
<path d="M258.986 209.218C257.88 208.596 258.752 207.702 257.955 206.984C257.176 206.283 256.691 205.293 255.74 204.75C252.487 202.891 247.738 203.53 244.206 204.75C236.8 207.308 238.414 213.966 242.163 219.339C243.403 221.116 244.699 222.938 246.078 224.609C247.2 225.97 248.745 226.728 250.126 227.779C251.322 228.689 252.455 228.918 252.455 230.529" stroke="black" stroke-width="3" stroke-linecap="round"/>
<path d="M257.268 205.781C257.268 202.702 266.892 202 268.954 202C271.783 202 274.706 202.504 275.981 205.418C277.274 208.372 273.436 210.579 271.704 212.312C266.796 217.22 260.923 221.078 255.53 225.392C253.692 226.863 251.698 228.15 249.782 229.497C248.342 230.511 247.987 231.145 247.987 229.154" stroke="black" stroke-width="3" stroke-linecap="round"/>
</svg>
