<svg width="41" height="45" viewBox="0 0 41 45" fill="none" xmlns="http://www.w3.org/2000/svg">
<path d="M6.48322 3.78192C2.52055 4.64483 5.14018 8.79861 4.82402 10.9012C4.60429 12.3624 5.509 13.4391 5.41895 14.7746C5.31589 16.303 5.09129 17.8026 5.35306 19.3453C5.43404 19.8225 5.9707 22.648 6.26242 22.8676C7.89177 24.0945 6.07007 25.6143 6.66816 26.9118C7.20161 28.069 9.40837 34.1383 10.4428 32.2591" stroke="black" stroke-width="2" stroke-linecap="round"/>
<path d="M8.86156 2.42263C11.0492 2.75159 13.1332 2.25386 15.3579 2.58838C17.655 2.93379 19.9487 3.36295 22.0747 3.21537C24.9725 3.01422 23.7563 4.82709 24.8814 6.13829C25.3132 6.64158 26.0037 7.94549 26.2105 8.47855C26.5124 9.25664 27.982 10.1701 27.9232 10.9666C27.7857 12.8275 28.2506 14.4375 28.96 16.2144C29.6463 17.9333 29.3415 19.9136 30.2287 21.6548C31.9113 24.957 32.242 28.6876 33.8992 31.94C34.7007 33.5129 36.7981 40.0172 34.9592 40.5033C33.2053 40.9668 31.782 42.0439 29.7648 42.0879C27.694 42.133 25.3997 43.0312 23.4075 42.7316C22.2171 42.5526 21.0268 42.3736 19.8364 42.1946C18.6986 42.0235 18.5466 41.2313 17.6599 41.0562C15.8059 40.6902 15.1943 39.1805 14.063 37.992C13.4967 37.397 10.8468 34.7989 10.8423 34.3534C10.8311 33.2568 9.82184 31.5533 9.33831 30.4773" stroke="black" stroke-width="2" stroke-linecap="round"/>
<path d="M13.7695 29.3645C13.8218 29.4037 14.6613 29.1361 14.8399 29.1361C15.4872 29.1361 16.1157 28.846 16.7564 28.8314C17.3804 28.8173 17.9861 28.603 18.601 28.603C18.8033 28.603 19.7919 28.5903 19.8617 28.4507" stroke="black" stroke-width="2" stroke-linecap="round"/>
<path d="M24.7354 27.9938C25.8513 27.9938 26.9928 27.5369 28.0861 27.5369" stroke="black" stroke-width="2" stroke-linecap="round"/>
<path d="M20.166 33.4766C20.8451 33.4766 21.52 33.3976 22.1967 33.3412C23.1286 33.2636 24.2116 33.2864 25.099 32.9435C25.6803 32.7189 27.5668 32.6389 26.9436 32.6389" stroke="black" stroke-width="2" stroke-linecap="round"/>
<path d="M9.25049 7.4645C9.51394 7.25374 9.88428 7.2708 10.2014 7.25319C10.2799 7.24883 10.9901 7.02025 10.6475 7.25319C10.561 7.31204 9.69398 7.94928 9.93139 8.07497C10.214 8.22457 10.8738 8.10419 11.1523 7.99279" stroke="black" stroke-width="2" stroke-linecap="round"/>
<path d="M9.99023 12.0078C10.0625 11.3573 10.7734 11.6984 11.0468 11.8199C11.6268 12.0777 11.7495 11.4795 12.209 11.4795" stroke="black" stroke-width="2" stroke-linecap="round"/>
<path d="M16.0127 10.8455C16.273 10.8455 16.8878 11.314 17.0693 10.9511" stroke="black" stroke-width="2" stroke-linecap="round"/>
<path d="M20.9785 10.0003C21.3108 9.85267 21.6786 9.89469 22.0351 9.89469" stroke="black" stroke-width="2" stroke-linecap="round"/>
<path d="M16.541 15.0719C16.5834 14.7326 17.4415 14.8421 17.7032 14.7549" stroke="black" stroke-width="2" stroke-linecap="round"/>
<path d="M22.0352 15.0718C22.2822 15.0718 22.4421 15.1018 22.6691 15.1774" stroke="black" stroke-width="2" stroke-linecap="round"/>
<path d="M11.4696 16.4454C11.1821 16.2932 11.0519 16.2341 10.73 16.2341C10.5198 16.2341 10.2696 16.3945 10.6243 16.1284" stroke="black" stroke-width="2" stroke-linecap="round"/>
<path d="M11.6807 20.8829C11.725 20.5279 12.5731 20.7795 12.8429 20.6716" stroke="black" stroke-width="2" stroke-linecap="round"/>
<path d="M17.9146 19.7207C18.4389 19.688 18.5485 19.3169 18.5485 18.8755" stroke="black" stroke-width="2" stroke-linecap="round"/>
<path d="M23.5144 19.1925C23.3652 19.022 24.0111 19.0868 24.1483 19.0868" stroke="black" stroke-width="2" stroke-linecap="round"/>
</svg>
