<svg width="217" height="218" viewBox="0 0 217 218" fill="none" xmlns="http://www.w3.org/2000/svg">
<path d="M124.625 36.3922C110.534 22.4859 68.4749 37.9584 56.8996 49.3219C46.4771 59.5537 32.4391 71.2687 31.0219 86.8342C30.4882 92.6955 31.505 98.7288 31.0837 104.577C30.6477 110.627 32.1416 115.481 32.6681 121.385C33.2576 127.996 38.3574 132.099 39.8134 138.301C44.1506 156.777 71.0425 179.044 88.5468 183.97C98.4963 186.77 109.453 192.002 120.043 188.036C128.768 184.77 139.21 182.784 147.223 177.672C154.003 173.346 161.795 166.436 164.233 158.613C166.883 150.107 172.923 144.686 176.675 137.083C179.816 130.72 182.372 124.512 183.017 117.432C183.809 108.729 188.635 104.592 187.415 95.4386C185.055 77.7267 169.464 63.718 155.288 54.8804C149.021 50.9736 142.133 48.0086 136.318 43.4935C132.907 40.8453 124.532 38.9634 123.654 35.2215" stroke="black" stroke-width="3" stroke-linecap="round"/>
<path d="M103.15 77.484C95.1071 76.6387 87.552 77.5661 81.358 83.5883C75.871 88.9232 76.8089 105.608 77.9158 112.847C80.4328 129.308 102.675 143.773 116.486 132.311C122.603 127.234 124.094 122.144 127.439 115.234C130.961 107.96 128.723 105.515 127.307 98.3709C125.737 90.4557 117.002 89.4772 112.818 84.4363C110.438 81.5685 99.7467 74.0392 96.9161 74.6703" stroke="black" stroke-width="3" stroke-linecap="round"/>
<path d="M160.965 67.869C168.574 72.8884 169.66 79.9635 171.209 88.5117C172.218 94.0769 175.776 97.4665 172.841 89.5411C169.982 81.8196 155.538 61.9105 158.252 69.6868C161.264 78.3138 163.978 87.7102 165.969 96.6529C168.76 109.193 161.304 92.7403 159.742 89.6857C158.447 87.1513 145.386 72.5814 150.296 79.1066C155.302 85.7587 154.251 94.4344 158.539 101.085C162.555 107.315 150.292 88.7386 145.56 83.0371C144.305 81.5248 148.022 90.7492 148.604 92.8621C151.732 104.211 149.633 99.9909 143.793 92.9544C137.382 85.2296 136.358 84.0087 141.312 93.713C142.378 95.7999 145.225 107.624 140.601 101.021C126.345 80.661 148.928 111.188 135.637 95.1729C132.088 90.8969 135.747 98.3262 136.194 100.128C136.597 101.751 132.181 95.8278 131.139 94.5718" stroke="black" stroke-width="3" stroke-linecap="round"/>
<path d="M70.0641 115.09C70.8209 116.5 80.7173 132.628 74.1708 128.29C70.603 125.926 65.2126 112.153 65.4646 119.13C65.5932 122.694 72.1181 134.334 67.0818 128.265C64.3717 125 56.6885 109.12 61.067 120.885C62.1526 123.802 73.7455 136.104 72.983 138.304C71.9691 141.23 63.4979 132.894 63.1928 132.496C58.914 126.921 58.1563 120.076 54.8788 114.094C52.5474 109.838 51.8926 115.613 52.1564 117.468C53.0111 123.476 55.4977 129.779 57.5966 135.468C60.3843 143.025 67.0068 149.774 56.7759 139.271C51.8092 134.172 43.7089 114.668 44.6301 121.707C45.8388 130.945 56.542 136.617 59.3905 145.349C62.9174 156.16 46.3335 125.786 44.6561 114.552C44.0452 110.46 45.7392 113.982 45.992 115.896C46.824 122.193 47.6412 127.617 50.5681 133.387C53.4864 139.141 63.787 155.438 59.6652 150.471C52.5839 141.938 46.8331 132.51 41.247 122.954C34.3115 111.091 44.4066 130.145 45.7519 133.706C47.6215 138.655 51.1764 149.279 57.1733 149.864" stroke="black" stroke-width="3" stroke-linecap="round"/>
<path d="M102.818 105.172C99.7565 101.484 100.898 107.98 103.623 106.572C104.721 106.005 104.3 103.373 102.76 103.815C101.432 104.196 101.264 104.8 102.573 105.688C103.889 106.581 103.884 104.74 103.239 103.963C102.127 102.623 100.151 104.333 102.161 104.858C104.961 105.589 101.28 101.547 101.185 103.873C101.133 105.148 104.699 102.319 101.36 104.274" stroke="black" stroke-width="3" stroke-linecap="round"/>
<path d="M95.549 117C96.8301 115.861 96.4943 121.038 96.52 121.474C96.619 123.157 96.4962 127.588 97.8898 128.982C98.0406 129.133 98.1835 127.872 98.2193 127.734C98.6153 126.206 99.3339 124.869 99.9186 123.416C100.789 121.252 101.372 119.569 103.352 118.249" stroke="black" stroke-width="3" stroke-linecap="round"/>
<path d="M101.479 123.243C102.922 124.606 104.43 125.952 105.537 127.612" stroke="black" stroke-width="3" stroke-linecap="round"/>
<path d="M107.722 116.689C109.193 116.852 110.099 118.663 111.016 119.654C112.164 120.894 113.045 122.582 114.259 123.694C115.078 124.445 114.574 121.698 114.588 121.058C114.634 119 115.339 116.806 115.837 114.816" stroke="black" stroke-width="3" stroke-linecap="round"/>
<path d="M116.149 118.873C117.313 119.397 119.66 120.59 120.831 119.809" stroke="black" stroke-width="3" stroke-linecap="round"/>
</svg>
