<svg width="556" height="674" viewBox="0 0 556 674" fill="none" xmlns="http://www.w3.org/2000/svg">
<path d="M278.646 2.37621C272.241 -0.736085 266.478 7.45381 269.259 10.902C271.307 13.4404 274.801 14.4137 278.848 14.7084C280.613 14.837 284.013 14.8106 279.881 14.9393C273.856 15.127 260.119 17.2305 265.245 23.7602C266.934 25.9109 272.471 27.0875 275.766 27.2783C277.648 27.3873 283.062 26.5028 281.179 26.3939C274.321 25.9968 265.408 29.8256 268.785 34.9167C269.915 36.621 278.859 41.9024 282.128 39.3682C282.894 38.7745 274.697 39.1574 273.887 39.4045C269.953 40.6038 266.625 42.8073 265.806 45.6958C264.898 48.8995 269.359 57.6966 276.414 56.7482C278.087 56.5232 279.362 55.3304 276.439 56.3218C272.551 57.6402 268.516 59.7159 266.543 62.3369C262.268 68.0181 269.439 71.773 277.68 71.0243C278.507 70.9491 270.004 72.0835 267.928 74.5665C265.089 77.9607 274.749 79.364 277.688 79.9229C279.848 80.3337 280.6 79.286 278.104 79.5192C273.812 79.9201 269.598 81.917 267.365 84.2877C261.035 91.0082 279.246 92.8584 280.064 90.8409C280.603 89.5119 273.436 90.902 273.256 90.9601C269.606 92.139 267.299 94.0128 267.296 96.7753C267.288 102.935 277.126 103.953 283.473 101.99" stroke="black" stroke-width="3" stroke-linecap="round"/>
<path d="M256.775 109.592C243.016 114.341 269.082 119.77 274.58 119.787C280.346 119.805 291.357 118.066 295.227 114.93C301.534 109.819 288.305 107.16 282.843 106.432C271.25 104.887 259.959 106.592 254.194 113.333" stroke="black" stroke-width="3" stroke-linecap="round"/>
<path d="M245.143 115.721C229.823 123.731 223.893 139.923 216.383 151.384C215.695 152.433 208.453 159.251 210.301 160.642C211.298 161.392 214.003 161.836 215.462 162.829C218.118 164.636 222.577 165.045 226.051 165.93C230.057 166.951 234.473 166.727 238.62 167.13C243.444 167.599 248.105 168.866 252.929 169.46C262.797 170.677 271.789 169.858 281.7 170.354C293.087 170.922 305.41 171.367 316.315 169.44C326.893 167.571 338.866 163.87 345.424 157.825C350.597 153.055 335.163 145.425 330.654 142.296C327.241 139.928 324.139 136.795 319.981 135.071C315.323 133.138 311.086 130.378 307.784 127.457C303.583 123.741 297.182 119.007 297.465 114.117" stroke="black" stroke-width="3" stroke-linecap="round"/>
<path d="M214.997 177.456C213.836 183.713 206.969 189.66 203.069 195.184C202.63 195.807 197.386 201.452 200.813 200.537" stroke="black" stroke-width="3" stroke-linecap="round"/>
<path d="M253.427 185.753C254.464 185.061 254.685 184 254.594 185.562C254.248 191.548 253.123 197.255 251.014 203.037C246.728 214.789 241.734 226.364 238.188 238.262C237.489 240.608 235.971 247.709 236.111 245.301" stroke="black" stroke-width="3" stroke-linecap="round"/>
<path d="M299.611 188.322C306.259 206.263 309.003 223.496 312.466 242.123C312.951 244.727 313.436 249.942 316.751 247.455" stroke="black" stroke-width="3" stroke-linecap="round"/>
<path d="M339.034 177.18C347.701 186.037 355.227 196.365 359.602 208.033" stroke="black" stroke-width="3" stroke-linecap="round"/>
<mask id="mask0_135_4" style="mask-type:alpha" maskUnits="userSpaceOnUse" x="37" y="31" width="481" height="483">
<path d="M277.605 31L517.927 513.25H37.2826L277.605 31Z" fill="#D9D9D9"/>
</mask>
<g mask="url(#mask0_135_4)">
<rect x="-59.8954" y="168" width="726" height="326" fill="url(#paint0_linear_135_4)"/>
</g>
<defs>
<linearGradient id="paint0_linear_135_4" x1="303.105" y1="168" x2="303.105" y2="494" gradientUnits="userSpaceOnUse">
<stop stop-color="#FFF500" stop-opacity="0.25"/>
<stop offset="1" stop-color="#DBFF00" stop-opacity="0.02"/>
</linearGradient>
</defs>
</svg>
