<?xml version="1.0" encoding="UTF-8"?>
<svg id="Layer_2" data-name="Layer 2" xmlns="http://www.w3.org/2000/svg" viewBox="0 0 1181.92 389.74">
  <defs>
    <style>
      .cls-1 {
        fill: #fff;
      }

      .cls-1, .cls-2 {
        stroke-width: 0px;
      }

      .cls-2 {
        opacity: .77;
      }
    </style>
  </defs>
  <g id="Layer_1-2" data-name="Layer 1">
    <g>
      <g>
        <path class="cls-2" d="m987.54.99c-.13,0-.25,0-.38,0v-.25H211.26c-5.57-.48-11.19-.74-16.88-.74C87.02,0,0,87.02,0,194.38s86.91,194.26,194.16,194.37v.99h793c.13,0,.25,0,.38,0,107.35,0,194.37-87.02,194.37-194.38S1094.89.99,987.54.99Z"/>
        <g>
          <path class="cls-1" d="m900.1,178.91v34.97h37.02c11.66,11.66,23.31,23.31,34.97,34.97v-106.96c-12.34,12.34-24.68,24.68-37.02,37.02h-34.97Z"/>
          <rect class="cls-1" x="1019.1" y="152.67" width="13" height="85.45" rx="5.71" ry="5.71" transform="translate(162.23 782.44) rotate(-45)"/>
          <rect class="cls-1" x="1019.1" y="152.73" width="13" height="85.33" rx="5.7" ry="5.7" transform="translate(1612.64 1058.76) rotate(-135)"/>
        </g>
      </g>
      <g>
        <path class="cls-1" d="m174.34,156.4h-20.18v-10.52h52.49v10.52h-20.4v68.38h-11.92v-68.38Z"/>
        <path class="cls-1" d="m214.6,222.42c-3.94-2.29-6.98-5.4-9.12-9.34-2.15-3.94-3.22-8.3-3.22-13.1s1.05-9.05,3.17-12.99c2.11-3.94,5.13-7.05,9.07-9.34,3.93-2.29,8.48-3.43,13.63-3.43s9.68,1.15,13.58,3.43c3.9,2.29,6.91,5.4,9.02,9.34,2.11,3.94,3.17,8.27,3.17,12.99s-1.07,9.16-3.22,13.1-5.17,7.05-9.07,9.34c-3.9,2.29-8.39,3.43-13.47,3.43s-9.59-1.14-13.53-3.43Zm23.67-10.63c2.4-3.08,3.6-6.94,3.6-11.59s-1.29-8.57-3.86-11.75c-2.58-3.18-5.98-4.78-10.2-4.78s-7.35,1.58-9.82,4.72c-2.47,3.15-3.7,7.09-3.7,11.81s1.32,8.43,3.97,11.54c2.65,3.11,6.05,4.67,10.2,4.67s7.42-1.54,9.82-4.62Z"/>
        <path class="cls-1" d="m262.48,175.51h11.38l.11,9.02c1.36-3.01,3.51-5.47,6.44-7.41,2.93-1.93,6.37-2.9,10.31-2.9,5.08,0,8.98,1.06,11.7,3.17,2.72,2.11,4.54,5.06,5.47,8.86.93,3.79,1.4,8.73,1.4,14.81v23.72h-11.59v-23.4c0-6.23-.61-10.72-1.83-13.47-1.22-2.75-3.72-4.13-7.51-4.13-2.15,0-4.33.66-6.55,1.99-2.22,1.32-4.06,3.24-5.53,5.74-1.47,2.51-2.2,5.44-2.2,8.8v24.48h-11.59v-49.27Z"/>
        <path class="cls-1" d="m351.58,222.37c-3.94-2.33-6.84-5.44-8.7-9.34-1.86-3.9-2.79-8.18-2.79-12.83,0-5.22,1.09-9.8,3.27-13.74,2.18-3.93,5.21-6.96,9.07-9.07,3.86-2.11,8.23-3.17,13.1-3.17,7.59,0,13.22,2.09,16.91,6.28,3.69,4.19,5.53,10.07,5.53,17.66,0,1.93-.11,3.94-.32,6.01h-35.43c.79,4.37,2.34,7.51,4.67,9.45,2.32,1.93,5.56,2.9,9.72,2.9,3.43,0,6.26-.29,8.48-.86,2.22-.57,4.26-1.36,6.12-2.36l3.54,8.27c-1.79,1.15-4.22,2.15-7.3,3.01-3.08.86-6.8,1.29-11.16,1.29-5.87,0-10.77-1.16-14.71-3.49Zm25.12-26.25c.07-4.44-.9-7.57-2.9-9.39-2-1.82-4.87-2.74-8.59-2.74-7.51,0-11.85,4.04-12.99,12.13h24.48Z"/>
        <path class="cls-1" d="m397.52,164.02c-1.5-1.5-2.25-3.36-2.25-5.58,0-2,.75-3.72,2.25-5.15,1.5-1.43,3.36-2.15,5.58-2.15s3.97.71,5.47,2.15c1.5,1.43,2.25,3.15,2.25,5.15,0,2.22-.73,4.08-2.2,5.58-1.47,1.5-3.31,2.25-5.53,2.25s-4.08-.75-5.58-2.25Zm-.32,11.49h12.02v49.27h-12.02v-49.27Z"/>
        <path class="cls-1" d="m421.57,175.51h11.38l.11,9.02c1.36-3.01,3.51-5.47,6.44-7.41,2.93-1.93,6.37-2.9,10.31-2.9,5.08,0,8.98,1.06,11.7,3.17,2.72,2.11,4.54,5.06,5.47,8.86.93,3.79,1.4,8.73,1.4,14.81v23.72h-11.59v-23.4c0-6.23-.61-10.72-1.83-13.47-1.22-2.75-3.72-4.13-7.51-4.13-2.15,0-4.33.66-6.55,1.99-2.22,1.32-4.06,3.24-5.53,5.74-1.47,2.51-2.2,5.44-2.2,8.8v24.48h-11.59v-49.27Z"/>
        <path class="cls-1" d="m485.82,224.52c-3.69-.89-6.32-1.95-7.89-3.17l3.86-9.12c4.29,3.01,9.19,4.51,14.71,4.51s8.27-1.61,8.27-4.83c0-1.43-.57-2.54-1.72-3.33-1.15-.79-3.19-1.72-6.12-2.79l-4.08-1.5c-4.29-1.72-7.69-3.77-10.2-6.17-2.51-2.4-3.76-5.56-3.76-9.5,0-4.51,1.77-8.03,5.31-10.58,3.54-2.54,8.28-3.81,14.22-3.81,2.93,0,5.81.32,8.64.97,2.83.64,4.99,1.47,6.49,2.47l-4.19,9.23c-.93-.93-2.42-1.73-4.45-2.42-2.04-.68-4.31-1.02-6.82-1.02-5.08,0-7.62,1.54-7.62,4.62,0,1.72.68,3.02,2.04,3.92,1.36.9,3.58,1.88,6.66,2.95.29.07,1.4.47,3.33,1.18,4.58,1.79,7.98,3.83,10.2,6.12,2.22,2.29,3.33,5.23,3.33,8.8,0,4.87-1.84,8.55-5.53,11.06-3.69,2.51-8.36,3.76-14.01,3.76-3.43,0-7-.45-10.68-1.34Z"/>
        <path class="cls-1" d="m534.12,222.69c-3.9-2.11-7-5.15-9.29-9.12-2.29-3.97-3.44-8.64-3.44-14.01,0-5.08,1.05-9.54,3.17-13.36,2.11-3.83,5.08-6.78,8.91-8.86,3.83-2.07,8.25-3.11,13.26-3.11,3.79,0,7.07.48,9.82,1.45,2.75.97,4.92,2.17,6.49,3.6l-5.15,9.34c-3.01-3.01-6.41-4.51-10.2-4.51-4.58,0-8.07,1.4-10.47,4.19-2.4,2.79-3.6,6.51-3.6,11.16,0,5.3,1.23,9.41,3.7,12.35,2.47,2.94,5.92,4.4,10.36,4.4,2.22,0,4.38-.32,6.49-.97,2.11-.64,3.74-1.39,4.88-2.25l4.19,8.16c-1.58,1.22-3.78,2.31-6.6,3.27-2.83.97-5.96,1.45-9.39,1.45-4.87,0-9.25-1.06-13.15-3.17Z"/>
        <path class="cls-1" d="m571.1,145.88h11.27v29.63l-.43,9.12c1.36-3.01,3.54-5.49,6.55-7.46,3.01-1.97,6.51-2.95,10.52-2.95,5.08,0,8.98,1.06,11.7,3.17,2.72,2.11,4.54,5.06,5.47,8.86.93,3.79,1.4,8.73,1.4,14.81v23.72h-11.49v-23.83c0-4.15-.23-7.41-.7-9.77-.47-2.36-1.4-4.15-2.79-5.37-1.4-1.22-3.42-1.83-6.07-1.83-2.15,0-4.31.65-6.49,1.93-2.18,1.29-3.99,3.17-5.42,5.64-1.43,2.47-2.15,5.39-2.15,8.75v24.48h-11.38v-78.9Z"/>
        <path class="cls-1" d="m638.04,222.69c-3.76-2.11-6.76-5.12-9.02-9.02-2.25-3.9-3.38-8.46-3.38-13.69s.98-9.66,2.95-13.53c1.97-3.86,4.78-6.87,8.43-9.02,3.65-2.15,7.94-3.22,12.88-3.22,2.86,0,5.55.5,8.05,1.5,2.5,1,4.62,2.24,6.33,3.7,1.72,1.47,2.86,2.92,3.44,4.35l.21-8.27h11.06v49.27h-10.95l-.21-8.7c-1.22,2.58-3.43,4.85-6.66,6.82-3.22,1.97-6.84,2.95-10.84,2.95-4.44,0-8.53-1.06-12.29-3.17Zm24.53-10.73c2.79-2.83,4.19-6.53,4.19-11.11v-.75c0-3.08-.64-5.83-1.93-8.27-1.29-2.43-3.04-4.33-5.26-5.69-2.22-1.36-4.65-2.04-7.3-2.04-4.58,0-8.12,1.49-10.63,4.46-2.51,2.97-3.76,6.82-3.76,11.54s1.23,8.68,3.7,11.65c2.47,2.97,6.03,4.46,10.68,4.46,4.08,0,7.51-1.41,10.31-4.24Z"/>
        <path class="cls-1" d="m691.76,145.88h11.49v78.9h-11.49v-78.9Z"/>
        <path class="cls-1" d="m720.1,184.96h-8.7v-9.45h8.7v-20.07l11.7-2.58v22.65h11.38v9.45h-11.38v39.83h-11.7v-39.83Z"/>
        <path class="cls-1" d="m757.46,222.37c-3.94-2.33-6.84-5.44-8.7-9.34-1.86-3.9-2.79-8.18-2.79-12.83,0-5.22,1.09-9.8,3.27-13.74,2.18-3.93,5.21-6.96,9.07-9.07,3.86-2.11,8.23-3.17,13.1-3.17,7.58,0,13.22,2.09,16.91,6.28,3.68,4.19,5.53,10.07,5.53,17.66,0,1.93-.11,3.94-.32,6.01h-35.43c.79,4.37,2.34,7.51,4.67,9.45,2.33,1.93,5.56,2.9,9.72,2.9,3.43,0,6.26-.29,8.48-.86,2.22-.57,4.26-1.36,6.12-2.36l3.54,8.27c-1.79,1.15-4.22,2.15-7.3,3.01-3.08.86-6.8,1.29-11.16,1.29-5.87,0-10.77-1.16-14.71-3.49Zm25.12-26.25c.07-4.44-.9-7.57-2.9-9.39-2-1.82-4.87-2.74-8.59-2.74-7.51,0-11.84,4.04-12.99,12.13h24.48Z"/>
        <path class="cls-1" d="m802.23,175.51h11.38l.11,9.02c1.36-3.01,3.51-5.47,6.44-7.41,2.93-1.93,6.37-2.9,10.31-2.9,5.08,0,8.98,1.06,11.7,3.17,2.72,2.11,4.54,5.06,5.47,8.86.93,3.79,1.39,8.73,1.39,14.81v23.72h-11.59v-23.4c0-6.23-.61-10.72-1.83-13.47-1.22-2.75-3.72-4.13-7.51-4.13-2.15,0-4.33.66-6.55,1.99-2.22,1.32-4.06,3.24-5.53,5.74-1.47,2.51-2.2,5.44-2.2,8.8v24.48h-11.59v-49.27Z"/>
      </g>
    </g>
  </g>
</svg>