<?xml version="1.0" encoding="UTF-8"?>
<svg id="Layer_2" data-name="Layer 2" xmlns="http://www.w3.org/2000/svg" viewBox="0 0 388.75 388.75">
  <defs>
    <style>
      .cls-1 {
        fill: #fff;
      }

      .cls-1, .cls-2 {
        stroke-width: 0px;
      }

      .cls-2 {
        opacity: .77;
      }
    </style>
  </defs>
  <g id="Layer_1-2" data-name="Layer 1">
    <g>
      <circle class="cls-2" cx="194.38" cy="194.38" r="194.38"/>
      <g>
        <path class="cls-1" d="m106.93,177.92v34.97h37.02c11.66,11.66,23.31,23.31,34.97,34.97v-106.96c-12.34,12.34-24.68,24.68-37.02,37.02h-34.97Z"/>
        <path class="cls-1" d="m218,147.07c-1.14-3.11-.23-6.48,2.06-8.23,2.91-2.22,7.72-1.55,10.28,2.06,4.38,10.97,9.96,28.83,10.28,51.42.35,24.73-5.75,44.19-10.28,55.54-1.63,3.07-5.01,4.73-8.23,4.11-3.68-.7-6.41-4.22-6.17-8.23,4.39-10.46,10.37-28.45,10.28-51.42-.07-19.58-4.52-35.27-8.23-45.25Z"/>
        <path class="cls-1" d="m252.97,128.55c-1.14-3.11-.23-6.48,2.06-8.23,2.91-2.22,7.72-1.55,10.28,2.06,6.32,13.09,15.68,36.85,16.46,67.88.88,35.51-9.94,62.59-16.46,76.1-2.56,3.61-7.37,4.28-10.28,2.06-2.29-1.75-3.19-5.12-2.06-8.23,5.8-12.64,14.81-36.63,14.4-67.88-.38-29.02-8.71-51.37-14.4-63.76Z"/>
      </g>
    </g>
  </g>
</svg>