<svg width="352" height="164" viewBox="0 0 352 164" fill="none" xmlns="http://www.w3.org/2000/svg">
<path d="M84.5572 18.5337C84.8184 20.8249 85.8061 34.8883 91.3906 28.8143C93.208 26.8376 94.6143 23.6346 94.3496 20.9158C93.454 11.7155 85.1916 21.312 84.223 25.7047C82.7423 32.4195 88.7564 34.7494 91.9248 28.5461C96.4209 19.7434 89.2556 16.6782 82.5095 21.1552" stroke="black" stroke-width="3" stroke-linecap="round"/>
<path d="M82.8753 28.5841C79.466 28.3275 77.2106 22.5451 75.6787 19.7154C73.5114 15.712 72.4318 16.6707 75.1578 13.6623C77.753 10.7983 73.8264 9.06069 78.3284 12.5132C80.0407 13.8263 81.9648 15.0442 83.9318 15.9163C87.9215 17.6851 89.0896 19.7781 89.4343 15.1997" stroke="black" stroke-width="3" stroke-linecap="round"/>
<path d="M74.2099 8.5025C76.9541 8.54748 81.3028 7.89502 82.7669 5.44587" stroke="black" stroke-width="3" stroke-linecap="round"/>
<path d="M81.9162 4.45641C83.7986 5.58168 90.7648 8.45027 91.1178 3.76134C91.4726 -0.951013 81.747 2.91319 84.6762 4.6642" stroke="black" stroke-width="3" stroke-linecap="round"/>
<path d="M80.1454 3.39778C77.5326 3.34644 67.2556 6.09174 68.7173 10.4531C69.4927 12.7667 76.275 17.9011 75.565 15.0807" stroke="black" stroke-width="3" stroke-linecap="round"/>
<path d="M66.365 14.3885C66.0586 18.4591 64.3056 22.0108 63.4356 25.9901C62.6676 29.5026 60.3743 40.0388 60.9996 36.498C62.1115 30.2025 65.4325 21.0931 69.513 16.2703C73.4073 11.6676 73.208 21.8103 73.0709 23.6314C72.7538 27.8423 70.2073 30.9014 69.4962 34.9275C69.1185 37.0659 69.6282 39.7768 68.8745 41.8198C67.7783 44.7911 60.2779 39.8307 58.9749 38.8128" stroke="black" stroke-width="3" stroke-linecap="round"/>
<path d="M57.2238 49.7832C48.1103 49.0971 40.2779 51.578 32.0188 55.4929C21.7846 60.344 7.51663 72.3498 6.58481 84.7269C6.38181 87.4234 21.9336 74.0501 23.5753 72.7447C31.3724 66.5444 43.2882 61.5104 53.2556 65.6242C57.451 67.3558 60.2319 70.6597 64.8819 71.6396C69.642 72.6427 74.1885 74.5032 78.9186 75.6776C82.4922 76.5648 93.3878 75.9051 88.0913 69.2235C83.4298 63.343 80.2451 61.8814 73.6897 58.4245C67.5805 55.203 59.8566 53.788 54.4638 49.5754" stroke="black" stroke-width="3" stroke-linecap="round"/>
<path d="M29.9597 80.1132C29.6121 78.0862 20.3603 85.7904 19.2548 87.1202C14.9936 92.2458 8.98647 97.0863 6.51306 103.432C0.831804 118.006 0.134439 139.181 13.6173 149.713C19.1376 154.025 25.9297 156.908 32.5568 158.952C41.9087 161.836 49.7682 159.028 59.2785 157.674C78.9312 154.876 92.7567 137.238 93.7215 118.016C94.2345 107.794 86.0042 96.4346 79.2201 89.4245C72.9744 82.9706 64.2122 74.365 55.0141 73.6726C47.1286 73.0789 39.0057 74.1444 31.9728 77.9518C29.6404 79.2144 27.4501 81.7377 25.9719 83.9251C24.0903 86.7093 23.3972 87.7877 22.2534 84.1591" stroke="black" stroke-width="3" stroke-linecap="round"/>
<path d="M41.8399 118.941C39.4419 116.463 38.3839 121.856 39.3469 123.38C41.8758 127.38 48.9239 125.837 50.8475 122.189C53.1995 117.729 53.6765 113.411 47.8986 112.201C45.6561 111.732 43.3348 112.463 41.8834 114.267C41.5925 114.629 41.109 116.361 41.197 115.192" stroke="black" stroke-width="3" stroke-linecap="round"/>
<path d="M43.5022 96.8613C39.59 92.8188 31.7069 97.2886 28.892 100.439C21.3647 108.863 18.8942 120.359 20.5379 131.524C23.6096 152.389 55.2563 142.681 65.6002 133.786C70.1863 129.842 71.239 123.391 71.5414 117.682C71.8561 111.743 67.3806 107.619 63.8212 103.48C59.8243 98.8321 46.5434 90.1564 40.03 93.8243" stroke="black" stroke-width="3" stroke-linecap="round"/>
<path d="M46.9247 112.848C47.4025 113.266 54.5367 103.502 56.0155 102.018C57.4243 100.605 56.3164 103.648 56.1172 104.082C55.0903 106.322 52.7902 107.42 51.4478 109.436C47.5109 115.347 62.0137 113.984 65.2224 114.225C66.1341 114.294 72.3024 114.403 72.1526 116.392C72.1142 116.903 63.152 116.742 62.7735 116.714C61.8958 116.648 54.4264 115.326 54.6661 115.846C56.0237 118.791 57.7509 121.539 58.7845 124.638C59.6566 127.252 59.752 137.178 56.4596 130.939C55.2988 128.739 51.294 121.009 48.7843 125.016C45.4071 130.407 43.0993 136.581 39.9039 141.926C37.0672 146.671 39.0923 130.858 39.5074 125.345C39.8105 121.318 26.371 128.777 23.2298 128.54C17.5082 128.109 34.4659 126.126 39.9382 124.401C40.2741 124.295 39.3159 123.769 39.2216 123.679C37.6541 122.186 36.5478 120.308 35.1801 118.646C32.8467 115.81 31.6313 112.184 29.292 109.464C28.2649 108.27 31.4333 111.786 32.6389 112.8C34.2201 114.13 37.6118 119.137 39.757 119.299C40.3362 119.342 38.8981 111.066 38.8778 110.494C38.7898 108.017 39.1513 105.495 39.3374 103.024C39.5056 100.79 39.277 102.134 39.3896 103.697C39.6824 107.761 41.577 110.883 43.6327 114.245C44.2577 115.267 45.4711 110.035 45.8256 109.013C46.7622 106.313 47.8516 103.652 48.7451 100.957" stroke="black" stroke-width="3" stroke-linecap="round"/>
<path d="M217.151 105.26C217.575 99.6306 212.501 90.5335 206.315 89.4078C199.698 88.2035 185.669 77.0442 178.426 81.8505C158.645 94.978 151.875 133.294 173.917 147.671C179.507 151.318 185.415 156.372 192.226 157.459C200.362 158.758 207.757 156.219 215.394 153.746C221.971 151.616 225.647 147.46 229.316 141.929C232.277 137.465 231.369 129.446 231.765 124.181C232.154 119.027 231.432 112.574 228.17 108.317C224.93 104.088 224.589 96.9732 219.846 93.8793C211.278 88.2906 199.642 86.9006 189.576 86.1427C185.283 85.8195 181.447 87.5356 177.409 87.2316" stroke="black" stroke-width="3" stroke-linecap="round"/>
<path d="M186.101 104.927C180.415 105.129 176.338 116.243 176.002 120.707C175.374 129.047 181.07 135.983 187.428 140.558C193.142 144.669 203.011 143.41 209.391 141.766C216.978 139.81 219.849 135.999 220.409 128.561C221.402 115.369 209.412 107.797 199.373 102.474C196.44 100.918 190.582 101.293 188.391 104.097C186.878 106.034 182.674 110.495 182.81 108.689" stroke="black" stroke-width="3" stroke-linecap="round"/>
<path d="M198.63 124.917C193.006 121.734 194.428 129.855 199.914 128.578C206.26 127.099 199.693 120.11 194.568 125.613" stroke="black" stroke-width="3" stroke-linecap="round"/>
<path d="M198.137 104.831C197.792 109.419 197.109 114.125 197.649 118.717C198.049 122.124 197.32 124.979 199.943 123.011C201.368 121.941 216.162 115.455 208.885 118.895C203.173 121.594 196.668 124.033 207.107 125.499C209.98 125.903 222.486 129.72 213.135 129.016C209.277 128.726 205.419 128.435 201.561 128.145C198.111 127.885 199.958 130.536 200.645 132.921C205.502 149.783 201.758 133.398 197.166 131.044C192.512 128.658 188.256 138.199 184.993 138.871C182.059 139.475 185.46 135.441 186.065 134.998C189.281 132.635 192.692 130.745 196.115 128.737C198.373 127.413 192.992 127.222 192.023 126.87C187.73 125.312 183.618 122.837 179.436 120.966C175.938 119.401 176.37 119.162 179.789 120.714C184.315 122.769 190.483 127.062 195.414 127.682C197.373 127.928 188.613 116.359 187.949 115.147C187.478 114.286 186.013 109.839 184.363 110.254C182.788 110.651 186.36 112.817 187.419 114.049C189.262 116.192 191.106 118.336 192.949 120.479C194.051 121.761 196.982 126.686 198.931 126.833C199.42 126.87 200.452 121.78 200.983 121.029C202.124 119.416 207.687 111.27 206.566 112.705C204.89 114.852 203.662 117.479 202.029 119.715C201.458 120.497 196.342 129.303 199.124 127.237C201.109 125.762 214.376 117.363 214.257 117.071" stroke="black" stroke-width="3" stroke-linecap="round"/>
<path d="M140.11 63.3724C144.855 64.1413 147.531 68.006 152.292 68.7447C159.029 69.79 166.127 69.6675 172.816 68.3408C178.658 67.1822 184.025 65.9237 184.552 58.9216C185.245 49.7185 178.326 37.8491 167.456 43.3777C162.516 45.8903 156.138 46.5336 151.609 49.7029C147.653 52.4717 140.807 52.309 136.928 55.3362C133.23 58.222 136.725 62.6246 140.17 63.3212C144.571 64.2111 145.816 65.6711 148.706 69.0317C152.628 73.5926 158.792 72.6914 164.066 72.1372C167.305 71.7967 178.583 68.9342 179.06 65.3023C179.574 61.3907 173.595 64.2305 171.528 64.7353C167.616 65.6912 163.715 66.5444 159.837 67.6421C153.924 69.3163 156.288 68.2378 161.236 66.0767C167.088 63.521 173.839 61.5461 179.265 58.1337C180.424 57.4052 170.622 59.2425 169.467 59.568C164.571 60.9483 159.527 62.8759 154.425 63.3363C152.545 63.506 152.256 63.5584 154.079 62.7534C158.969 60.5951 163.592 57.8635 168.43 55.5915C176.757 51.6811 171.025 54.6358 166.246 56.4853C164.77 57.0568 149.546 63.9063 148.32 62.3198C147.8 61.6459 161.971 54.3525 162.933 53.8968C165.086 52.8767 165.932 52.508 167.883 51.7634C168.2 51.6422 167.269 52.0545 166.959 52.1951C161.313 54.7604 155.881 57.7042 150.063 59.8892C146.499 61.2274 144.078 61.5573 148.573 58.2177C153.968 54.2103 160.183 51.1358 166.203 48.1841C173.329 44.6902 151.05 52.9568 143.68 55.9002C142.433 56.3981 137.788 57.9327 141.776 56.0353C146.482 53.7971 151.554 51.5887 156.628 50.3591C161.088 49.2783 151.83 53.5641 151.645 53.6596C149.44 54.8007 144.919 58.6109 142.21 58.407C139.745 58.2214 146.886 56.7984 149.239 56.0402C151.906 55.1808 154.635 53.8098 149.91 55.2554C146.754 56.221 143.319 57.1279 140.405 58.7166C138.732 59.6289 144.45 58.183 144.736 58.1516C145.322 58.0872 152.37 58.4374 150.954 60.6246C149.805 62.4002 143.713 62.1425 141.863 62.2792C136.719 62.6592 150.965 61.2937 152.842 61.435C155.904 61.6655 140.194 65.0727 150.434 63.0915C151.48 62.8891 158.309 60.9808 159.087 62.0722C159.555 62.7287 152.612 65.7905 151.623 65.7984C151.412 65.8001 165.113 61.9227 158.221 63.9562C151.356 65.982 148.609 66.1488 157.016 63.6984C157.159 63.6565 162.211 62.4704 159.899 63.8598C159.461 64.1235 156.462 65.4945 156.933 65.53C161.599 65.8812 171.548 65.2363 175.298 62.0118C178.102 59.6 174.499 51.1436 173.325 48.2747C172.26 45.6735 175.596 56.7284 175.956 58.4415C176.078 59.0203 175.904 63.0068 176.754 61.8987C178.512 59.6065 179.353 57.0453 179.838 54.2228C179.896 53.8848 180.306 62.0689 180.107 64.7128C179.891 67.5788 180.733 58.994 181.251 56.167C181.367 55.5366 182.473 49.3792 180.207 53.0253C178.141 56.3494 177.955 70.9734 178.445 59.4085C178.614 55.4307 179.423 49.5475 177.52 45.8061C176.634 44.0632 176.695 50.271 176.723 50.4797C177.561 56.7018 181.558 51.5945 178.524 50.2255C172.676 47.5864 166.323 56.7453 173.82 49.0917C179.907 42.8777 165.316 51.3117 163.382 52.3713C162.683 52.7544 171.859 49.2865 163.734 49.1678C163.353 49.1622 159.499 49.599 160.122 49.0629C162.517 47.0039 165.818 44.4653 168.793 43.367C170.101 42.8844 167.234 47.6152 166.987 48.1317C166.052 50.0868 169.925 49.541 170.993 49.6585C179.863 50.6347 168.567 56.161 168.204 55.6302C167.638 54.802 173.327 51.1454 174.027 50.778C175.849 49.8217 171.321 53.9633 170.526 55.8607C169.724 57.775 171.701 56.412 172.093 55.7559C173.807 52.8888 163.99 55.989 163.601 56.119C149.377 60.8671 176.78 54.5973 175.63 62.0368C174.944 66.4739 166.75 67.9365 175.542 63.1997C181.606 59.9331 170.94 70.3543 178.071 65.1165C183.192 61.3556 179.577 62.0985 179.602 58.1033C179.626 54.2667 177.444 47.7863 173.491 46.0597C172.525 45.6374 161.985 52.8161 159.78 53.6038C155.882 54.9965 167.933 51.433 172.061 51.7438" stroke="black" stroke-width="3" stroke-linecap="round"/>
<path d="M151.246 75.2375C153.194 77.6462 153.422 79.8324 153.678 82.8832C153.84 84.8214 153.78 89.7713 154.542 85.4543C155.089 82.3594 159.316 74.5621 158.77 81.8186C158.57 84.4767 157.97 92.4509 158.17 89.7928C158.325 87.7271 160.259 83.7504 158.695 82.8154" stroke="black" stroke-width="3" stroke-linecap="round"/>
<path d="M166.048 78.3567C168.616 76.398 172.377 76.2884 175.319 75.0449C179.391 73.3241 182.326 71.3423 186.897 70.6817C196.056 69.3579 206.246 68.3514 215.422 69.0423C218.437 69.2693 220.217 71.4074 220.419 74.4306C220.529 76.0764 220.648 85.4495 219.147 86.1413C215.932 87.6233 209.167 85.5164 205.619 85.3455C199.998 85.0748 192.587 86.5918 186.971 87.4501C182.06 88.2007 177.183 89.2453 172.255 89.8507C168.793 90.2761 166.522 92.4264 163.003 92.1615C157.65 91.7585 153.541 92.1974 155.007 98.5208C156.489 104.918 155.489 112.085 154.997 118.624C154.688 122.728 157.558 126.954 156.001 131.175C155.081 133.668 151.293 129.407 150.716 128.883C148.308 126.702 147.638 124.383 147.794 121.089C148.009 116.558 147.147 111.693 146.613 107.189C145.807 100.394 146.868 93.4474 147.38 86.6414C147.935 79.2722 146.796 94.3992 146.663 96.1662C146.231 101.907 145.799 107.648 145.367 113.388C145.206 115.525 142.799 120.867 143.185 115.73C143.387 113.053 144.039 110.21 143.01 107.698C140.816 102.337 134.382 96.3613 129.311 93.6347C119.985 88.6196 104.948 91.2011 99.0727 81.7794C90.573 68.1497 77.7609 62.1237 64.6383 53.9035C62.3319 52.4586 54.4051 47.6632 57.5598 43.6247C62.666 37.088 72.6187 51.0783 78.0598 51.6838C87.3073 52.7131 94.3712 50.4151 99.7405 60.3331C103.875 67.9707 108.23 67.2574 115.516 67.5353C119.078 67.6712 121.957 69.1734 125.35 70.0578C130.173 71.3151 134.896 70.9236 139.267 73.8344C145.501 77.986 145.085 90.503 144.611 96.7914C143.59 110.356 128.021 98.7451 120.702 95.5483C115.018 93.0653 112.968 91.9514 109.822 86.2085C108.758 84.2668 107.176 82.7243 106.167 80.7541C102.325 73.2551 117.909 73.8071 121.694 74.2378C134.163 75.6566 148.312 93.3103 129.23 98.4179C119.393 101.051 107.137 87.7839 101.303 81.0006C92.8001 71.1128 118.217 71.4671 122.841 72.3193C130.306 73.6952 142.124 81.1876 139.396 90.607C137.839 95.9845 129.188 97.7043 124.5 97.6164C117.269 97.4807 110.932 92.1976 106.424 86.9551C99.1899 78.5431 110.297 71.7132 118.502 72.995C131.082 74.9605 143.118 83.5332 138.589 96.8949C134.953 107.621 116.057 98.4514 111.017 93.2598C102.426 84.4101 115.918 80.0809 123.872 77.8546C127.413 76.8636 132.897 75.5214 135.77 78.8617C139.168 82.8135 140.552 90.6887 139.238 95.6629C137.518 102.177 125.877 99.3004 121.698 97.8509C115.204 95.5981 109.682 89.7851 106.262 83.9356C101.87 76.4265 104.376 69.704 113.518 70.3923" stroke="black" stroke-width="3" stroke-linecap="round"/>
<path d="M100.185 74.4007C105.315 74.7869 95.1016 68.8039 93.658 67.8948C90.4588 65.8799 87.336 63.8841 84.0821 61.9389C77.686 58.1154 69.7888 57.5325 63.9549 52.6269C60.3431 49.5899 58.0469 45.2062 65.939 46.9845C75.1506 49.0602 82.3671 58.337 92.4315 57.5554C104.756 56.5983 111.331 70.4333 122.264 74.0581" stroke="black" stroke-width="3" stroke-linecap="round"/>
<path d="M154.3 114.562C157.211 114.491 160.742 112.853 163.513 112.026C167.722 110.77 171.779 110.263 175.979 109.177C185.066 106.828 195.106 106.219 204.414 104.301C210.734 102.999 219.304 97.4026 225.726 97.8861C229.913 98.2013 229.781 107.654 228.574 110.352C226.319 115.392 215.871 115.025 211.342 115.849C201.265 117.683 191.317 119.947 181.118 120.814C175.858 121.261 168.444 126.068 163.668 123.287C162.154 122.406 154.322 115.54 158.642 113.107C159.653 112.538 162.382 113.86 163.363 114.019C166.494 114.527 169.403 113.795 172.451 113.144C177.218 112.126 186.623 111.522 190.417 108.259C191.846 107.03 186.742 109.132 184.959 109.742C180.05 111.422 175.126 113.196 170.393 115.328C163.683 118.35 174.263 115.912 176.169 115.54C181.418 114.516 186.987 112.272 192.356 112.081C196.989 111.916 183.893 115.913 179.485 117.349C175.622 118.608 174.875 118.715 171.294 119.629C170.441 119.846 168.139 119.842 168.783 120.442C170.072 121.643 182.505 116.297 183.487 115.98C189.107 114.165 206.174 110.782 200.284 110.339C196.455 110.051 189.126 114.698 185.608 115.917C184.568 116.277 171.448 121.494 170.46 120.345C169.348 119.052 173.595 119 175.176 118.362C180.07 116.385 184.781 114.49 189.751 112.665C197.574 109.791 205.576 107.471 213.41 104.644C213.524 104.603 205.729 107.897 204.557 108.322C200.647 109.739 198 110.517 194.059 111.652C192.731 112.035 188.732 112.471 190.075 112.8C193.734 113.697 202.154 110.018 205.496 109.172C211.104 107.752 227.987 104.962 222.218 104.528C218.315 104.234 211.611 108.134 208.043 109.364C207.005 109.721 197.662 112.998 198.78 112.565C204.347 110.406 209.961 108.625 215.86 107.613C217.654 107.306 223.028 106.948 221.32 107.579C220.011 108.062 216.269 109.747 217.327 108.837C218.845 107.533 230.406 104.343 224.446 107.48C219.823 109.913 214.841 111.729 209.864 113.288C207.16 114.134 206.257 113.752 209.385 112.249C213.455 110.294 218.145 108.805 222.616 108.122C225.084 107.745 218.519 111.062 216.199 111.983C210.61 114.202 204.861 115.384 199.025 116.704C195.08 117.597 198.17 116.739 200.106 115.672C205.91 112.471 211.79 109.432 217.63 106.298C220.153 104.945 227.374 101.884 224.581 101.253C223.884 101.095 217.054 103.01 219.666 101.44C225.158 98.1392 207.264 104.779 206.017 105.201C203.923 105.91 187.864 112.872 185.318 110.883C184.792 110.472 186.604 110.525 187.251 110.36C188.899 109.939 193.72 108.689 194.974 108.38C200.356 107.054 207.526 104.231 213.172 104.849C217.267 105.297 206.396 109.678 202.56 111.178C196.207 113.665 189.667 115.303 183.165 117.292C171.555 120.845 206.556 110.736 218.391 108.026C220.891 107.454 220.337 108.191 218.861 109.176C218.048 109.718 215.427 110.699 216.402 110.773C217.443 110.851 218.967 110.057 219.935 109.702C222.703 108.687 214.467 111.915 211.678 112.867C198.182 117.474 184.04 118.519 170.645 123.812C167.177 125.183 172.322 121.994 172.941 121.423C175.312 119.238 165.875 124.848 163.369 122.819C161.794 121.544 165.818 116.315 167.645 117.795C168.056 118.127 161.896 122.262 161.216 118.87C160.639 115.992 168.175 115.66 168.479 117.078C169.044 119.718 158.622 119.236 159.962 117.773C162.388 115.122 167.848 113.791 170.95 112.363C176.696 109.718 182.372 106.887 188.247 104.532C192.565 102.8 198.653 100.86 203.421 101.219C205.215 101.354 191.639 107.134 190.134 107.57C187.102 108.449 182.11 108.508 179.354 110.211C177.031 111.647 184.724 109.206 187.385 108.588C197.687 106.197 208.802 101.791 219.282 100.631C224.23 100.083 219.985 105.747 218.995 107.404C216.755 111.151 219.16 109.915 221.893 108.847C224.293 107.91 227.855 108.177 224.008 110.343C222.539 111.17 225.239 98.0958 221.262 97.9956C217.58 97.9028 211.479 102.11 208.05 103.35C200.806 105.968 193.257 107.561 185.947 109.928C183.379 110.759 185.57 110.664 187.03 110.343C193.279 108.97 199.426 107.101 205.652 105.619C210.612 104.439 216.182 105.128 218.523 100.351" stroke="black" stroke-width="3" stroke-linecap="round"/>
<path d="M254.461 89.0228C252.775 87.2809 250.278 86.1098 248.354 84.3306C244.538 80.802 248.29 77.5785 252.758 79.0931C254.776 79.7771 253.761 84.2522 255.57 84.6511C255.769 84.695 254.473 82.9894 254.421 82.8939C252.685 79.6862 254.149 75.9492 256.258 73.2863C258.451 70.5178 266.937 68.2995 266.482 74.3345C266.392 75.5279 261.278 78.6028 262.926 77.1855C266.279 74.3021 267.585 68.7366 270.518 65.1152C272.648 62.4851 287.717 46.7368 286.858 58.1589C286.771 59.313 283.69 62.4685 285.082 61.0325C289.204 56.7804 298.522 57.0495 292.482 64.8197C290.067 67.9263 279.908 71.8924 287.341 72.452C288.732 72.5568 286.867 73.9545 286.434 75.6139C284.503 83.0251 277.377 85.634 277.213 85.6679C274.624 86.2011 272.805 87.546 269.937 87.6262C266.186 87.731 257.023 80.1939 262.114 80.5771" stroke="black" stroke-width="3" stroke-linecap="round"/>
<path d="M253.786 97.994C254.323 96.8702 257.894 93.9889 258.502 96.01C259.488 99.2924 266.09 98.6843 268.831 99.3495C272.284 100.187 272.4 103.377 272.029 106.44C271.316 112.325 266.625 115.216 261.017 115.858C254.659 116.587 233.006 101.423 243.968 95.25" stroke="black" stroke-width="3" stroke-linecap="round"/>
<path d="M321.128 68.9813C319.414 53.49 326.639 47.0133 333.901 45.0492C340.119 43.3674 337.203 49.0624 340.023 51.7475C341.331 52.9926 344.899 51.7247 340.994 51.4307C336.14 51.0653 346.076 52.0877 347.257 52.5705C355.894 56.1013 341.104 63.1157 340.329 61.7391C339.987 61.1303 346.164 61.4537 346.577 61.5969C348.955 62.4218 350.463 64.6679 349.444 67.1591C346.311 74.8235 339.403 72.8881 335.284 68.0979C333.003 65.445 331.335 61.9605 330.111 66.5389C328.657 71.9752 322.723 80.6565 318.059 72.7599C313.72 65.415 307.987 58.3736 320.093 56.0945C320.507 56.0165 331.843 56.0245 329.798 57.3821C327.769 58.7287 323.089 49.3075 322.942 47.844C322.563 44.0867 324.841 40.3152 328.405 38.8993C336.217 35.7954 336.245 41.2797 335.812 47.0309" stroke="black" stroke-width="3" stroke-linecap="round"/>
<path d="M294.632 88.0371C297.542 86.9977 301.825 85.0221 305.03 86.0354C305.462 86.172 300.709 89.5536 300.416 90.366C299.554 92.755 315.884 95.0617 313.286 97.6837C311.931 99.0517 309.719 99.2151 308.188 100.307C305.648 102.119 305.673 105.461 302.457 106.893C298.063 108.849 288.531 106.508 287.881 100.783C287.607 98.3706 291.902 97.3061 290.964 95.3349C290.321 93.9826 288.621 94.6489 288.783 92.4976C289.259 86.1753 295.378 83.6836 299.506 88.404C303.035 92.4406 295.744 87.9069 301.21 88.6994C307.841 89.6609 301.059 98.2346 305.372 91.853" stroke="black" stroke-width="3" stroke-linecap="round"/>
</svg>
