<svg width="274" height="190" viewBox="0 0 274 190" fill="none" xmlns="http://www.w3.org/2000/svg">
<path d="M159.476 74.5838C159.476 69.5365 159.918 65.7584 161.632 61.0448C163.145 56.8853 165.243 66.3332 167.563 68.653C169.607 70.6969 170.402 74.5838 173.494 74.5838C176.729 74.5838 179.964 74.5838 183.199 74.5838C187.443 74.5838 171.445 82.4359 175.171 84.4685C177.02 85.477 180.602 89.2024 181.581 91.3578C184.102 96.9033 175.747 93.3131 172.416 92.3762C167.363 90.9551 166.117 88.5736 162.711 85.3671C160.991 83.7485 155.578 90.4552 154.084 91.5974C153.096 92.3526 146.628 98.1413 149.231 93.4546C150.309 91.5144 151.511 89.1351 152.407 87.0445C152.691 86.3814 144.004 86.3359 143.061 86.2058C142.087 86.0715 130.755 82.4648 134.914 82.1321C140.659 81.6725 153.567 79.9319 156.241 74.5838" stroke="black" stroke-width="3" stroke-linecap="round"/>
<path d="M245.981 34.7354C245.981 32.75 245.224 20.5065 247.745 20.0024C248.496 19.8521 252.616 26.843 252.984 27.3689C254.046 28.8856 254.382 30.437 256.564 29.9627C257.51 29.7571 266.688 27.0957 266.42 27.732C264.907 31.3265 263.033 34.9247 262.426 38.8337C262.213 40.2089 262.219 39.8712 263.256 39.8712C264.721 39.8712 265.444 40.5386 266.628 41.3757C267.507 41.9973 272.41 45.9241 272.127 45.9408C268.154 46.1745 264.588 45.1581 260.74 44.5661C260.087 44.4657 256.895 41.6498 256.745 42.0241C255.711 44.6109 254.534 47.8919 253.918 50.6616C253.512 52.4874 252.735 56.9637 252.051 52.6848C251.556 49.5939 250.427 46.4532 249.742 43.3729C249.703 43.1956 249.793 41.7133 249.483 42.0241C248.615 42.8916 247.62 43.0686 246.422 43.6323C245.083 44.2625 235.033 47.1043 237.344 44.2808C240.179 40.8149 242.829 37.4207 245.981 34.2685" stroke="black" stroke-width="3" stroke-linecap="round"/>
<path d="M214.585 156.856C214.585 154.17 214.448 151.683 216.089 149.386C217.601 147.27 217.515 147.69 219.046 149.878C219.25 150.17 221.647 154.548 222.314 154.262C224.919 153.146 227.645 152.654 230.459 152.654C232.765 152.654 226.512 156.743 226.75 158.049C227.22 160.633 230.903 162.922 232.897 164.326C235.966 166.485 229.407 163.839 228.617 163.418C226.358 162.213 223.79 159.612 221.329 159.164C218.502 158.651 219.554 159.613 219.15 161.992C218.431 166.228 216.379 170.365 215.155 174.494C214.936 175.234 215.065 175.653 214.818 174.468C214.127 171.149 213.592 167.746 212.977 164.404C212.753 163.191 212.322 161.816 212.25 160.591C212.226 160.174 211.271 161.098 210.798 161.291C209.932 161.646 202.611 162.29 203.016 161.525C203.54 160.535 205.059 160.653 205.947 160.306C207.632 159.646 209.172 158.421 210.798 157.608C212.045 156.984 212.937 155.776 214.118 154.988" stroke="black" stroke-width="3" stroke-linecap="round"/>
<path d="M99.406 5.91501C91.3619 5.45972 83.0816 2.92375 75.0379 4.69178C68.3292 6.16636 62.2349 9.41377 55.839 11.8727C48.3664 14.7455 43.09 18.8528 36.9238 24.1393C31.962 28.3934 27.3283 32.2228 23.6096 37.815C17.9762 46.2864 14.5184 56.2349 10.3536 65.6111C6.74757 73.7292 5.74048 81.4675 5.24167 90.2804C4.62209 101.227 3.80516 110.931 6.473 121.548C8.91126 131.252 14.5625 139.148 19.4081 147.395C22.8176 153.198 27.7821 158.976 32.6906 163.317C37.6467 167.7 42.5278 171.202 48.0556 174.638C50.1732 175.954 52.9191 178.169 55.2119 178.865C57.9772 179.704 60.5585 180.092 63.2463 181.465C71.7996 185.832 81.7203 187.424 91.139 187.957C94.6972 188.158 100.577 187.842 103.713 185.471C105.253 184.307 109.797 184.298 110.62 182.742" stroke="black" stroke-width="3" stroke-linecap="round"/>
<path d="M98.6856 7.27824C96.9461 7.41606 94.8148 9.92105 93.3395 10.8364C91.1736 12.1803 88.8228 13.5862 86.9724 15.3898C84.1507 18.1403 80.7458 19.9369 78.1813 23.0038C74.7151 27.1491 71.9135 30.9942 69.7189 36.174C66.2445 44.3744 62.9191 51.9733 61.2817 60.8891C60.0334 67.6863 59.5198 74.3453 59.1295 81.2412C58.798 87.0977 57.5294 93.9348 58.4027 99.763C59.4503 106.754 60.6229 113.733 61.755 120.7C62.0702 122.639 62.3039 124.697 63.517 126.181C64.1762 126.988 64.8044 127.74 64.7919 128.905C64.764 131.495 66.9495 132.885 67.0392 134.648C67.1894 137.602 70.0484 141.337 71.154 144.006C72.8176 148.022 74.7509 152.284 76.7575 156.101C83.6998 169.305 96.8015 181.258 111.3 182.079" stroke="black" stroke-width="3" stroke-linecap="round"/>
</svg>
