<svg xmlns="http://www.w3.org/2000/svg" width="121.112" height="116.883" viewBox="0 0 121.112 116.883">
  <g id="Schallplatte" transform="translate(0.032 0.124)">
    <path id="Pfad_21" data-name="Pfad 21" d="M26.888,14.506C12.2,15.971,1.056,47.5,2.064,59.567c.908,10.863.945,24.51,9.2,32.743,3.108,3.1,7.053,5.392,10.207,8.421,3.263,3.135,6.758,4.589,10.4,7.1,4.073,2.812,8.854,1.839,13.105,3.96,12.663,6.315,38.238,1.484,49.4-6.222,6.343-4.38,14.56-8.179,17.327-16.152,2.279-6.567,6.111-13.512,6.994-20.55.746-5.956.491-13.725-2.836-18.854-3.618-5.577-3.852-11.63-6.426-17.408-2.155-4.837-4.5-9.264-8.254-13.009-4.614-4.6-4.69-9.347-10.522-13.009C79.366-.5,63.908,1.778,52.09,5.707c-5.224,1.737-10.2,4.28-15.562,5.468-3.143.7-8.209,4.61-10.774,3.331" transform="translate(0 0)" fill="none" stroke="#000" stroke-linecap="round" stroke-width="4"/>
    <path id="Pfad_22" data-name="Pfad 22" d="M50.927,59.863c-4.314,4.211-7.378,8.987-6.873,15.406C44.5,80.956,54.52,88.361,59.2,91.172c10.641,6.393,29.526.52,29.526-12.859,0-5.926-2.21-9.2-4.582-14.412-2.5-5.483-4.964-5.363-9.736-7.952-5.288-2.868-10.007,1.677-14.891,1.677-2.778,0-12.187,2.549-13.172,4.473" transform="translate(-10.692 -13.416)" fill="none" stroke="#000" stroke-linecap="round" stroke-width="4"/>
    <path id="Pfad_23" data-name="Pfad 23" d="M82.354,10.666c6.5-1.975,11.077.77,16.718,3.951,3.672,2.071,7.31,1.643,1.367-.446-5.791-2.035-24.087-3.228-18.334-1.083A183.13,183.13,0,0,1,101.248,21.5c8.522,4.369-4.465.813-6.961.255-2.071-.463-16.646.092-10.565.382,6.2.3,10.675,5.028,16.532,5.735,5.485.662-11.009-1.147-16.532-1.147-1.465,0,5.6,2.259,7.085,2.931,8,3.608,4.579,2.8-2.237,2.8-7.483,0-8.671.007-.746,1.784,1.7.382,9.842,4.378,3.853,3.887-18.466-1.515,9.8.064-5.718.064-4.142,0,1.861,1.438,3.107,2.039,1.123.542-4.377.255-5.593.255" transform="translate(-20.111 -2.037)" fill="none" stroke="#000" stroke-linecap="round" stroke-width="4"/>
    <path id="Pfad_24" data-name="Pfad 24" d="M56.494,111c1.169.237,15.132,2.238,9.527,3.928-3.055.921-13.521-2.543-9.4.633,2.105,1.623,11.889,3.422,6.01,3.422-3.163,0-15.93-3.152-7.1-.063,2.19.766,14.766-.028,15.665,1.457,1.2,1.974-7.619,2.865-7.992,2.851-5.235-.2-9.522-3.024-14.514-3.992-3.551-.688-.55,2.436.639,3.168,3.853,2.37,8.653,3.944,12.916,5.448,5.661,2,12.686,1.413,1.79,2.281-5.289.422-20.333-4.217-15.857-1.394,5.874,3.7,14.223.265,20.588,2.788,7.881,3.123-17.438-1.823-24.68-6.209-2.638-1.6.188-.892,1.407-.127,4.009,2.521,7.509,4.634,12.212,5.7s18.941,2.914,14.13,2.914c-8.266,0-16.412-1.19-24.552-2.534-10.107-1.669,5.629,1.61,8.312,2.534,3.729,1.284,11.515,4.3,14.706,1.141" transform="translate(-10.437 -27.606)" fill="none" stroke="#000" stroke-linecap="round" stroke-width="4"/>
    <path id="Pfad_25" data-name="Pfad 25" d="M73.78,79.089c-3.573,0,.7,2.438,1.187.2.2-.9-1.513-1.912-1.993-.817-.413.943-.147,1.327.985,1s.08-1.2-.672-1.2c-1.3,0-1.258,1.948,0,1.044,1.752-1.258-2.319-1.071-1.03.091.707.637.781-2.755.313.091" transform="translate(-17.819 -19.274)" fill="none" stroke="#000" stroke-linecap="round" stroke-width="4"/>
  </g>
</svg>
