<svg width="740" height="743" viewBox="0 0 740 743" fill="none" xmlns="http://www.w3.org/2000/svg">
<path d="M547.909 203.606L562.098 216.047L570.383 232.573L575.697 250.661L377.339 742.939L-2.29937e-05 335.132L500.812 178.989L524.757 182.651L534.12 188.65L547.909 203.606Z" fill="url(#paint0_linear_301_51)"/>
<path d="M497.316 189.992C496.442 185.875 502.806 181.409 506.543 181.214C508.524 180.668 517.655 184.673 519.524 185.027C522.626 185.614 527.417 188.421 529.606 190.469C533.043 193.684 537.786 198.283 540.326 201.929C542.718 205.362 546.187 207.539 549.698 212.258C554 218.039 557.044 220.725 559.822 225.272C562.101 229.004 563.627 236.473 565.43 241.78C567.01 252.425 570.637 257.111 562.367 262.321C541.256 269.492 522.245 239.925 511.918 225.41C507.437 219.112 502.666 214.253 500.171 206.906C498.386 201.652 498.459 195.376 497.316 189.992Z" stroke="black" stroke-width="3" stroke-linecap="round"/>
<path d="M500.651 183.448C504.544 182.126 508.51 177.56 512.154 175.372C516.036 173.041 518.57 170.578 525.783 168.128C530.661 164.725 533.065 163.908 539.076 161.866C543.884 160.233 545.437 159.705 549.699 158.258C553.283 157.04 559.516 152.939 562.364 152.612C567.038 152.077 569.54 154.372 573.657 155.805C581.455 162.287 581.252 163.663 589.737 173.089C594.768 178.677 594.236 178.204 597.582 182.112C600.813 184.12 602.203 190.467 603.414 194.031C605.951 201.5 601.735 211.264 598.187 218.237C590.135 234.06 580.174 245.178 568.009 257.236" stroke="black" stroke-width="3" stroke-linecap="round"/>
<path d="M573.76 156.165C574.781 155.818 575.736 154.97 576.501 154.278C577.352 153.508 578.794 153.149 579.595 152.285C581.169 150.588 584.771 151.083 585.729 153.111C586.106 153.91 587.22 155.078 587.845 155.682C588.733 156.541 589.504 157.627 590.172 158.576C590.825 159.504 591.3 160.259 592.128 161.06C592.903 161.809 593.981 162.77 594.529 163.661C595.586 165.377 597.271 166.794 598.711 168.187C600.241 169.667 601.249 171.875 602.347 173.659C602.792 174.38 604.174 175.649 603.492 176.686C602.98 177.463 602.296 178.091 601.807 178.833C601.402 179.449 600.56 181.54 600.043 181.893C599.808 182.053 599.228 182.631 599.104 182.872C598.475 184.106 598.843 183.001 598.701 182.11" stroke="black" stroke-width="3" stroke-linecap="round"/>
<path d="M534.529 197.849C531.978 198.715 530.479 199.653 529.942 202.457C529.44 205.077 528.954 207.83 529.071 210.545C529.171 212.848 528.199 214.8 529.031 217.25C529.872 219.725 531.126 220.984 532.59 223.072C535.078 226.617 540.343 229.417 544.745 227.922C547.188 227.092 549.596 226.857 551.905 225.468C553.378 224.583 555.328 222.576 555.587 220.808" stroke="black" stroke-width="3" stroke-linecap="round"/>
<defs>
<linearGradient id="paint0_linear_301_51" x1="605.207" y1="156.111" x2="184.801" y2="525.348" gradientUnits="userSpaceOnUse">
<stop stop-color="#FFF500" stop-opacity="0.38"/>
<stop offset="1" stop-color="#FFE2E2" stop-opacity="0"/>
</linearGradient>
</defs>
</svg>
