<svg width="651" height="644" viewBox="0 0 651 644" fill="none" xmlns="http://www.w3.org/2000/svg">
<path d="M240.452 139.025C240.452 135.759 227.355 140.504 225.597 140.892C217.425 142.695 211.547 145.858 204.825 150.229C197.511 154.984 192.018 161.161 184.561 165.791C179.298 169.059 172.818 174.964 169.903 180.108C167.128 185.004 167.073 190.545 164.612 195.324C163.076 198.305 164.288 206.123 166.728 208.707C169.952 212.12 172.015 214.966 177.506 214.966C182.894 214.966 186.954 213.511 191.93 211.992C197.693 210.232 202.609 207.038 207.999 204.661C212.65 202.609 216.5 198.699 221.051 196.914C223.174 196.082 226.025 193.459 227.753 191.935C229.746 190.176 231.287 188.09 233.397 186.332C237.011 183.321 239.524 179.092 242.019 175.128C246.976 167.256 248.918 159.566 248.918 150.54C248.918 147.823 247.823 142.486 245.939 140.408C244.941 139.308 244.343 137.78 242.568 137.78C240.932 137.78 238.511 136.456 237.63 135.29" stroke="black" stroke-width="3" stroke-linecap="round"/>
<path d="M162.809 204.342C160.716 204.1 161.451 200.663 161.451 199.314C161.451 197.631 159.97 195.758 159.263 194.286C156.905 189.374 154.849 184.882 151.945 180.179C149.701 176.543 149.835 171.41 147.532 167.573C145.485 164.161 142.94 159.252 142.44 155.316C142.362 154.702 141.641 153.763 141.233 153.291C140.598 152.557 141.566 151.162 140.931 150.428C140.019 149.372 139.724 146.08 139.724 144.631C139.724 141.216 136.207 136.174 140.063 133.318C141.709 132.099 142.376 129.594 144.137 128.289C145.986 126.92 146.86 124.6 148.249 122.947C151.448 119.14 155.623 115.643 160.093 113.344C164.122 111.272 166.962 107.131 170.956 105.173C173.588 103.884 179.017 101.112 181.518 103.427C187.16 108.651 194.961 111.093 200.68 115.858C202.127 117.064 204.427 117.338 206.263 118.093C208.503 119.015 210.125 119.383 212.373 120.607C215.926 122.542 219.203 124.818 222.897 126.718C224.943 127.77 227 128.828 229.008 129.861C230.799 130.782 231.878 132.342 233.723 133.318C235.36 134.184 236.776 135.561 238.476 136.46C240.017 137.276 241.942 138.346 243.606 138.346" stroke="black" stroke-width="3" stroke-linecap="round"/>
<path d="M142.832 126.754C142.643 125.092 139.723 123.544 140.315 121.948C141.085 119.874 143.037 118.698 144.408 117.04C145.405 115.833 145.572 114.377 146.792 113.054C148.043 111.696 149.618 110.26 150.717 108.755C152.156 106.784 157.033 104.046 159.67 103.273C165.233 101.644 163.431 107.651 167.044 108.869" stroke="black" stroke-width="3" stroke-linecap="round"/>
<path d="M180.75 171.033C180.75 176.504 186.743 180.44 192.68 180.44C198.111 180.44 209.318 177.461 212.401 172.915C215.449 168.42 217.199 163.947 215.494 158.771C214.531 155.848 214.128 154.934 211.276 152.709C210.062 151.761 204.957 150.99 205.332 150.34" stroke="black" stroke-width="3" stroke-linecap="round"/>
<path d="M193.574 160.078L207.309 148.127L223.687 141.487L240.95 137.503L650.119 328.986L215.391 644L163.031 200.359L170.57 179.555L177.639 171.587L193.574 160.078Z" fill="url(#paint0_linear_301_50)"/>
<defs>
<linearGradient id="paint0_linear_301_50" x1="160.843" y1="108.235" x2="422.876" y2="487.191" gradientUnits="userSpaceOnUse">
<stop stop-color="#FFF500" stop-opacity="0.38"/>
<stop offset="1" stop-color="#FFE2E2" stop-opacity="0"/>
</linearGradient>
</defs>
</svg>
