<svg width="1167" height="939" viewBox="0 0 1167 939" fill="none" xmlns="http://www.w3.org/2000/svg">
<path d="M58.548 28.6679C67.2702 28.8429 74.4619 27.0076 82.8901 29.0621C88.3902 30.4036 92.0764 26.6244 96.9471 26.4516C102.079 26.2662 107.296 26.6593 112.436 26.7553C134.582 27.1889 155.92 24.6398 178.125 25.0746L209.842 25.6955L226.806 26.0275L234.181 26.1755C237.242 26.2369 238.028 23.2839 240.864 23.3384C251.465 23.5511 261.853 22.2662 272.602 22.4759L290.304 22.8227C296.209 22.9412 301.201 20.2811 306.901 20.1762C400.929 18.5171 496.137 19.4322 590.61 21.2824C614.682 21.7535 641.787 19.1069 665.416 23.9025C679.225 26.705 693.742 26.2704 707.84 26.5414C721.986 26.818 735.832 28.5737 749.78 28.8464L789.28 29.6199C802.724 29.8836 819.049 34.5398 832.055 30.788C850.332 25.5246 870.823 26.77 890.068 27.1561L920.311 27.7486C929.649 27.9359 937.925 24.1452 946.929 23.8193C954.613 23.5409 965.322 22.5985 972.74 24.4075C979.503 26.0556 990.609 28.1102 997.717 26.2196C999.013 25.875 999.58 23.8245 1000.87 23.4785C1003.23 22.8501 1006.47 23.505 1008.9 23.5539L1023.65 23.8427C1032.94 24.029 1042.4 24.7587 1051.68 24.3919C1058.74 24.1128 1066.42 21.7081 1073.85 21.8572C1079.41 21.9688 1094.6 26.104 1096 20.8071" stroke="#060606" stroke-width="8.00116" stroke-linecap="round"/>
<path d="M58.998 35C58.6824 41.167 56.0014 48.5352 54.8328 54.5795C53.726 60.306 52.1154 67.4266 50.5159 72.94C48.5845 79.5963 45.3663 86.6823 45.3663 93.7363C45.5058 100.046 45.023 106.354 43.9276 112.532C41.2557 126.35 37.7825 139.55 35.5213 153.518C32.0067 175.226 32.7057 197.234 26.9633 218.346C22.6838 234.081 22.3782 251.048 19.768 267.158C16.0247 290.284 16.8199 314.1 13.9365 337.297C9.32919 374.352 5.83273 411.277 5.83273 449.29C5.83273 496.648 2.8755 544.652 4.46995 592.259C5.08406 610.609 7.19651 630.702 7.19651 649.776C7.25482 667.667 8.98204 685.497 12.3471 702.944C14.7155 715.188 16.74 731.118 16.74 743.668C16.74 760.379 18.9344 776.23 19.4665 792.745C19.9784 808.623 26.2824 825.618 26.2824 840.864C26.1177 846.816 26.6789 852.765 27.9487 858.529C29.8163 866.039 29.009 877.21 29.009 863.578" stroke="#060606" stroke-width="8" stroke-linecap="round"/>
<path d="M1096 21.2146C1100.13 31.3553 1102.81 41.7987 1105.62 52.3329C1107.37 58.8992 1109.31 65.5225 1111.31 71.9956C1112.49 75.7867 1111.45 79.5984 1112.05 83.4512C1112.59 86.8512 1114.53 90.4547 1114.65 93.8813C1114.92 102.104 1115.98 109.897 1115.98 118.075C1115.98 122.394 1116.86 126.249 1117.38 130.471C1117.88 134.566 1121.17 137.402 1121.3 141.586C1121.61 151.287 1125.3 160.232 1126.63 169.798C1128.72 185.421 1130.05 201.178 1130.62 216.989C1130.88 223.481 1133.99 227.45 1135.65 233.232C1136.86 237.411 1136.35 242.526 1137.95 246.567C1140.13 252.002 1141.26 257.962 1141.28 264.003C1141.28 273.038 1145.1 280.055 1143.27 289.734C1140.73 303.259 1145.28 315.646 1145.28 328.976C1145.28 339.112 1146.61 348.763 1146.61 358.98C1146.61 368.646 1144.84 380.698 1149.27 389.333C1151.21 393.117 1150.04 397.408 1151.64 401.3C1153.14 404.691 1154.16 408.36 1154.67 412.156C1155.68 421.48 1156.49 430.626 1158.3 439.771C1159.36 445.159 1158.05 450.91 1158.89 456.359C1159.96 463.324 1161.98 470.246 1162.52 477.306C1163.39 488.916 1162.87 499.537 1162.59 511.419C1162.01 536.275 1159.92 560.7 1159.92 585.626C1159.92 628.073 1158.59 669.512 1158.59 711.808C1158.59 730.744 1158.36 749.021 1154.89 767.548C1153.86 773.044 1154.71 779.21 1154.59 784.813C1154.46 791.836 1152.68 798.875 1152 805.844C1151.16 814.667 1150.7 823.421 1148.97 832.179C1147.92 837.492 1148.81 843.962 1146.6 848.418C1144.01 853.318 1142.62 859.012 1142.61 864.832C1142.61 871.129 1139.94 876.183 1139.94 882.187C1139.94 888.94 1140.44 895.104 1138.61 884.497" stroke="#060606" stroke-width="8" stroke-linecap="round"/>
<path d="M27.0684 869.802C32.2521 870.522 37.7449 873.508 42.3829 876.139C47.4994 879.04 54.8391 877.557 60.4412 879.257C64.5786 880.514 68.737 883.256 72.8543 884.191C83.2208 886.54 93.6345 886.456 103.968 889.319C116.571 892.815 130.541 886.628 143.142 890.122C169.881 897.544 198.132 900.679 225.602 904.112C252.5 907.469 280.461 911.457 307.658 911.457H344.334C365.017 911.457 384.077 916.618 404.465 920.107C420.408 922.832 436.295 923.064 452.184 925.541C469.955 928.316 486.447 931.378 504.416 931.378C522.634 931.378 540.613 933.19 558.827 933.19C575.18 933.19 593.475 936.016 609.608 932.281C617.634 930.426 626.22 931.378 634.353 931.378C642.279 931.378 649.723 928.532 657.567 927.856C676.713 926.205 696.328 927.756 715.522 927.756C727.26 927.756 737.907 924.135 749.615 924.135C764.732 924.135 779.725 925.946 794.917 925.946C820.212 925.946 845.511 922.324 870.846 922.324C886.274 922.324 901.994 920.513 917.597 920.513C923.357 920.513 927.513 916.891 933.073 916.891H946.131C955.098 916.891 962.717 911.458 971.604 911.458C984.291 911.496 996.943 909.806 1009.33 906.419C1017.09 904.207 1025.28 904.207 1033.26 904.207C1039.74 904.207 1048.71 906.328 1054.95 904.108C1065.15 900.464 1078.89 898.774 1089.85 898.774H1105.08C1107.47 898.774 1110.69 899.488 1112.98 898.674C1115.31 897.844 1115.14 895.152 1118.14 895.152C1120.74 895.152 1130.86 890.843 1132.33 887.907C1135.02 882.54 1143.15 887.819 1141.36 878.852" stroke="#060606" stroke-width="8" stroke-linecap="round"/>
<path d="M111.309 461.675C109.104 510.454 108.674 597.783 108.673 640.023C108.672 708.927 109.172 780.154 111.671 807.644C143.12 815.097 347.683 807.644 409.513 807.644C533.708 812.861 755.731 807.644 789.312 807.644C808.543 807.644 977.5 810.874 1050.17 807.644V647.399V479.778V324.227C1050.17 257.849 1051.67 165.323 1051.67 100.956C1039.31 103.342 809.036 100.629 714.691 103.362L474.479 103.362C389.6 100.481 333.054 101.764 255.595 103.362C178.136 104.959 112.171 103.638 112.171 103.638C112.171 103.638 113.731 176.721 113.731 223.654V302.771C113.376 343.269 113.945 403.344 111.309 461.675Z" stroke="black" stroke-width="8" stroke-linejoin="round"/>
<path d="M463.985 853.659C452.596 854.512 452.193 877.485 460.959 883.04C469.726 888.595 483.532 891.419 490.883 880.426C492.568 877.901 490.791 873.398 493.067 870.363C494.918 867.905 494.247 864.194 494.247 860.9C494.247 853.634 494.302 849.729 489.37 845.005C477.5 833.641 471.148 848.544 462.472 855.467" stroke="#060606" stroke-width="8" stroke-linecap="round"/>
<path d="M530.561 866.342C533.503 866.342 537.76 870.834 539.639 866.342" stroke="#060606" stroke-width="8" stroke-linecap="round"/>
<path d="M582.003 871.775C579.879 871.775 577.367 871.172 575.951 869.056C574.826 867.372 576.533 868.564 577.463 866.342" stroke="#060606" stroke-width="8" stroke-linecap="round"/>
<path d="M618.316 868.147C616.479 869.183 612.348 870.008 615.291 871.769" stroke="#060606" stroke-width="8" stroke-linecap="round"/>
<path d="M648.575 871.775H659.166" stroke="#060606" stroke-width="8" stroke-linecap="round"/>
</svg>
