<svg xmlns="http://www.w3.org/2000/svg" width="1163.129" height="791.704" viewBox="0 0 1163.129 791.704">
  <g id="Gruppe_10" data-name="Gruppe 10" transform="translate(-341.948 -285.9)">
    <g id="Gruppe_4" data-name="Gruppe 4" transform="translate(345.87 290.938)">
      <g id="Group_18" data-name="Group 18" transform="translate(0 0)">
        <path id="Pfad_1" data-name="Pfad 1" d="M0,24.067c8.694,0,15.834-1.661,24.262-.079,5.5,1.033,9.119-2.2,13.97-2.427,5.111-.242,10.315,0,15.439-.006,22.074-.009,43.3-2.507,65.433-2.516l31.614-.013,16.909-.007,7.352,0c3.051,0,3.791-2.491,6.618-2.493,10.567,0,20.9-1.253,31.614-1.258l17.645-.007c5.886,0,10.822-2.316,16.5-2.5,93.673-2.975,188.559-3.81,282.726-3.848,23.994-.01,50.965-2.687,74.58.939,13.8,2.119,28.26,1.51,42.312,1.5,14.1-.006,27.923,1.234,41.826,1.228l39.372-.016c13.4-.005,29.734,3.627,42.641.26C788.95,8.1,809.387,8.8,828.569,8.8l30.145-.012c9.308,0,17.5-3.32,26.468-3.745,7.653-.363,18.311-1.334,25.729.059,6.762,1.269,17.859,2.806,24.915,1.1,1.286-.311,1.822-2.041,3.1-2.353,2.343-.567,5.58-.072,8.008-.072l14.7-.006c9.258,0,18.692.453,27.937-.011,7.029-.353,14.646-2.5,22.057-2.5,5.544,0,20.737,3.214,22.056-1.254" transform="matrix(1, 0.017, -0.017, 1, 54.788, 0)" fill="none" stroke="#060606" stroke-linecap="round" stroke-width="8"/>
        <path id="Pfad_2" data-name="Pfad 2" d="M56.346,58.085c-.312,5.18-2.962,11.369-4.117,16.446-1.094,4.81-2.686,10.791-4.267,15.422-1.909,5.591-5.09,11.543-5.09,17.468a68.572,68.572,0,0,1-1.422,15.788c-2.641,11.606-6.074,22.694-8.309,34.426-3.474,18.234-2.783,36.72-8.459,54.453-4.23,13.217-4.532,27.468-7.112,41-3.7,19.425-2.914,39.429-5.764,58.914-4.554,31.124-8.01,62.14-8.01,94.069,0,39.779-2.923,80.1-1.347,120.088.607,15.413,2.695,32.291,2.695,48.312a205.333,205.333,0,0,0,5.091,44.659c2.341,10.284,4.342,23.665,4.342,34.206,0,14.037,2.169,27.351,2.695,41.223.506,13.337,6.737,27.612,6.737,40.418a52.344,52.344,0,0,0,1.647,14.838c1.846,6.308,1.048,15.691,1.048,4.241" transform="translate(-1.98 -28.971)" fill="none" stroke="#060606" stroke-linecap="round" stroke-width="8"/>
        <path id="Pfad_3" data-name="Pfad 3" d="M250.288,52.853c4.126,8.375,6.807,17,9.611,25.7,1.746,5.423,3.691,10.893,5.689,16.239,1.172,3.131.134,6.279.741,9.461.533,2.808,2.474,5.784,2.588,8.614.273,6.791,1.331,13.227,1.331,19.981,0,3.567.883,6.751,1.4,10.238.5,3.382,3.784,5.724,3.918,9.179.309,8.012,4,15.4,5.322,23.3a335.527,335.527,0,0,1,3.992,38.974c.256,5.362,3.361,8.64,5.025,13.415,1.2,3.451.7,7.676,2.291,11.013a33.212,33.212,0,0,1,3.328,14.4c0,7.462,3.817,13.257,1.994,21.251-2.539,11.17,2,21.4,2,32.409,0,8.371,1.33,16.342,1.33,24.78,0,7.983-1.762,17.936,2.661,25.068,1.941,3.125.769,6.669,2.364,9.883a28.747,28.747,0,0,1,3.031,8.966c1.009,7.7,1.815,15.254,3.621,22.806,1.066,4.45-.244,9.2.594,13.7,1.07,5.752,3.088,11.469,3.621,17.3.871,9.588.35,18.36.073,28.173-.582,20.528-2.661,40.7-2.661,61.286,0,35.056-1.331,69.28-1.331,104.211,0,15.639-.232,30.734-3.695,46.035-1.029,4.539-.187,9.631-.3,14.259-.138,5.8-1.916,11.613-2.588,17.369-.846,7.287-1.3,14.516-3.031,21.749-1.05,4.388-.163,9.732-2.364,13.412a25.246,25.246,0,0,0-3.992,13.556c0,5.2-2.661,9.374-2.661,14.333,0,5.577.5,10.668-1.331,1.908" transform="translate(838.035 -23.739)" fill="none" stroke="#060606" stroke-linecap="round" stroke-width="8"/>
        <path id="Pfad_4" data-name="Pfad 4" d="M9.287,237.283c5.167.586,10.642,3.015,15.265,5.156,5.1,2.361,12.416,1.154,18,2.537,4.124,1.023,8.269,3.254,12.373,4.015,10.333,1.911,20.713,1.843,31.013,4.173,12.562,2.844,26.487-2.19,39.048.653,26.652,6.039,54.812,8.59,82.193,11.384,26.811,2.731,54.682,5.976,81.791,5.976h36.557c20.616,0,39.615,4.2,59.937,7.039,15.892,2.217,31.727,2.406,47.565,4.421,17.713,2.258,34.152,4.75,52.063,4.75,18.159,0,36.08,1.474,54.235,1.474,16.3,0,34.536,2.3,50.617-.739,8-1.51,16.558-.735,24.665-.735,7.9,0,15.32-2.316,23.139-2.866,19.084-1.343,38.636-.081,57.768-.081,11.7,0,22.312-2.947,33.983-2.947,15.068,0,30.012,1.474,45.155,1.474,25.213,0,50.431-2.947,75.684-2.947,15.378,0,31.047-1.474,46.6-1.474,5.741,0,9.884-2.947,15.426-2.947H925.38c8.938,0,16.532-4.421,25.39-4.421a170.619,170.619,0,0,0,37.6-4.1c7.74-1.8,15.9-1.8,23.86-1.8,6.453,0,15.4,1.726,21.614-.081,10.172-2.965,23.869-4.34,34.788-4.34h15.187c2.375,0,5.59.581,7.872-.081,2.322-.676,2.154-2.866,5.144-2.866,2.592,0,12.675-3.506,14.139-5.895,2.68-4.367,10.791-.072,9-7.368" transform="translate(13.712 493.086)" fill="none" stroke="#060606" stroke-linecap="round" stroke-width="8"/>
        <path id="Pfad_6" data-name="Pfad 6" d="M53.618,82.938c0,7.16-4.524,13.733-4.524,21.156,0,9.216-6.033,17.565-6.033,26.445,0,14.038-4.839,30.158-1.173,44.222,5.4,20.711-.335,44.446-.335,65.23,0,24.965-4.524,49.388-4.524,74.267,0,12.689-3.016,24.617-3.016,37.39,0,12.555-1.508,24.872-1.508,37.463v84.7c0,7.848,3.016,14.969,3.016,22.7v21.156c0,3.882-1.705,11.152,1.508,14.249,4.406,4.25.553,13.36,3.77,18.438,2.758,4.351,2.262,15.964,2.262,20.788,0,3.6,1.508,6.587,1.508,10.283,0,3.093,3.921,5.159-1.508,3.967" transform="translate(71.109 33.513)" fill="none" stroke="#060606" stroke-linecap="round" stroke-width="8"/>
        <path id="Pfad_7" data-name="Pfad 7" d="M40.679,84.587c10.552-.483,21.214-.632,32.215-.632,6.267,0,11.972-1.263,18.323-1.263h20.795c15.677,0,30.913-1.263,46.788-1.263,22.128,0,43.945-.632,66.134-.632,13.878,0,27.357,1.263,41.249,1.263,12.266,0,24.553.093,36.817,0,28.2-.215,56.535-.632,84.884-.632,56.393,0,112.294,1.895,168.574,1.895,48.624,0,97.427-.632,146.159-.632,13.356,0,26.5.632,39.8.632,9.589,0,18.291-.986,27.781-1.3C789.09,81.4,808.75,80.8,827.642,80.8a197.955,197.955,0,0,0,30.68-2.667c6.835-1.185,18.619-1.123,26.078-1.123,7.872,0,17.376-.632,26.078-.632h12.272c3.823,0,10.049.327,3.068-.632" transform="translate(84.048 20.075)" fill="none" stroke="#060606" stroke-linecap="round" stroke-width="8"/>
        <path id="Pfad_8" data-name="Pfad 8" d="M229.687,78.359c0,2.574,1.785,6.192,3.685,8.25,3.072,3.325,2.509,8.13,3.519,12.058,2.795,10.877,3.353,21.09,3.353,32.295,0,3.948,2.062,8.613,3.348,12.41,2.075,6.106,2.892,12.567,4.524,18.756,3.095,11.708,7.209,25.006,7.209,36.879,0,8.718,1.619,16.737,3.348,25.315,1.822,9.02,1.176,18.212,1.176,27.356,0,13.022,3.016,24.946,3.016,38.077,0,4.825,2.9,9,3.016,13.822.161,6.917,2.716,12.246,3.016,18.755.4,8.706,3.016,16.985,3.016,25.881,0,5.655,2.786,10.251,3.016,15.44.254,5.764-1.31,12.428.752,17.983,4.123,11.1,3.773,22.322,3.773,34.056,0,23.479-1.508,46.592-1.508,70.091v50.769c0,5.3.157,9.894-1.845,14.951-1.462,3.691.208,8.271-1.508,11.7-4.474,8.939-3.371,18.161-5.779,27.29-1.015,3.843-2.749,5.62-2.933,9.8-.1,2.181-1.508,3.854-1.508,6.063,0,1.017-.069-.664-1.508-1.269" transform="translate(783.338 17.46)" fill="none" stroke="#060606" stroke-linecap="round" stroke-width="8"/>
        <path id="Pfad_9" data-name="Pfad 9" d="M40.679,207.469c4.455,0,8.141-.925,12.706-.925,6.306,0,11.909,1.742,18.2,1.85,15.926.274,32.114,2.775,47.821,2.775,41.206,0,81.441,4.642,122.17,7.349,10.5.7,20.377-.124,30.822,1.44a250.464,250.464,0,0,0,35.973,2.311c27.266,0,54.454.925,81.647.925,28.965,0,57.382,2.5,86.11,2.775,13.974.136,27.963.925,42.07.925,12.561,0,25.586-.6,38.034.464,15.09,1.29,32.476,1.386,47.736,1.386h40.779c15.085,0,30,1.85,44.986,1.85,12.249,0,24.4-.925,36.748-.925,22.646,0,46.711,1.264,69.2-.461,13.473-1.035,27.689.73,40.954-.925a198.967,198.967,0,0,1,24.641-1.389c22.708,0,43.993-1.1,66.451-1.85,8.747-.289,17.873-.925,27.041-.925h12.363c7.632,0-1.791-3.069-2.316-3.7" transform="matrix(1, -0.017, 0.017, 1, 69.752, 421.503)" fill="none" stroke="#060606" stroke-linecap="round" stroke-width="8"/>
        <path id="Pfad_10" data-name="Pfad 10" d="M103.394,235.57c-11.352.694-11.754,19.387-3.016,23.907s22.5,6.818,29.827-2.127c1.679-2.055-.092-5.719,2.177-8.188,1.845-2,1.176-5.02,1.176-7.7,0-5.913.055-9.09-4.861-12.934-11.832-9.247-18.163,2.88-26.811,8.513" transform="translate(294.307 467.017)" fill="rgba(0,0,0,0)" stroke="#060606" stroke-linecap="round" stroke-width="8"/>
        <path id="Pfad_11" data-name="Pfad 11" d="M110.658,229.762c2.933,0,7.176,3.655,9.049,0" transform="translate(353.402 483.145)" fill="none" stroke="#060606" stroke-linecap="round" stroke-width="8"/>
        <path id="Pfad_12" data-name="Pfad 12" d="M126.79,234.183c-2.117,0-4.621-.491-6.033-2.213-1.121-1.37.581-.4,1.508-2.208" transform="translate(388.547 483.145)" fill="none" stroke="#060606" stroke-linecap="round" stroke-width="8"/>
        <path id="Pfad_13" data-name="Pfad 13" d="M132.788,230.088c-1.831.843-5.949,1.514-3.016,2.947" transform="translate(418.744 484.288)" fill="none" stroke="#060606" stroke-linecap="round" stroke-width="8"/>
        <path id="Pfad_14" data-name="Pfad 14" d="M136.164,230.743h10.557" transform="translate(445.53 486.585)" fill="none" stroke="#060606" stroke-linecap="round" stroke-width="8"/>
      </g>
    </g>
    <path id="Pfad_27" data-name="Pfad 27" d="M99.075,36.65a16.55,16.55,0,0,0,2.3.55,18.222,18.222,0,0,0,2.275.4,22.019,22.019,0,0,0,2.575.15q2.3,0,2.3-1.7a1.9,1.9,0,0,0-.7-1.325,21.054,21.054,0,0,0-1.775-1.5q-1.075-.825-2.3-1.825a16.66,16.66,0,0,1-2.3-2.3,12.024,12.024,0,0,1-1.775-2.925,9.339,9.339,0,0,1-.7-3.725,9.614,9.614,0,0,1,.85-4.15,8.345,8.345,0,0,1,2.35-3,10.564,10.564,0,0,1,3.525-1.825,14.589,14.589,0,0,1,4.325-.625,23.149,23.149,0,0,1,2.4.125l2.15.225q1.1.15,2.15.3v9.35q-.4-.05-.9-.1-.4-.05-.9-.1t-1.05-.05q-.3,0-.75.025a4.538,4.538,0,0,0-.85.125,1.734,1.734,0,0,0-.7.35.861.861,0,0,0-.3.7q0,.4.675,1t1.65,1.4q.975.8,2.15,1.85a14.91,14.91,0,0,1,2.15,2.4,14.015,14.015,0,0,1,1.65,3.05,10.218,10.218,0,0,1,.675,3.8,11.978,11.978,0,0,1-.7,4.125,8.764,8.764,0,0,1-2.175,3.35,10.393,10.393,0,0,1-3.775,2.25,16.162,16.162,0,0,1-5.45.825,33.032,33.032,0,0,1-3.525-.175q-1.625-.175-2.875-.425a24.147,24.147,0,0,1-2.65-.6Zm23.4-23h10.65V25h5.95V13.65h10.7V47h-10.7V34.65h-5.95V47h-10.65Zm30.8,0h11.5a19.808,19.808,0,0,1,5.925.85,13.779,13.779,0,0,1,4.725,2.5,11.454,11.454,0,0,1,3.125,4.075,13.11,13.11,0,0,1,1.125,5.575,11.458,11.458,0,0,1-.7,4.25,13.012,13.012,0,0,1-1.55,2.9,10.8,10.8,0,0,1-2.25,2.2l6.25,11h-12.5l-5-8.45V47h-10.65Zm10.65,16.4h.55a5.849,5.849,0,0,0,3.225-.85,3.125,3.125,0,0,0,1.325-2.85A3.125,3.125,0,0,0,167.7,23.5a5.849,5.849,0,0,0-3.225-.85h-.55Zm18.5-16.4h11.3V47h-11.3Zm14.8,0h8.8l8.7,12.8,8.65-12.8h8.8V47h-10.65V35l-6.8,10-6.85-10V47h-10.65Zm64.4,12.7a13.14,13.14,0,0,1-1.2,5.875,10.489,10.489,0,0,1-3.275,3.925,14.05,14.05,0,0,1-4.85,2.2,24.373,24.373,0,0,1-5.975.7V47h-10.65V13.65h10.65a24.373,24.373,0,0,1,5.975.7,14.05,14.05,0,0,1,4.85,2.2,10.489,10.489,0,0,1,3.275,3.925A13.14,13.14,0,0,1,261.625,26.35Zm-15.3,3.7h.45a4.021,4.021,0,0,0,3.025-.975,3.8,3.8,0,0,0,.925-2.725,3.8,3.8,0,0,0-.925-2.725,4.021,4.021,0,0,0-3.025-.975h-.45Zm17.3-3.9h13.2V34.5h-13.2Zm17.6-3.75h-6.15V13.65h23.3V22.4h-6.15V47h-11Zm29.55-8.75,5.65,14.5,5.7-14.5h11.65l-13,33.35h-8.65l-13-33.35Z" transform="translate(707.125 323)"/>
  </g>
</svg>
