<svg width="1164" height="787" viewBox="0 0 1164 787" fill="none" xmlns="http://www.w3.org/2000/svg">
<path d="M58.3761 24.061C67.0701 24.2088 74.2384 22.6692 82.6395 24.3945C88.1219 25.521 91.7959 22.3495 96.6507 22.2049C101.766 22.0498 106.966 22.3803 112.09 22.4614C134.164 22.8277 155.432 20.6905 177.566 21.0578L209.18 21.5822L226.089 21.8627L233.441 21.9876C236.492 22.0395 237.274 19.5611 240.101 19.6071C250.668 19.7868 261.023 18.7094 271.737 18.8866L289.382 19.1796C295.268 19.2796 300.243 17.0475 305.924 16.9601C399.648 15.5775 494.548 16.3556 588.716 17.9184C612.71 18.3163 639.726 16.0978 663.28 20.1253C677.044 22.4789 691.514 22.1157 705.566 22.3446C719.666 22.5783 733.468 24.0533 747.371 24.2836L786.744 24.9369C800.144 25.1597 816.416 29.0694 829.38 25.9218C847.598 21.5062 868.023 22.5536 887.205 22.8797L917.35 23.3801C926.658 23.5384 934.906 20.3576 943.882 20.0851C951.541 19.8522 962.215 19.0624 969.61 20.5815C976.35 21.9654 987.421 23.6911 994.506 22.105C995.797 21.8159 996.363 20.095 997.646 19.8047C999.999 19.2776 1003.23 19.8276 1005.66 19.8689L1020.36 20.1128C1029.61 20.2702 1039.04 20.8835 1048.29 20.5767C1055.33 20.3432 1062.98 18.3257 1070.39 18.4517C1075.94 18.5459 1091.07 22.0182 1092.47 17.5726" stroke="#060606" stroke-width="8.00116" stroke-linecap="round"/>
<path d="M58.3634 29.108C58.0514 34.288 55.4014 40.477 54.2464 45.554C53.1524 50.364 51.5604 56.345 49.9794 60.976C48.0704 66.567 44.8894 72.519 44.8894 78.444C45.0274 83.744 44.5502 89.042 43.4674 94.232C40.8264 105.838 37.3934 116.926 35.1584 128.658C31.6844 146.892 32.3754 165.378 26.6994 183.111C22.4694 196.328 22.1674 210.579 19.5874 224.111C15.8874 243.536 16.6734 263.54 13.8234 283.025C9.26945 314.149 5.81345 345.165 5.81345 377.094C5.81345 416.873 2.89045 457.194 4.46645 497.182C5.07345 512.595 7.16145 529.473 7.16145 545.494C7.21908 560.522 8.92631 575.498 12.2524 590.153C14.5934 600.437 16.5944 613.818 16.5944 624.359C16.5944 638.396 18.7634 651.71 19.2894 665.582C19.7954 678.919 26.0264 693.194 26.0264 706C25.8637 710.999 26.4183 715.996 27.6734 720.838C29.5194 727.146 28.7214 736.529 28.7214 725.079" stroke="#060606" stroke-width="8" stroke-linecap="round"/>
<path d="M1092.32 29.108C1096.45 37.483 1099.13 46.108 1101.93 54.808C1103.68 60.231 1105.62 65.701 1107.62 71.047C1108.79 74.178 1107.75 77.326 1108.36 80.508C1108.89 83.316 1110.84 86.292 1110.95 89.122C1111.22 95.913 1112.28 102.349 1112.28 109.103C1112.28 112.67 1113.16 115.854 1113.68 119.341C1114.18 122.723 1117.46 125.065 1117.6 128.52C1117.91 136.532 1121.6 143.92 1122.92 151.82C1125.01 164.723 1126.34 177.736 1126.91 190.794C1127.17 196.156 1130.27 199.434 1131.94 204.209C1133.14 207.66 1132.64 211.885 1134.23 215.222C1136.41 219.711 1137.54 224.633 1137.56 229.622C1137.56 237.084 1141.37 242.879 1139.55 250.873C1137.01 262.043 1141.55 272.273 1141.55 283.282C1141.55 291.653 1142.88 299.624 1142.88 308.062C1142.88 316.045 1141.12 325.998 1145.54 333.13C1147.48 336.255 1146.31 339.799 1147.91 343.013C1149.4 345.814 1150.43 348.843 1150.94 351.979C1151.95 359.679 1152.75 367.233 1154.56 374.785C1155.62 379.235 1154.31 383.985 1155.15 388.485C1156.22 394.237 1158.24 399.954 1158.77 405.785C1159.64 415.373 1159.12 424.145 1158.85 433.958C1158.26 454.486 1156.18 474.658 1156.18 495.244C1156.18 530.3 1154.85 564.524 1154.85 599.455C1154.85 615.094 1154.62 630.189 1151.16 645.49C1150.13 650.029 1150.97 655.121 1150.86 659.749C1150.72 665.549 1148.94 671.362 1148.27 677.118C1147.42 684.405 1146.97 691.634 1145.24 698.867C1144.19 703.255 1145.08 708.599 1142.88 712.279C1140.28 716.326 1138.9 721.028 1138.88 725.835C1138.88 731.035 1136.22 735.209 1136.22 740.168C1136.22 745.745 1136.72 750.836 1134.89 742.076" stroke="#060606" stroke-width="8" stroke-linecap="round"/>
<path d="M26.9961 730.363C32.1631 730.949 37.6381 733.378 42.2611 735.519C47.3611 737.88 54.6771 736.673 60.2611 738.056C64.3851 739.079 68.5301 741.31 72.6341 742.071C82.9671 743.982 93.3471 743.914 103.647 746.244C116.209 749.088 130.134 744.054 142.695 746.897C169.347 752.936 197.507 755.487 224.888 758.281C251.699 761.012 279.57 764.257 306.679 764.257H343.236C363.852 764.257 382.851 768.457 403.173 771.296C419.065 773.513 434.9 773.702 450.738 775.717C468.451 777.975 484.89 780.467 502.801 780.467C520.96 780.467 538.881 781.941 557.036 781.941C573.336 781.941 591.572 784.241 607.653 781.202C615.653 779.692 624.211 780.467 632.318 780.467C640.218 780.467 647.638 778.151 655.457 777.601C674.541 776.258 694.093 777.52 713.225 777.52C724.925 777.52 735.537 774.573 747.208 774.573C762.276 774.573 777.22 776.047 792.363 776.047C817.576 776.047 842.794 773.1 868.047 773.1C883.425 773.1 899.094 771.626 914.647 771.626C920.388 771.626 924.531 768.679 930.073 768.679H943.089C952.027 768.679 959.621 764.258 968.479 764.258C981.126 764.289 993.736 762.914 1006.08 760.158C1013.82 758.358 1021.98 758.358 1029.94 758.358C1036.39 758.358 1045.34 760.084 1051.55 758.277C1061.73 755.312 1075.42 753.937 1086.34 753.937H1101.53C1103.9 753.937 1107.12 754.518 1109.4 753.856C1111.72 753.18 1111.55 750.99 1114.54 750.99C1117.14 750.99 1127.22 747.484 1128.68 745.095C1131.36 740.728 1139.47 745.023 1137.68 737.727" stroke="#060606" stroke-width="8" stroke-linecap="round"/>
<path d="M111.138 375.5C108.932 411.876 108.501 477 108.5 508.5C108.499 559.883 109 613 111.5 633.5C142.965 639.058 347.636 633.5 409.5 633.5C533.76 637.391 755.902 633.5 789.5 633.5C808.742 633.5 977.788 635.909 1050.5 633.5V514V389V273C1050.5 223.5 1052 154.5 1052 106.5C1039.63 108.279 809.235 106.256 714.84 108.294L474.5 108.294C389.577 106.146 333 107.102 255.5 108.294C178 109.485 112 108.5 112 108.5C112 108.5 113.561 163 113.561 198V257C113.206 287.201 113.775 332 111.138 375.5Z" stroke="black" stroke-width="8" stroke-linejoin="round"/>
<path d="M401.698 702.581C390.346 703.275 389.944 721.968 398.682 726.488C407.42 731.008 421.182 733.306 428.509 724.361C430.188 722.306 428.417 718.642 430.686 716.173C432.531 714.173 431.862 711.153 431.862 708.473C431.862 702.56 431.917 699.383 427.001 695.539C415.169 686.292 408.838 698.419 400.19 704.052" stroke="#060606" stroke-width="8" stroke-linecap="round"/>
<path d="M468.058 712.901C470.991 712.901 475.234 716.556 477.107 712.901" stroke="#060606" stroke-width="8" stroke-linecap="round"/>
<path d="M519.334 717.322C517.217 717.322 514.713 716.831 513.301 715.109C512.18 713.739 513.882 714.709 514.809 712.901" stroke="#060606" stroke-width="8" stroke-linecap="round"/>
<path d="M555.53 714.37C553.699 715.213 549.581 715.884 552.514 717.317" stroke="#060606" stroke-width="8" stroke-linecap="round"/>
<path d="M585.691 717.322H596.248" stroke="#060606" stroke-width="8" stroke-linecap="round"/>
</svg>
