<svg width="1164" height="787" viewBox="0 0 1164 787" fill="none" xmlns="http://www.w3.org/2000/svg">
<path d="M58.3009 24.1049C66.9949 24.2527 74.1632 22.7131 82.5643 24.4384C88.0467 25.5649 91.7207 22.3934 96.5755 22.2489C101.691 22.0938 106.891 22.4242 112.015 22.5054C134.089 22.8716 155.357 20.7345 177.49 21.1017L209.105 21.6261L226.014 21.9066L233.366 22.0316C236.417 22.0835 237.199 19.605 240.026 19.6511C250.593 19.8307 260.947 18.7534 271.662 18.9305L289.307 19.2235C295.193 19.3236 300.168 17.0915 305.849 17.004C399.573 15.6214 494.473 16.3995 588.641 17.9623C612.635 18.3602 639.651 16.1417 663.205 20.1692C676.969 22.5228 691.439 22.1596 705.491 22.3885C719.591 22.6222 733.393 24.0972 747.296 24.3275L786.669 24.9809C800.069 25.2037 816.341 29.1133 829.305 25.9658C847.522 21.5501 867.948 22.5975 887.13 22.9236L917.275 23.4241C926.583 23.5823 934.831 20.4016 943.806 20.129C951.466 19.8961 962.14 19.1063 969.534 20.6254C976.275 22.0094 987.346 23.735 994.431 22.149C995.722 21.8599 996.287 20.139 997.571 19.8487C999.923 19.3215 1003.15 19.8715 1005.58 19.9128L1020.28 20.1567C1029.54 20.3141 1038.96 20.9275 1048.22 20.6207C1055.25 20.3871 1062.91 18.3696 1070.32 18.4956C1075.86 18.5899 1091 22.0622 1092.39 17.6166" stroke="#060606" stroke-width="8.00116" stroke-linecap="round"/>
<path d="M58.2882 29.152C57.9762 34.332 55.3262 40.521 54.1712 45.598C53.0772 50.408 51.4853 56.389 49.9043 61.02C47.9953 66.611 44.8143 72.563 44.8143 78.488C44.9522 83.7879 44.475 89.086 43.3923 94.276C40.7513 105.882 37.3182 116.97 35.0833 128.702C31.6093 146.936 32.3003 165.422 26.6243 183.155C22.3943 196.372 22.0922 210.623 19.5122 224.155C15.8122 243.58 16.5982 263.584 13.7483 283.069C9.19425 314.193 5.73825 345.209 5.73825 377.138C5.73825 416.917 2.81525 457.238 4.39125 497.226C4.99825 512.639 7.08625 529.517 7.08625 545.538C7.14389 560.566 8.85111 575.542 12.1772 590.197C14.5182 600.481 16.5192 613.862 16.5192 624.403C16.5192 638.44 18.6882 651.754 19.2142 665.626C19.7202 678.963 25.9513 693.238 25.9513 706.044C25.7885 711.043 26.3431 716.04 27.5983 720.882C29.4443 727.19 28.6463 736.573 28.6463 725.123" stroke="#060606" stroke-width="8" stroke-linecap="round"/>
<path d="M1092.25 29.152C1096.37 37.527 1099.05 46.152 1101.86 54.852C1103.6 60.275 1105.55 65.745 1107.55 71.091C1108.72 74.222 1107.68 77.37 1108.29 80.552C1108.82 83.36 1110.76 86.336 1110.87 89.166C1111.15 95.957 1112.21 102.393 1112.21 109.147C1112.21 112.714 1113.09 115.898 1113.61 119.385C1114.11 122.767 1117.39 125.109 1117.52 128.564C1117.83 136.576 1121.52 143.964 1122.85 151.864C1124.93 164.766 1126.27 177.78 1126.84 190.838C1127.09 196.2 1130.2 199.478 1131.86 204.253C1133.06 207.704 1132.56 211.929 1134.15 215.266C1136.33 219.755 1137.47 224.677 1137.48 229.666C1137.48 237.128 1141.3 242.923 1139.48 250.917C1136.94 262.087 1141.48 272.317 1141.48 283.326C1141.48 291.697 1142.81 299.668 1142.81 308.106C1142.81 316.089 1141.04 326.042 1145.47 333.174C1147.41 336.299 1146.24 339.843 1147.83 343.057C1149.33 345.858 1150.35 348.887 1150.86 352.023C1151.87 359.723 1152.68 367.277 1154.48 374.829C1155.55 379.279 1154.24 384.029 1155.08 388.529C1156.15 394.281 1158.16 399.998 1158.7 405.829C1159.57 415.417 1159.05 424.189 1158.77 434.002C1158.19 454.53 1156.11 474.702 1156.11 495.288C1156.11 530.344 1154.78 564.568 1154.78 599.499C1154.78 615.138 1154.55 630.233 1151.08 645.534C1150.05 650.073 1150.9 655.165 1150.78 659.793C1150.65 665.593 1148.87 671.406 1148.2 677.162C1147.35 684.449 1146.9 691.678 1145.16 698.911C1144.11 703.299 1145 708.643 1142.8 712.323C1140.21 716.369 1138.82 721.072 1138.81 725.879C1138.81 731.079 1136.15 735.253 1136.15 740.212C1136.15 745.789 1136.65 750.88 1134.82 742.12" stroke="#060606" stroke-width="8" stroke-linecap="round"/>
<path d="M26.9214 730.407C32.0884 730.993 37.5634 733.422 42.1864 735.563C47.2864 737.924 54.6024 736.717 60.1864 738.1C64.3104 739.123 68.4554 741.354 72.5594 742.115C82.8924 744.026 93.2724 743.958 103.572 746.288C116.134 749.132 130.059 744.098 142.62 746.941C169.272 752.98 197.432 755.531 224.813 758.325C251.624 761.056 279.495 764.301 306.604 764.301H343.161C363.777 764.301 382.776 768.501 403.098 771.34C418.99 773.557 434.825 773.746 450.663 775.761C468.376 778.019 484.815 780.511 502.726 780.511C520.885 780.511 538.806 781.985 556.961 781.985C573.261 781.985 591.497 784.285 607.578 781.246C615.578 779.736 624.136 780.511 632.243 780.511C640.143 780.511 647.563 778.195 655.382 777.645C674.466 776.302 694.018 777.564 713.15 777.564C724.85 777.564 735.462 774.617 747.133 774.617C762.201 774.617 777.145 776.091 792.288 776.091C817.501 776.091 842.719 773.144 867.972 773.144C883.35 773.144 899.019 771.67 914.572 771.67C920.313 771.67 924.456 768.723 929.998 768.723H943.014C951.952 768.723 959.546 764.302 968.404 764.302C981.051 764.333 993.662 762.958 1006 760.202C1013.74 758.402 1021.9 758.402 1029.86 758.402C1036.32 758.402 1045.26 760.128 1051.48 758.321C1061.65 755.356 1075.35 753.981 1086.27 753.981H1101.45C1103.83 753.981 1107.04 754.562 1109.33 753.9C1111.65 753.224 1111.48 751.034 1114.47 751.034C1117.06 751.034 1127.14 747.528 1128.61 745.139C1131.29 740.772 1139.4 745.067 1137.61 737.771" stroke="#060606" stroke-width="8" stroke-linecap="round"/>
<path d="M111.062 387.369C105.516 423.387 108.751 479.453 111.062 502.983C116.085 554.121 119.062 605.814 127.595 624.712C159.06 630.271 331.318 630.271 393.181 630.271C517.442 634.162 780.895 630.271 814.493 630.271C833.735 630.271 983.907 627.121 1056.61 624.712C1062.48 592.474 1055.55 560.235 1056.61 543.56C1057.2 534.343 1054.21 473.327 1050.42 409.047C1047.36 357.036 1043.77 302.888 1041.15 272.31C1038.59 228.288 1021.59 139.094 1013.42 100C1001.04 101.779 809.16 106.299 714.765 108.338H476.91C361.183 104.076 129.301 98.1101 127.595 108.338C125.888 118.565 121.195 174.482 119.062 201.163V251.744C118.706 281.945 116.609 351.351 111.062 387.369Z" stroke="black" stroke-width="8" stroke-linejoin="round"/>
<path d="M401.623 702.625C390.271 703.319 389.869 722.012 398.607 726.532C407.345 731.052 421.107 733.35 428.434 724.405C430.113 722.35 428.342 718.686 430.611 716.217C432.456 714.217 431.787 711.197 431.787 708.517C431.787 702.604 431.842 699.427 426.926 695.583C415.094 686.336 408.763 698.463 400.115 704.096" stroke="#060606" stroke-width="8" stroke-linecap="round"/>
<path d="M467.982 712.945C470.915 712.945 475.158 716.6 477.031 712.945" stroke="#060606" stroke-width="8" stroke-linecap="round"/>
<path d="M519.259 717.366C517.142 717.366 514.638 716.875 513.226 715.153C512.105 713.783 513.807 714.753 514.734 712.945" stroke="#060606" stroke-width="8" stroke-linecap="round"/>
<path d="M555.454 714.414C553.623 715.257 549.505 715.928 552.438 717.361" stroke="#060606" stroke-width="8" stroke-linecap="round"/>
<path d="M585.616 717.366H596.173" stroke="#060606" stroke-width="8" stroke-linecap="round"/>
</svg>
