<svg width="267" height="286" viewBox="0 0 267 286" fill="none" xmlns="http://www.w3.org/2000/svg">
<path d="M226.808 62.604C226.117 61.7855 225.311 60.967 224.62 60.1486C223.123 58.5116 220.934 56.29 218.171 53.7176C181.433 19.8088 131.337 21.6796 125.579 21.9135C62.93 25.0705 26.999 75.466 22.9683 81.3123C23.7744 84.3524 25.0412 88.5618 26.999 93.2388C28.2658 96.2789 32.0662 104.932 38.285 113.116C52.5653 131.825 72.2583 138.373 75.2525 139.425C86.0779 142.933 96.0971 143.4 103.928 142.699C144.926 115.923 185.81 89.2633 226.808 62.604Z" fill="white"/>
<path d="M18.723 87.2776C12.9255 97.4537 5.04096 114.063 1.67841 135.819C-2.61173 163.189 2.25817 185.53 5.85261 197.694C10.0268 200.034 15.9402 203.075 23.361 205.648C25.2162 206.233 31.3616 208.338 37.6228 209.391C57.7981 212.666 75.1906 204.479 79.2488 202.49C89.8003 197.227 97.221 190.326 101.975 184.828C100.931 181.319 99.8879 176.757 99.54 171.494C98.9603 162.253 100.584 154.651 102.207 149.738C100.004 149.621 97.6848 149.504 95.3658 149.504C87.945 149.387 65.6827 148.1 46.435 132.31C46.435 132.31 33.3327 121.549 25.3322 105.641C21.8537 98.2725 19.8825 91.9563 18.723 87.2776Z" fill="white"/>
<path d="M104.338 190.059C100.181 194.785 93.2527 201.469 83.2066 207.002C76.1628 210.92 70.1583 212.764 67.6179 213.571C63.4609 214.724 51.9137 217.72 37.0179 215.991C24.2005 214.493 14.5009 210.229 8.61182 207.002C9.53559 208.961 10.9212 211.727 12.7688 215.069C15.7711 220.486 22.9303 233.164 35.1703 245.957C51.4519 263.015 68.6572 271.659 75.0081 274.54C90.7123 281.801 105.031 284.798 115.654 285.95C117.386 284.798 119.696 283.069 122.236 280.764C131.358 272.696 136.208 264.513 137.825 261.747C143.598 251.489 145.446 242.269 146.023 238.811C147.64 229.245 146.947 221.178 146.023 215.876C143.945 215.3 141.751 214.724 139.441 214.032C125.469 209.307 115.077 201.124 108.033 193.978C106.763 192.71 105.493 191.327 104.338 190.059Z" fill="white"/>
<path d="M153.895 217.003C154.355 220.095 154.814 224.446 154.699 229.713C154.584 234.064 153.895 246.66 146.887 260.972C140.797 273.453 132.64 281.469 127.47 285.82C130.457 285.934 134.593 286.049 139.419 285.82C139.419 285.82 152.746 285.247 164.235 282.728C185.835 277.804 206.056 263.263 210.307 260.171C211.456 257.079 212.835 252.957 213.754 247.805C214.214 245.4 215.363 237.957 214.329 229.828C212.49 215.973 204.678 206.125 200.541 201.545C196.405 204.637 190.776 208.186 183.767 211.049C173.657 215.286 165.367 217.003 153.895 217.003Z" fill="white"/>
<path d="M221.626 249.201C228.459 243.147 237.571 233.832 245.603 220.559C253.995 206.587 258.071 193.663 260.109 184.582C259.75 183.417 259.15 181.671 258.071 179.808C257.472 178.876 254.595 173.986 248.48 170.493C242.966 167.466 237.81 167.233 234.334 167.117C228.1 166.884 222.825 168.281 219.348 169.678C219.108 171.076 218.628 173.055 217.909 175.267C216.71 179.109 215.511 183.301 212.754 187.609C211.435 189.705 209.157 192.732 205.561 195.759C206.999 196.923 208.798 198.553 210.716 200.766C211.915 202.163 216.71 207.752 219.947 216.833C221.985 222.655 222.585 227.429 222.825 230.572C223.184 234.298 222.825 241.45 221.626 249.201Z" fill="white"/>
<path d="M219.866 161.917C221.844 161.103 224.637 160.057 228.245 159.476C236.974 158.082 243.957 160.406 246.284 161.219C254.664 164.357 259.552 169.82 261.53 172.26C262.345 169.006 263.043 165.171 263.509 160.755C263.741 158.43 263.858 156.338 263.741 147.854C263.741 142.16 263.625 139.254 263.625 132.978C263.509 121.705 263.625 119.846 263.974 117.057C264.673 112.292 266.069 108.573 267 106.248C266.185 104.621 262.694 98.113 255.246 95.6724C246.517 92.767 237.905 97.1833 233.366 101.948C230.805 104.737 229.525 107.643 229.06 109.038C226.848 115.081 228.129 120.543 228.827 122.519C227.547 121.008 219.516 112.059 206.482 111.711C204.27 111.594 192.865 111.246 185.184 119.73C179.481 125.889 178.899 133.443 178.666 136.697C178.201 142.741 179.598 147.738 180.529 150.527C184.486 149.598 191.701 148.435 200.43 150.411C207.762 152.038 213.232 155.06 216.374 157.268C217.422 158.895 218.585 160.406 219.866 161.917Z" fill="white"/>
<path d="M212.664 61.439C215.129 60.128 218.451 58.2927 222.201 55.7583C226.38 52.9616 228.952 51.1263 231.631 48.1549C235.596 43.7851 237.096 39.6775 237.524 38.5414C237.953 37.3178 239.132 33.7346 238.81 29.0153C238.703 26.5682 238.382 21.7615 234.953 16.6925C230.774 10.4001 224.452 7.34122 221.665 6.03029C213.307 2.0975 205.271 1.8353 201.413 1.9227C180.089 3.84539 158.766 5.7681 137.335 7.6908C125.333 9.26391 109.153 10.3127 90.2935 8.82694C70.6841 7.25382 54.6109 3.49582 42.931 0C42.6095 0 42.1809 0.0873981 41.7523 0.262189C41.6451 0.262189 39.3949 1.04875 39.0734 2.97145C38.9663 3.75801 39.1806 4.45717 39.3949 4.89415C40.0378 5.24373 41.0022 5.7681 42.1809 6.37987C44.2169 7.34122 47.0029 8.47735 51.8249 9.78828C54.8252 10.5748 57.6112 11.0992 66.2908 12.4101C71.97 13.2841 74.756 13.7211 77.0063 13.9833C86.0073 15.1194 93.0795 15.2942 98.7587 15.469C105.938 15.6438 113.439 15.6438 121.69 15.2068C135.406 14.595 142.799 13.3715 156.837 11.8858C165.623 10.9244 178.053 9.7009 193.269 8.65215C195.305 8.38997 198.199 8.12778 201.627 8.21517C204.199 8.30257 208.378 8.47735 213.093 10.0505C215.558 10.837 220.808 12.5849 225.094 17.1295C226.059 18.0909 229.595 22.0236 230.345 27.9665C231.202 34.1716 228.416 38.8036 227.13 40.9884C223.38 47.1935 217.594 50.6893 213.307 53.1364C210.307 54.8843 207.628 56.1078 205.699 56.8944C208.057 58.2927 210.307 59.8658 212.664 61.439Z" fill="white"/>
<path d="M226.808 62.604C226.117 61.7855 225.311 60.967 224.62 60.1486C223.123 58.5116 220.934 56.29 218.171 53.7176C181.433 19.8088 131.337 21.6796 125.579 21.9135C62.93 25.0705 26.999 75.466 22.9683 81.3123C23.7744 84.3524 25.0412 88.5618 26.999 93.2388C28.2658 96.2789 32.0662 104.932 38.285 113.116C52.5653 131.825 72.2583 138.373 75.2525 139.425C86.0779 142.933 96.0971 143.4 103.928 142.699C144.926 115.923 185.81 89.2633 226.808 62.604Z" fill="#D86F6F"/>
<path d="M18.723 87.2776C12.9255 97.4537 5.04096 114.063 1.67841 135.819C-2.61173 163.189 2.25817 185.53 5.85261 197.694C10.0268 200.034 15.9402 203.075 23.361 205.648C25.2162 206.233 31.3616 208.338 37.6228 209.391C57.7981 212.666 75.1906 204.479 79.2488 202.49C89.8002 197.227 97.221 190.326 101.975 184.828C100.931 181.319 99.8879 176.757 99.54 171.494C98.9603 162.253 100.584 154.651 102.207 149.738C100.004 149.621 97.6848 149.504 95.3658 149.504C87.945 149.387 65.6827 148.1 46.435 132.31C46.435 132.31 33.3327 121.549 25.3322 105.641C21.8537 98.2725 19.8825 91.9563 18.723 87.2776Z" fill="#D86F6F"/>
<path d="M104.338 190.059C100.181 194.785 93.2527 201.469 83.2066 207.002C76.1628 210.92 70.1583 212.764 67.6179 213.571C63.4609 214.724 51.9137 217.72 37.0179 215.991C24.2005 214.493 14.5009 210.229 8.61182 207.002C9.53559 208.961 10.9212 211.727 12.7688 215.069C15.7711 220.486 22.9303 233.164 35.1703 245.957C51.4519 263.015 68.6572 271.659 75.0081 274.54C90.7123 281.801 105.031 284.798 115.654 285.95C117.386 284.798 119.696 283.069 122.236 280.764C131.358 272.696 136.208 264.513 137.825 261.747C143.598 251.489 145.446 242.269 146.023 238.811C147.64 229.245 146.947 221.178 146.023 215.876C143.945 215.3 141.751 214.724 139.441 214.032C125.469 209.307 115.077 201.124 108.033 193.978C106.763 192.71 105.493 191.327 104.338 190.059Z" fill="#D86F6F"/>
<path d="M153.895 217.003C154.355 220.095 154.814 224.446 154.699 229.713C154.584 234.064 153.895 246.66 146.887 260.972C140.797 273.453 132.64 281.469 127.47 285.82C130.457 285.934 134.593 286.049 139.419 285.82C139.419 285.82 152.746 285.247 164.235 282.728C185.835 277.804 206.056 263.263 210.307 260.171C211.456 257.079 212.835 252.957 213.754 247.805C214.214 245.4 215.363 237.957 214.329 229.828C212.49 215.973 204.678 206.125 200.541 201.545C196.405 204.637 190.776 208.186 183.767 211.049C173.657 215.286 165.367 217.003 153.895 217.003Z" fill="#D86F6F"/>
<path d="M221.626 249.201C228.459 243.147 237.571 233.832 245.603 220.559C253.995 206.587 258.071 193.663 260.109 184.582C259.75 183.417 259.15 181.671 258.071 179.808C257.472 178.876 254.595 173.986 248.48 170.493C242.966 167.466 237.81 167.233 234.334 167.117C228.1 166.884 222.825 168.281 219.348 169.678C219.108 171.076 218.628 173.055 217.909 175.267C216.71 179.109 215.511 183.301 212.754 187.609C211.435 189.705 209.157 192.732 205.561 195.759C206.999 196.923 208.798 198.553 210.716 200.766C211.915 202.163 216.71 207.752 219.947 216.833C221.985 222.655 222.585 227.429 222.825 230.572C223.184 234.298 222.825 241.45 221.626 249.201Z" fill="#D86F6F"/>
<path d="M219.866 161.917C221.844 161.103 224.637 160.057 228.245 159.476C236.974 158.082 243.957 160.406 246.284 161.219C254.664 164.357 259.552 169.82 261.53 172.26C262.345 169.006 263.043 165.171 263.509 160.755C263.741 158.43 263.858 156.338 263.741 147.854C263.741 142.16 263.625 139.254 263.625 132.978C263.509 121.705 263.625 119.846 263.974 117.057C264.673 112.292 266.069 108.573 267 106.248C266.185 104.621 262.694 98.113 255.246 95.6724C246.517 92.767 237.905 97.1833 233.366 101.948C230.805 104.737 229.525 107.643 229.06 109.038C226.848 115.081 228.129 120.543 228.827 122.519C227.547 121.008 219.516 112.059 206.482 111.711C204.27 111.594 192.865 111.246 185.184 119.73C179.481 125.889 178.899 133.443 178.666 136.697C178.201 142.741 179.598 147.738 180.529 150.527C184.486 149.598 191.701 148.435 200.43 150.411C207.762 152.038 212.754 155.41 215.897 157.618C217.619 158.829 218.585 160.406 219.866 161.917Z" fill="#D86F6F"/>
<path d="M212.664 61.439C215.129 60.128 218.451 58.2927 222.201 55.7583C226.38 52.9616 228.952 51.1263 231.631 48.1549C235.596 43.7851 237.096 39.6775 237.524 38.5414C237.953 37.3178 239.132 33.7346 238.81 29.0153C238.703 26.5682 238.382 21.7615 234.953 16.6925C230.774 10.4001 224.452 7.34122 221.665 6.03029C213.307 2.0975 205.271 1.8353 201.413 1.9227C180.089 3.84539 158.766 5.7681 137.335 7.6908C125.333 9.26391 109.153 10.3127 90.2935 8.82694C70.6841 7.25382 54.6109 3.49582 42.931 0C42.6095 0 42.1809 0.0873981 41.7523 0.262189C41.6451 0.262189 39.3949 1.04875 39.0734 2.97145C38.9663 3.75801 39.1806 4.45717 39.3949 4.89415C40.0378 5.24373 41.0022 5.7681 42.1809 6.37987C44.2169 7.34122 47.0029 8.47735 51.8249 9.78828C54.8252 10.5748 57.6112 11.0992 66.2908 12.4101C71.97 13.2841 74.756 13.7211 77.0063 13.9833C86.0073 15.1194 93.0795 15.2942 98.7587 15.469C105.938 15.6438 113.439 15.6438 121.69 15.2068C135.406 14.595 142.799 13.3715 156.837 11.8858C165.623 10.9244 178.053 9.7009 193.269 8.65215C195.305 8.38997 198.199 8.12778 201.627 8.21517C204.199 8.30257 208.378 8.47735 213.093 10.0505C215.558 10.837 220.808 12.5849 225.094 17.1295C226.059 18.0909 229.595 22.0236 230.345 27.9665C231.202 34.1716 228.416 38.8036 227.13 40.9884C223.38 47.1935 217.594 50.6893 213.307 53.1364C210.307 54.8843 207.628 56.1078 205.699 56.8944C208.057 58.2927 210.307 59.8658 212.664 61.439Z" fill="#D86F6F"/>
</svg>
