<svg width="563" height="1116" viewBox="0 0 563 1116" fill="none" xmlns="http://www.w3.org/2000/svg">
<path d="M169.115 1110.44C226.115 1111.82 377.615 1109.1 433.115 1110.44M169.115 1110.44H433.115M169.115 1110.44C76.1152 1102.44 90.7402 1124.44 32.6152 1076.44C5.36914 1053.94 5.36914 1001.27 5.36914 987.059C5.37036 870.845 5.36914 858.243 5.36914 830.422C5.36914 799.84 8.66732 770.586 8.66732 740.592C8.66732 723.516 11.9655 701.916 11.9655 684.608C11.9655 668.094 11.9655 653.052 11.9655 635.492C11.9655 597.542 11.9655 563.12 11.9655 525.15C11.9655 379.803 8.66732 274.809 8.66732 130.423C8.66732 94.5333 16.137 60.993 28.1152 41.7181C46.7203 11.7796 91.8725 5 119.615 5C181.627 5 228.1 8.38982 289.012 8.38982C323.577 11.7796 421.634 5 435.115 5C533.357 5 547.615 59.941 555.115 130.423C561.115 333.441 551.984 502.31 551.984 698.441C554.401 729.814 555.466 755.667 551.984 806.98C548.503 858.293 551.984 978.441 547.669 1021.31C543.78 1059.94 516.615 1078.94 506.115 1084.94C493.615 1092.08 453.115 1110.44 433.115 1110.44" stroke="black" stroke-width="10" stroke-linecap="round"/>
</svg>
