<svg width="565" height="1117" viewBox="0 0 565 1117" fill="none" xmlns="http://www.w3.org/2000/svg">
<path d="M556.562 756.441C556.562 821.413 551.615 801.884 551.615 840.941C551.615 906.941 551.615 1000.44 549.115 1029.44C543.115 1054.94 524.615 1073.51 509.115 1084.94C493.615 1096.38 452.615 1111.93 435.115 1111.93C404.732 1111.93 351.585 1111.93 320.115 1111.93C261.567 1111.93 172.615 1111.93 91.6152 1108.51C91.6152 1108.51 47.2921 1095.75 29.615 1070.44C11.938 1045.13 5 999.8 5 985.441C5.00125 868.01 5.00021 861.554 5.00021 833.441C5.00021 802.539 8.38497 786.749 8.38497 756.441C8.38497 739.187 8.38497 706.344 8.38497 688.855C8.38497 672.167 8.38497 656.968 8.38497 639.224C8.38497 600.876 8.38497 566.095 8.38497 527.726C8.38497 380.858 11.7699 274.764 11.7699 128.867C11.7699 92.601 18.615 60.9412 36.615 36.3834C53.5535 13.2739 99.6423 5.55554 128.115 5.55554C191.759 5.55554 230.207 5.55554 292.722 5.55554C328.196 8.98086 419.279 5.55557 433.115 5.55557C462.777 5.55557 506.849 9.66186 526.615 34.441C546.381 59.2202 556.562 98.1836 556.562 135.941C556.562 171.885 556.75 201.842 556.75 238.477C556.75 274.897 556.562 303.941 556.562 338.83C556.562 359.319 556.562 383.645 556.562 404.133C556.562 427.746 556.75 452.782 556.75 476.347C556.75 540.054 556.393 603.725 556.562 667.441M556.562 756.441C556.562 746.029 556.654 702.14 556.562 667.441M556.562 756.441V667.441" stroke="black" stroke-width="10" stroke-linecap="round"/>
<path d="M171.115 1110.44C228.115 1111.82 379.615 1109.1 435.115 1110.44M171.115 1110.44H435.115M171.115 1110.44C78.1152 1102.44 92.7402 1124.44 34.6152 1076.44C7.36914 1053.94 7.36914 1001.27 7.36914 987.059C7.37036 870.845 7.36914 858.243 7.36914 830.422C7.36914 799.84 10.6673 770.586 10.6673 740.592C10.6673 723.516 13.9655 701.916 13.9655 684.608C13.9655 668.094 13.9655 653.052 13.9655 635.492C13.9655 597.542 13.9655 563.12 13.9655 525.15C13.9655 379.803 10.6673 274.809 10.6673 130.423C10.6673 94.5333 18.137 60.993 30.1152 41.7181C48.7203 11.7796 93.8725 5 121.615 5C183.627 5 230.1 8.38982 291.012 8.38982C325.577 11.7796 423.634 5 437.115 5C535.357 5 549.615 59.941 557.115 130.423C563.115 333.441 553.984 502.31 553.984 698.441C556.401 729.814 557.466 755.667 553.984 806.98C550.503 858.293 553.984 978.441 549.669 1021.31C545.78 1059.94 518.615 1078.94 508.115 1084.94C495.615 1092.08 455.115 1110.44 435.115 1110.44" stroke="black" stroke-width="10" stroke-linecap="round"/>
<path d="M501.523 554.605C496.853 555.204 490.443 557.671 486.313 562.872C479.702 571.199 482.954 561.449 472.096 556.571C460.464 551.344 448.858 553.083 443.029 566.055C438.134 576.947 442.816 589.514 448.107 599.636C451.656 606.424 474.205 643.059 481.849 635.973C488.261 630.029 496.37 626.497 502.353 619.772C507.662 613.805 513.188 607.713 517.084 600.62C524.627 586.884 525.165 551.577 501.523 554.605Z" stroke="black" stroke-width="10" stroke-linecap="round"/>
<path d="M471.033 785.739C470.418 783.961 468.577 777.895 468.115 775.441L465.487 766.575C456.115 766.575 434.014 760.778 436.309 741.227C437.076 734.697 438.9 728.99 442.523 722.896C450.882 711.283 460.02 703.718 474.044 700.133C484.491 697.462 504.47 693.881 514.29 699.444C523.285 704.539 528.094 714.658 526.873 725.063C525.111 740.075 521.071 751.899 508.713 760.681C504.293 763.821 497.31 766.02 487.819 767.248C482.985 767.025 479.8 772.937 477.155 776.93C476.564 777.514 471.639 787.026 471.033 785.739Z" stroke="black" stroke-width="10" stroke-linecap="round"/>
<path d="M488.345 845.117C487.741 847.079 486.181 861.826 485.67 861.972C465.615 861.972 459.301 865.441 446.115 876.941L442.615 880.941L439.615 885.441L437.115 890.657L435.861 895.237C434.115 902.441 438.032 899.099 441.339 896.127C446.48 891.506 453.398 886.011 459.301 882.643C462.885 880.598 487.454 879.923 487.454 883.788C487.454 885.584 489.208 897.426 490.001 898.417C492.894 902.028 517.614 877.744 523.887 873.484C529.69 869.544 499.62 846.326 492.04 842.319C488.609 840.505 489.45 841.533 488.345 845.117Z" stroke="black" stroke-width="10" stroke-linecap="round"/>
<path d="M206.991 38.02C207.365 20.1536 241.078 31.0517 250.166 28.3379C259.333 25.6005 271.206 27.7768 280.755 27.9767C291.647 28.2046 302.539 28.4325 313.431 28.6604C331.203 29.0323 354.458 20.7629 364.443 41.3148C374.607 62.2385 332.902 59.9664 322.666 59.7522C296.842 59.2118 271.017 58.6714 245.193 58.131C232.118 57.8574 200.448 67.2307 200.954 43.0434C201.082 36.9448 208.389 30.0233 213.769 29.0783C228.805 26.437 243.259 25.9046 258.712 26.228C277.117 26.6131 295.483 28.2849 313.958 28.6715C326.56 28.9352 341.583 30.4552 352.935 36.9256C361.158 41.6132 354.852 45.6771 348.51 49.922C338.56 56.5829 327.61 54.7059 316.45 54.4723C304.408 54.2204 292.492 52.8385 280.507 52.4328C271.462 52.1266 262.648 51.4358 253.653 50.6549C247.51 50.1216 241.01 51.2068 234.951 49.9059C227.726 48.3545 221.466 44.8848 214.684 42.0433C211.427 40.6786 214.253 38.0784 215.076 35.9004C216.527 32.0649 220.602 33.0187 223.978 32.582C236.726 30.9325 251.384 31.2244 264.204 31.4926C276.765 31.7555 289.326 32.0183 301.887 32.2812C312.601 32.5054 323.229 35.0903 333.982 35.5277C338.455 35.7096 350.95 34.9898 347.249 37.7365C345.363 39.1363 340.575 38.7238 338.592 38.8427C329.957 39.3605 321.327 39.1252 312.688 38.9444C294.216 38.5578 275.851 39.1798 257.455 39.076C246.42 39.0138 234.761 41.137 224.623 45.8275C223.401 46.393 216.976 49.0278 216.37 46.5131C215.243 41.836 220.94 43.4617 223.485 43.5149C235.108 43.7581 246.79 43.6606 258.4 44.3171C273.369 45.1636 289.714 48.5451 304.701 45.8581C310.317 44.8513 316.245 45.099 321.93 44.5736C328.397 43.9758 334.478 41.5268 340.856 40.8928C345.644 40.4168 350.06 39.7264 354.983 39.8294C359.866 39.9316 353.238 40.9347 351.86 41.0515C342.994 41.803 334.899 39.4596 326.115 40.8928C323.316 41.3495 321.234 44.7627 318.483 45.5028C308.886 48.0842 299.038 48.9574 289.309 50.6858C275.507 53.1379 262.892 54.639 248.963 54.3476C244.765 54.2597 216.912 57.0603 214.732 52.3438C213.707 50.126 209.314 45.1724 209.255 43.2171C209.083 37.5179 216.956 35.6537 221.539 35.7496C238.41 36.1026 254.857 35.1593 271.831 35.5145C286.413 35.8197 300.994 36.1248 315.575 36.4299C324.733 36.6216 333.884 39.3879 342.729 39.573C346.931 39.661 351.835 39.0058 355.899 40.1347C359.859 41.2346 365.549 43.7932 358.69 45.3429C346.804 48.0286 335.966 43.2938 324.334 43.0504" stroke="black" stroke-width="11" stroke-linecap="round"/>
</svg>
