<svg width="199" height="390" viewBox="0 0 199 390" fill="none" xmlns="http://www.w3.org/2000/svg">
<path d="M4.35319 184.933V34.3804C4.35319 21.7746 5.52978 19.4515 8.74304 12.1355C12.748 3.01684 26.8126 2.2395 36.7095 2.2395C58.8317 2.2395 81.4572 3.43012 103.187 3.43012C115.518 4.62074 163.679 2.2395 168.488 2.2395C173.412 2.2395 179.503 0.884426 183.195 4.62074C185.04 6.48764 187.084 6.87899 188.817 8.45718C190.55 10.0352 191.312 12.6202 193.197 14.1457C199.413 19.1779 196.138 38.8629 196.138 46.2924C196.138 58.7863 194.961 71.6579 194.961 84.3922C194.961 97.0515 194.896 107.147 194.896 119.274V141.973C194.896 150.181 194.961 158.883 194.961 167.074C194.961 180.78 195.675 194.491 194.961 208.217C194.581 215.536 194.961 222.975 194.961 230.309C194.961 237.536 196.138 245.69 196.138 253.198C196.138 264.371 197.38 266.046 196.138 284.068C194.896 302.091 196.46 352.035 194.896 357.573C191.883 368.245 188.681 377.198 177.901 382.047C173.024 384.24 168.543 388 163.193 388C156.273 388 150.179 385.619 143.191 385.619C132.63 385.619 122.362 386.809 111.423 386.809C105.87 386.809 101.028 385.619 95.5392 385.619C91.0344 385.619 84.3391 382.721 80.2435 385.023C77.1696 385.023 20.0655 386.926 17.7157 385.023C17.7157 385.023 11.6742 382.3 5.52978 373.502C4.46184 368.639 2 352.162 2 347.171C2.00032 317.358 2.00017 306.959 2.00007 299.711L2 292.155C2 281.414 3.17659 271.139 3.17659 260.604C3.17659 254.606 4.35319 247.02 4.35319 240.94V223.689V184.933Z" stroke="black" stroke-width="3" stroke-linecap="round"/>
<path d="M6.29285 184.038V35.0449C6.29285 22.5697 7.43928 20.2706 10.5701 13.0305C14.4724 4.0063 28.1764 3.23702 37.8195 3.23702C59.3745 3.23702 81.4198 4.4153 102.593 4.4153C114.607 5.59358 161.533 3.23702 166.219 3.23702C171.017 3.23702 176.952 1.89599 180.549 5.59358C182.347 7.44113 184.338 7.82843 186.027 9.39026C187.715 10.9519 189.164 14.4903 191 16C197.057 20.9801 193.16 39.4809 193.16 46.8334C193.16 59.1978 192.014 71.9361 192.014 84.5384C192.014 97.0665 191.95 107.057 191.95 119.059V141.523C191.95 149.645 192.014 158.257 192.014 166.363C192.014 179.928 192.709 193.497 192.014 207.08C191.643 214.323 192.014 221.685 192.014 228.943C192.014 236.096 193.16 244.165 193.16 251.595C194 262.5 195.21 264.164 194 282C192.79 299.836 194.024 351.019 192.5 356.5L192.439 356.718C189.535 367.167 187.432 374.735 177 379.5C172.248 381.671 168.212 385.5 163 385.5C156.257 385.5 148.38 382.643 141.571 382.643C131.281 382.643 121.276 383.822 110.618 383.822C105.207 383.822 100.489 382.643 95.1408 382.643C90.7514 382.643 84.2278 379.776 80.2373 382.054C77.2422 382.054 20.663 383.937 18.3734 382.054C18.3734 382.054 12.4869 379.359 6.5 370.652C5.45944 365.84 4 349.534 4 344.594C4.00031 315.09 4.00017 304.799 4.00007 297.626L4 290.148C4 279.518 5.14643 269.35 5.14643 258.924C5.14643 252.989 6.29285 245.481 6.29285 239.464V222.392V184.038Z" stroke="black" stroke-width="3" stroke-linecap="round"/>
<path d="M51 2.44214C52.7487 2.44214 52.4769 3.7973 53.7842 4.18613C55.0822 4.57221 55.9585 5.42411 57.1583 5.97926C58.9231 6.79581 59.9328 8.73205 61.4054 9.95851C61.9047 10.3743 62.4269 11.4887 62.9863 12.071C63.9008 13.023 65.3772 13.4415 66.6199 13.8395C69.2956 14.6966 71.8719 14.6625 74.7838 14.822C85.3619 15.4016 96.0586 14.3799 106.849 14.3799C117.044 14.3799 127.366 13.9378 137.429 13.9378C139.656 13.9378 141.067 13.2695 142.643 11.6288C144.324 9.87849 146.478 9.22924 148.164 7.64956C150.114 5.82272 151.616 5.92917 153.5 4.18613C155.04 2.7615 156.5 2.44214 159 2.44214" stroke="black" stroke-width="3" stroke-linecap="round"/>
<path d="M57 3.37988C61.6068 3.37988 66.4433 4.29978 71.0671 4.29978C73.7581 4.29978 76.5103 5.10794 79.2213 5.21969C80.4299 5.26951 81.4777 6.1396 82.75 6.1396C84.4222 6.1396 86.2799 5.88725 87.9 6.36958C94.7765 8.41672 102.623 7.97942 109.788 7.97942C117.262 7.97942 124.661 7.05951 132.2 7.05951C134.311 7.05951 136.431 7.12233 138.542 7.05951C140.148 7.0117 141.547 6.1396 143.167 6.1396C144.761 6.1396 147.185 6.09249 148.746 5.57743C150.296 5.06647 153.073 4.75974 149.795 4.75974C145.536 4.75974 141.24 4.29978 137.04 4.29978C129.501 4.29978 122.122 3.37988 114.532 3.37988C108.11 3.37988 101.873 3.16953 95.625 4.65753C93.7171 5.11194 91.6212 4.73732 89.7121 5.3219C88.5252 5.68534 86.9879 6.10287 85.7542 6.1396C83.5862 6.20414 81.4323 5.9305 79.3167 6.49734C77.7425 6.91911 76.1299 7.51946 74.5005 7.51946C71.1389 7.51946 67.7502 7.381 64.3912 7.51946C63.4116 7.55984 62.7481 8.50413 61.7208 8.43937C60.6478 8.37172 61.189 6.60349 60.6479 6.1396C59.2937 4.97854 62.2748 5.75253 62.5553 5.88407C64.0495 6.58468 66.0555 5.9608 67.5146 6.82953C69.2551 7.86587 75.5684 6.59955 69.8512 6.59955C68.1793 6.59955 66.6838 7.05951 65.035 7.05951C62.9924 7.05951 69.12 7.05951 71.1625 7.05951C73.7971 7.05951 77.0216 7.26668 79.4836 8.43937C79.9409 8.6572 78.6894 9.1224 78.2199 9.30817C76.3934 10.031 74.5023 10.6537 72.5931 11.0713C71.4656 11.3179 70.2572 11.1991 69.1121 11.1991C68.1686 11.1991 67.1508 10.7391 68.6829 10.7391C70.8063 10.7391 72.946 9.97529 75.0727 10.2792M75.0727 10.2792C77.2029 10.5836 70.832 11.1991 68.6829 11.1991C68.2719 11.1991 64.8439 10.5799 65.6787 9.46149C66.5042 8.35563 69.9426 8.69964 71.0671 8.54158M75.0727 10.2792C74.582 11.2141 71.1926 8.75517 71.0671 8.54158M75.0727 10.2792C75.7015 9.08116 78.3666 10.5993 79.8651 9.81923M71.0671 8.54158C72.1409 8.39065 76.0813 8.43937 72.7838 8.43937C70.6698 8.43937 68.5557 8.43937 66.4417 8.43937C64.5837 8.43937 66.9855 9.35928 67.7769 9.35928C70.0646 9.35928 72.3136 9.81923 74.572 9.81923C77.2388 9.81923 73.2676 12.2164 72.5931 12.3745C70.1954 12.9366 67.1921 12.119 64.7489 12.119C62.9386 12.119 67.2559 11.2354 67.8246 11.0969C69.825 10.6096 75.3312 8.36674 73.8806 9.92144C72.7125 11.1733 69.3007 11.1991 67.7292 11.1991C65.5895 11.1991 63.8043 7.86709 66.4417 7.05951C71.1095 5.63019 63.6972 8.27028 63.4614 9.15485C63.1126 10.4631 65.0331 11.1138 65.7979 11.4291C66.1918 11.5914 68.9614 12.119 67.3 12.119C63.4807 12.119 62.6719 9.69787 61.2917 6.36958C59.8798 2.96508 64.5962 8.70874 63.5329 7.97942C61.8317 6.81259 60.4346 5.008 58.7167 3.94204C57.0664 2.91806 58.2748 5.36445 58.7167 6.03739C61.1623 9.76206 68.8346 4.74145 71.0671 8.54158ZM79.8651 9.81923C81.8319 8.79538 75.4714 14.1946 77.6 13.8566C80.1339 13.4543 82.7375 12.579 85.3012 12.579C86.1155 12.579 88.9645 12.579 86.4218 12.579C82.5348 12.579 78.7202 12.3938 74.8581 11.889C73.3676 11.6942 68.898 11.1991 70.3996 11.1991C74.1905 11.1991 77.9815 11.1991 81.7725 11.1991C87.0441 11.1991 92.1163 11.8585 97.294 12.7834C98.2051 12.9461 103.521 13.3404 99.9167 12.3745C95.6337 11.227 90.8478 10.7391 86.4456 10.7391C85.3284 10.7391 83.7422 10.4317 82.6547 10.7647C81.6679 11.0668 84.6803 11.1991 85.7065 11.1991C90.5756 11.1991 95.7068 10.7133 100.537 11.4035C103.809 11.8711 107.274 12.8862 110.551 13.0389C120.127 13.4852 91.4299 11.1991 81.844 11.1991C80.477 11.1991 84.5782 11.2267 85.9449 11.1991C89.6837 11.1235 93.3101 9.96861 97.0079 9.46149C104.146 8.4826 111.137 8.43937 118.323 8.43937C131.15 8.43937 92.6916 9.81923 79.8651 9.81923ZM79.8651 9.81923C77.2742 9.81923 78.9237 9.39012 80.4611 8.89932C83.8541 7.81616 87.4592 7.19013 90.9519 6.62511C99.7271 5.20552 108.762 4.75974 117.632 4.75974C119.205 4.75974 120.779 4.75974 122.353 4.75974C124.177 4.75974 118.733 5.26328 116.917 5.44967C105.839 6.58635 94.6477 6.68808 83.5368 7.28948C81.1615 7.41806 77.7494 8.35929 75.4065 7.90276C73.6608 7.56258 78.7327 6.54361 80.4611 6.11405C90.6322 3.58634 100.67 2.91992 111.099 2.91992C115.212 2.91992 119.326 3.01774 123.426 3.40543C124.773 3.53285 127.976 3.70801 128.981 4.96416C129.144 5.16759 125.987 5.8701 125.786 5.90962C120.655 6.91963 115.406 7.45111 110.217 7.97942C106.42 8.36598 102.519 8.55612 98.7723 9.35928C96.3779 9.8725 100.915 9.11957 101.395 9.00154C108.673 7.21256 116.025 6.97086 123.426 6.49734C125.916 6.33799 128.365 6.10134 130.864 6.1396C131.052 6.14247 133.327 6.4301 132.152 7.05951C127.445 9.58171 121.007 9.99153 115.891 10.7391C114.771 10.9028 106.53 12.081 111.695 11.3013C117.109 10.4841 122.323 9.21735 127.813 8.79711C130.215 8.61323 132.602 8.38438 135.013 8.43937M135.013 8.43937C136.813 8.48042 134.806 9.48739 134.155 9.71702C131.385 10.694 128.26 10.8724 125.381 11.1991C120.06 11.8029 114.717 12.3483 109.382 12.7834C107.147 12.9656 100.473 13.3413 102.659 12.8089C105 12.2386 107.447 11.8998 109.811 11.4291C117.534 9.89202 124.919 9.35928 132.772 9.35928C134.139 9.35928 136.467 9.04501 137.731 9.81923C138.185 10.0972 136.76 10.2468 136.253 10.3814C134.715 10.7893 133.162 11.1275 131.604 11.4291C127.45 12.2329 114.96 14.4068 119.158 13.9333C120.926 13.7338 122.483 12.8423 124.189 12.3745C126.313 11.792 128.5 11.6575 130.674 11.4291C131.339 11.3591 139.102 10.4255 139.376 11.4546C139.713 12.7167 124.376 15.9716 135.013 8.43937ZM135.013 8.43937C135.679 7.9678 144.789 8.83226 144.789 8.54158C144.789 8.23517 140.675 9.61495 140.258 9.71702C138.61 10.1208 138.49 9.07608 138.542 7.62167C138.601 5.95973 141.381 5.15238 142.571 4.75974C143.954 4.30383 140.999 6.17244 140.521 6.36958C137.977 7.41827 142.422 5.79376 143.096 5.65409C144.198 5.4255 152.116 5.66994 149 4" stroke="black" stroke-width="3" stroke-linecap="round"/>
<path d="M90.3232 13.9099C90.2363 13.3521 84.0282 12.268 88.8037 13.7411C90.2886 14.1992 92.31 13.9099 93.8998 13.9099C94.5649 13.9099 91.7232 13.9099 91.1647 13.9099" stroke="black" stroke-width="3" stroke-linecap="round"/>
<path d="M164.835 220.196C165.545 220.612 166.039 221.607 166.812 222.054C166.812 223.238 166.97 223.219 167.867 222.502C168.542 221.962 169.373 221.625 170.129 221.194C171.859 220.206 173.963 218.791 175.388 217.408C177.381 215.475 179.452 213.504 180.983 211.144C182.33 209.069 183.998 206.308 183.998 203.779C183.998 202.725 184.045 201.803 183.696 200.819C183.236 199.519 182.28 198.743 181.653 197.584C180.473 195.403 179.186 194.665 176.762 194.796C175.127 194.885 172.651 196.069 171.871 197.584C171.35 198.595 171.033 199.048 171.033 200.217C171.033 200.79 170.724 199.264 170.497 198.823C169.734 197.343 167.94 195.5 166.51 194.728C165.176 194.006 161.902 192.112 160.413 193.489C159.785 194.07 158.43 194.115 158.068 194.951C157.705 195.792 156.656 196.417 156.192 197.274C155.356 198.82 154.555 201.062 155.288 202.85C156.086 204.798 156.237 207.056 157.097 209.045C157.935 210.982 158.595 213.053 159.509 214.93C160.301 216.559 160.951 218.183 162.591 219.026C163.342 219.411 164.086 219.756 164.835 220.196Z" stroke="black" stroke-width="3" stroke-linecap="round"/>
<path d="M162.028 276.958C162.276 275.827 163.468 279.058 163.554 279.459C163.765 280.438 164.562 282.15 164.591 283.041C164.654 284.947 166.725 279.685 166.956 279.445C168.19 278.162 168.663 275.225 171.134 275.451C173.499 275.667 175.899 273.995 177.812 272.769C178.853 272.102 179.893 271.572 180.83 270.792C181.661 270.101 181.85 269.207 182.513 268.498C183.979 266.932 185.447 263.884 185.641 261.766C185.756 260.514 186.245 259.429 186.364 258.128C186.519 256.431 185.77 254.878 185.622 253.208C185.406 250.775 182.904 248.969 181.053 247.982C178.328 246.529 175.619 247.788 172.905 247.54C169.857 247.262 167.728 247.877 164.917 248.673C159.329 250.256 155.428 253.965 152.194 258.709C150.667 260.949 150.445 262.918 150.205 265.545C149.934 268.502 151.827 269.836 152.697 272.401C153.234 273.983 156.825 275.703 158.425 275.849C159.921 275.986 160.828 275.289 162.169 275.411C163.401 275.524 165.257 275.909 164.244 274.041" stroke="black" stroke-width="3" stroke-linecap="round"/>
<path d="M164.635 265.499C163.856 265.428 161.359 265.618 161.229 264.603C161.054 263.24 160.929 262.089 162.824 261.846C163.599 261.747 166.04 262.259 166.007 263.285C165.973 264.332 163.875 265.275 164.003 263.882" stroke="black" stroke-width="3" stroke-linecap="round"/>
<path d="M170.016 262.092C169.719 263.446 168.538 260.728 168.646 260.017C168.809 258.938 171.043 260.176 171.411 260.573C172.482 261.731 172.806 262.597 171.077 263.272C169.33 263.955 169.526 263.186 169.664 261.67" stroke="black" stroke-width="3" stroke-linecap="round"/>
<path d="M175.183 261.005C173.997 257.741 178.94 258.292 178.734 260.55C178.476 263.37 175.437 262.492 175.676 259.88" stroke="black" stroke-width="3" stroke-linecap="round"/>
<path d="M153.086 322.893C153.086 322.325 152.795 320.499 153.285 320.107C153.756 319.731 154.526 318.158 154.702 317.543C154.86 316.988 155.776 316.303 156.274 316.039C157.271 315.512 157.665 314.383 158.665 313.829C160.846 312.619 161.691 310.954 164.443 310.954C165.35 310.954 166.829 310.802 167.632 310.358C168.485 309.884 169.504 310.392 170.399 310.136C170.576 310.086 171.119 304.96 171.329 304.278C171.713 303.032 171.42 302.675 172.613 303.305C173.399 303.721 174.254 304.479 174.916 305.074C176.31 306.327 178.324 307.631 179.963 308.567C180.436 308.836 183.129 311.197 183.351 311.971C183.566 312.724 184.472 313.602 183.683 314.138C182.637 314.848 181.691 315.787 180.583 316.437C178.869 317.444 177.908 319.659 176 320.505C174.985 320.956 172.666 323.755 171.905 322.804C171.506 322.308 171.851 320.734 171.816 320.107C171.763 319.156 171.019 318.752 171.019 317.72C171.019 316.376 162.479 316.611 161.233 317.322C159.707 318.192 158.588 319.702 157.071 320.594C156.416 320.978 155.507 321.543 154.99 322.008C153.84 323.041 153.311 323.273 153.086 321.699" stroke="black" stroke-width="3" stroke-linecap="round"/>
<path d="M55.5116 373.909C63.1599 374.21 72.379 375.084 79.9088 373.626C83.4668 372.937 88.7617 373.545 92.4925 373.545C96.8332 373.545 101.056 373.182 105.494 373.182C109.424 373.182 113.367 373.778 117.05 374.293C121.016 374.848 125.329 374.636 129.473 374.636C133.312 374.636 137.51 374.273 141.03 374.273C141.894 374.273 145.863 373.545 144.786 373.545C142.656 373.545 140.527 373.545 138.398 373.545C129.6 373.545 121.136 373.182 112.395 373.182C104.03 373.182 95.3282 373.909 87.0032 373.909C83.0645 373.909 79.1905 374.636 75.4467 374.636C73.3688 374.636 71.5238 375 69.3795 375C67.0382 375 65.2299 374.427 63.0234 374.273C61.3875 374.158 58.394 373.866 56.9562 373.364C54.4941 372.503 51.9638 372.455 56.5389 372.455C60.9279 372.455 65.3987 372.091 69.6684 372.091C77.5877 372.091 85.9746 371.364 93.9371 371.364C102.926 371.364 112.346 371.364 121.384 371.364C125.429 371.364 129.473 371.364 133.518 371.364C136.335 371.364 143.286 370.574 144.786 372.273C146.851 374.613 133.323 372.649 132.074 372.475C127.752 371.87 122.321 371.727 117.789 371.727C114.293 371.727 110.864 371 107.227 371C104.006 371 100.785 371 97.5646 371C92.5753 371 87.4829 371.364 82.6374 371.364C77.4504 371.364 72.4236 372.818 67.325 372.818C65.6327 372.818 62.4671 373.171 61.1615 373.828C60.4668 374.178 58.9795 374.273 61.0331 374.273C63.1231 374.273 65.024 373.981 67.0682 373.909C71.1489 373.766 75.0566 372.818 79.1704 372.818C82.6316 372.818 87.1301 372.04 90.5665 371.646C97.5144 370.851 105.109 371.364 112.171 371.364C114.865 371.364 117.661 372.028 120.357 372.091C123.098 372.155 125.863 372.091 128.607 372.091C130.012 372.091 130.795 372.818 132.106 372.818C133.347 372.818 134.588 372.818 135.83 372.818C137.56 372.818 141.976 373.37 140.452 372.091" stroke="black" stroke-width="3" stroke-linecap="round"/>
<path d="M19 220C21.344 220 23.0315 216.982 25.3274 216.842C27.0619 216.736 30.0289 214.436 31.6549 213.544C36.2602 211.016 44.0138 210.151 49.2311 211.193C60.2814 213.399 71.2195 214.644 82.53 212.386C88.1379 211.266 93.5889 212.421 99.2434 212.421C105.954 212.421 111.881 209.263 118.385 209.263C121.979 209.263 149 211.885 149 208" stroke="black" stroke-width="3" stroke-linecap="round"/>
<path d="M109 225C109.682 224.488 110.114 224.221 111 224" stroke="black" stroke-width="3" stroke-linecap="round"/>
<path d="M75 226H76" stroke="black" stroke-width="3" stroke-linecap="round"/>
<path d="M17 268C17 265.099 18.4987 259.376 21.2813 257.811C22.8658 256.92 23.8038 255.149 25.0513 253.849C26.6144 252.22 28.5094 251.4 30.2272 249.887C33.8209 246.722 38.0272 244.948 42.3042 242.843C47.0426 240.511 53.5736 238.566 58.8541 238.566C61.5732 238.566 64.0796 238 66.7776 238C69.7598 238 72.2405 239.132 75.1165 239.132C77.9341 239.132 80.0226 239.028 82.5608 240.138C84.1022 240.813 87.7905 241.003 88.759 242.528C90.2122 244.817 95.9849 247.435 98.6634 248.189C100.279 248.643 105.259 252.682 104.989 252.151" stroke="black" stroke-width="3" stroke-linecap="round"/>
<path d="M47.2812 238C47.2812 236.905 43.3244 229.12 45.8331 229.005C50.3098 228.8 48.7293 235.019 48.7293 237.438" stroke="black" stroke-width="3" stroke-linecap="round"/>
<path d="M104 253.744C100.044 253.744 94.9119 254.559 91.3175 253.033C89.105 252.094 84.482 252 82.0939 252C78.9303 252 72.8703 261.965 72.8703 265.078C72.8703 266.425 65.6452 263.49 64.7676 262.753C63.2704 261.495 57.5456 262.462 55.576 262.462C50.5251 262.462 44.2909 266.994 42.3171 271.472C41.691 272.892 40.6787 274.179 40.5876 275.831C40.4925 277.558 38.8384 276.993 37.417 276.993C34.1626 276.993 31.7354 276.727 28.7378 275.863C26.697 275.275 21.1623 277.211 19.5463 278.479C17.3748 280.182 15.3567 280.669 13.3651 282.677C12.6945 283.353 11.7449 284.013 11.2194 284.808C10.5251 285.858 11.6944 282.322 11.7638 281.062C11.9167 278.288 13.0153 273.908 14.358 271.472C15.8138 268.829 16.3438 265.658 16.9841 262.753C17.7026 259.493 20.51 257.712 22.7169 255.487" stroke="black" stroke-width="3" stroke-linecap="round"/>
<path d="M49 241C45.3739 241.4 40.4601 246.375 38.3114 249.002C36.7459 250.916 33.6006 252.534 33.4004 255.219C33.2392 257.38 31.6968 258.838 31.0894 260.798C30.1887 263.706 28.3624 266.065 28.2005 269.119C28.1378 270.303 27.9088 272.969 27.3339 273.997C26.8317 274.895 27.045 277.477 27.045 274.858" stroke="black" stroke-width="3" stroke-linecap="round"/>
<path d="M52 238.973C52 235.854 49.3728 241.173 48.9437 241.843C47.2563 244.476 44.8269 247.203 44.6649 250.386C44.4948 253.73 42.4532 261.012 46.4987 263" stroke="black" stroke-width="3" stroke-linecap="round"/>
<path d="M50 239.74C53.072 237.879 52.4974 239.894 55.2401 241.774C57.5192 243.336 59.7817 244.838 60.9677 247.712C62.038 250.306 63.9927 251.606 64.6846 254.504C65.1957 256.644 67 258.904 67 261" stroke="black" stroke-width="3" stroke-linecap="round"/>
<path d="M57 239C64.0027 241.494 71.0745 243.728 78.2479 245.369C81.5622 246.127 83.6336 247.687 86.7342 248.914C88.15 249.474 92.092 252 88.5847 252" stroke="black" stroke-width="3" stroke-linecap="round"/>
<path d="M54 266C55.4795 267.782 55.843 271.281 56.5608 273.586C57.758 277.431 60.5078 280.957 62.0396 284.646C63.0909 287.178 63.9727 289.67 65.2555 292.073C65.8451 293.177 67.4796 297.311 66.8634 296.981" stroke="black" stroke-width="3" stroke-linecap="round"/>
<path d="M131 303.298C132.133 302.597 131.995 303.257 131.995 304" stroke="black" stroke-width="3" stroke-linecap="round"/>
<path d="M13 153C17.6126 149.074 26.4376 148.362 32.421 150.125C36.6553 151.372 43.0583 150.247 47.4978 150.247C51.9059 150.247 56.3139 150.247 60.722 150.247C63.4549 150.247 66.4951 149.848 69.3464 149.697C72.411 149.534 74.8629 146.724 77.9709 146.393C81.2818 146.041 82.5345 143.442 85.4454 146.393C87.7078 148.687 91.3906 150.247 94.6448 150.247C99.3757 150.247 103.82 150.252 108.444 149.269C112.543 148.396 116.972 146.858 121.093 146.393C122.511 146.234 123.095 145.201 124.287 146.669C125.457 148.109 127.01 148.221 128.695 148.718C131.896 149.661 135.682 149.697 139.045 149.697C140.097 149.697 142.834 150.255 143.517 151.073C144.183 151.871 147.766 151.348 148.819 151.348C152.035 151.348 155.25 151.348 158.466 151.348C161.74 151.348 164.997 150.798 168.368 150.798C169.954 150.798 171.541 150.798 173.127 150.798C175.124 150.798 175.96 149.697 173.415 149.697" stroke="black" stroke-width="3" stroke-linecap="round"/>
<path d="M31 171C32.4575 169.655 35.0516 168.957 36.7706 167.809C39.7322 165.833 42.9847 164.041 45.6461 161.623C46.4886 160.858 49.495 157 50.4758 157C51.0345 157 50.6763 162.28 50.8835 162.926C53.2558 170.314 68.5527 168.384 73.9032 168.037C79.4746 167.676 85.4597 165.245 90.8387 163.674C92.2688 163.257 100.403 158.626 101 159.865" stroke="black" stroke-width="3" stroke-linecap="round"/>
<path d="M107.314 156.65C106.215 162.443 119.938 166.697 124.099 167.432C129.567 168.397 135.139 166.874 140.499 165.868C141.733 165.637 148.13 164.394 146.801 164.142" stroke="black" stroke-width="3" stroke-linecap="round"/>
<path d="M90 192.048C93.0875 194.809 101.198 185.231 104.159 184.128C105.941 183.464 105.861 186.761 106.571 187.896C107.824 189.898 109.352 192.14 111.714 192.751C117.898 194.35 121.627 187.741 127.143 187.449C133.115 187.133 141.556 188.471 146 184" stroke="black" stroke-width="3" stroke-linecap="round"/>
<path d="M20 190.405C22.0189 189.967 26.0263 185.934 27.076 184.194C29.465 180.233 29.2632 187.301 29.2632 188.429C29.2632 193.966 34.8996 194.272 39.3947 194.922C41.7623 195.264 52.4245 197.167 53 194.922" stroke="black" stroke-width="3" stroke-linecap="round"/>
<path d="M31.7105 40.9769C33.141 39.6695 34.3684 37.3786 36.2215 36.6362C38.8932 35.5658 41.6753 34.6146 44.6023 34.9598C51.5873 35.7837 57.8556 37.6545 60.6673 44.7349C62.9806 50.5604 64.2224 59.1985 58.691 63.6885C54.33 67.2285 49.8564 69.1563 44.2936 68.5002C43.6617 68.4257 43.4169 69.082 42.7348 69.0016C42.0775 68.9241 41.4201 68.8465 40.7628 68.769C39.5028 68.6204 38.2429 68.4718 36.983 68.3232C36.49 68.265 35.9969 68.2069 35.5039 68.1487C34.6777 68.0513 34.8176 67.4857 34.2689 67.3178C33.2607 67.0094 32.3184 66.0599 31.2661 65.9358C29.1368 65.6847 28.2933 63.0105 27.4333 61.5436C26.458 59.8798 25.4705 57.1515 25.7039 55.1725C25.9434 53.1425 25.8805 50.8501 26.1325 48.7132C26.4008 46.439 27.7546 44.9239 28.4751 42.8224C28.8895 41.6136 30.89 40.0672 32.0741 39.3067C34.3601 37.8386 37.1605 36.1378 39.9078 36.4619" stroke="black" stroke-width="3" stroke-linecap="round"/>
<path d="M70.8496 34.8242C77.1745 33.2569 83.0312 29.735 89.3872 28.0058C91.3388 27.4749 99.9192 26.6892 100.555 24.635" stroke="black" stroke-width="3" stroke-linecap="round"/>
<path d="M76 52.0212C76.5906 54.2502 84.3261 53.7241 86.101 53.7998C91.008 54.009 95.9253 53.8477 100.802 53.8414" stroke="black" stroke-width="3" stroke-linecap="round"/>
<path d="M68.5801 71C72.5932 73.6922 77.8115 75.4866 81.1782 79.1372C83.4443 81.5943 86.0549 86.6431 89.594 87.0605" stroke="black" stroke-width="3" stroke-linecap="round"/>
<path d="M49.5957 79C49.2936 81.5616 51.0671 84.3695 50.7596 86.9769C50.543 88.8132 50.5018 91.0765 52.1515 93.0208" stroke="black" stroke-width="3" stroke-linecap="round"/>
<path d="M29.2449 77.6438C30.8767 78.2134 21.4562 96.7538 20.9998 100.623" stroke="black" stroke-width="3" stroke-linecap="round"/>
<path d="M72.5007 290.408C75.9781 290.408 76.6927 288.301 79.6898 286.977C82.2939 285.827 84.3997 284.348 86.4316 282.53C89.5583 279.733 92.8946 275.68 96.6561 273.701C99.4742 272.217 99.447 273.303 101.545 274.971C103.323 276.386 104.948 277.822 107.008 278.846C108.765 279.719 110.83 281.325 112.504 281.8C114.434 282.348 116.655 282.282 118.511 283.102C120.301 283.893 124.239 283.896 124.869 286.088C125.519 288.35 123.647 289.604 121.387 290.852C119.249 292.033 116.964 293.441 114.773 294.41C112.58 295.379 111.391 297.443 109.309 298.539C104.996 300.808 100.89 303.489 96.6561 305.717C93.0098 307.636 90.437 312.145 87.1665 314.674C83.1725 317.762 78.7418 319.803 74.5137 322.138C70.879 324.146 67.9214 326.426 63.5863 326.426C61.3996 326.426 59.8592 331 58.1225 331C57.5025 331 55.2721 325.88 54.3842 324.997C51.1279 321.76 47.6313 319.569 44.0319 316.707C43.2687 316.1 42.7767 315.254 41.7314 315.023C41.1906 314.904 38.785 315.094 39.0155 314.865C40.8709 313.02 43.1373 311.472 45.1822 309.846C47.3237 308.143 49.3126 306.078 51.3488 304.256C52.7813 302.974 55.3872 300.001 57.2599 299.587C66.8036 297.479 73.0337 289.571 81.7028 285.262" stroke="black" stroke-width="3" stroke-linecap="round"/>
<path d="M50.2446 312.615C49.7718 313.141 47.6125 314.383 48.0609 313.884C49.1027 312.726 50.8102 311.253 52.1071 310.33C55.0648 308.226 58.0611 306.034 60.6492 303.476C62.2335 301.911 65.8366 299.178 68.1637 298.907C69.4669 298.756 74.85 295.075 75.6781 294.052C76.9353 292.499 82.0534 291.221 84.0596 290.34C86.6784 289.19 88.6404 287.118 91.0282 285.77C92.9178 284.703 95.704 283.168 97.0654 281.487C97.6705 280.739 102.077 277.868 98.7996 279.487" stroke="black" stroke-width="3" stroke-linecap="round"/>
<path d="M106 282C105.878 283.916 101.455 286.763 99.9352 287.983C98.1266 289.435 95.8322 291.263 93.8059 292.542C92.4495 293.397 90.7322 295.315 89.7412 296.53C88.4207 298.15 86.4895 298.461 84.8055 299.379C81.4293 301.22 77.6103 302.806 74.5146 305.236C73.9815 305.654 71.6772 307.578 71.1596 307.642C69.8971 307.797 68.2042 310.619 69.4176 307.642" stroke="black" stroke-width="3" stroke-linecap="round"/>
<path d="M114 288C110.971 290.838 106.923 292.39 103.535 294.77C100.671 296.782 95.7378 298.271 93.6512 301.094C92.2157 303.036 90.1455 304.203 88.4186 305.82C86.5958 307.528 83.0663 308.386 82.0233 310.707C81.0339 312.908 77.1353 313.955 75.3372 315.337C74.3646 316.085 72.9247 318.122 71.8165 318.435C70.7011 318.75 67.5978 319.625 66.907 320.479C66.1473 321.418 64 322.852 64 321.341" stroke="black" stroke-width="3" stroke-linecap="round"/>
<path d="M65 310.119C65 307.076 60.7477 311.095 60.2 312.093C58.9595 314.352 58.4075 316.803 57 319" stroke="black" stroke-width="3" stroke-linecap="round"/>
<path d="M129 238H128" stroke="black" stroke-width="3" stroke-linecap="round"/>
<path d="M143 227V226" stroke="black" stroke-width="3" stroke-linecap="round"/>
<path d="M165 236C166.208 236.543 166.453 236.71 165 237" stroke="black" stroke-width="3" stroke-linecap="round"/>
<path d="M132 218C131.557 217.707 129 215.577 129 216.075" stroke="black" stroke-width="3" stroke-linecap="round"/>
<path d="M133 254H132" stroke="black" stroke-width="3" stroke-linecap="round"/>
<path d="M147 289C146.446 289.069 146.362 289.277 146 290" stroke="black" stroke-width="3" stroke-linecap="round"/>
<path d="M126 326.999C125.346 326.999 125.264 327.057 125 326" stroke="black" stroke-width="3" stroke-linecap="round"/>
<path d="M17.8499 313.608C17.5466 313.338 16.5442 313 17.2421 313" stroke="black" stroke-width="3" stroke-linecap="round"/>
<path d="M33.23 296.223C33.8985 295.596 34.0007 295.615 34.4455 295.615" stroke="black" stroke-width="3" stroke-linecap="round"/>
<path d="M26 227.608C26.07 227.048 26.1973 227.205 26.6078 227" stroke="black" stroke-width="3" stroke-linecap="round"/>
<path d="M174 207C173.943 207.91 171.673 210.648 170.667 210.918C168.523 211.494 168.233 208.88 168 207.564" stroke="black" stroke-width="3" stroke-linecap="round"/>
<path d="M158.708 200.282C157.038 202.046 157 203.068 157 200.411C157 199.892 157.569 197.759 157.569 199.128C157.569 200.212 156.716 201.385 157.443 199.256C157.726 198.427 159.244 195.942 160.099 197.428C160.708 198.486 159.242 200.298 159.024 199.93C158.585 199.187 161.024 197.237 161.427 198.23C161.945 199.504 155.221 206.882 159.245 200.25C159.965 199.065 162.06 195.812 162.06 197.203C162.06 198.597 160.765 200.262 160.131 201.405C157.277 206.55 161.261 194.715 162.566 196.37C163.359 197.375 160.974 200.815 160.289 201.565C158.483 203.543 159.302 201.693 160.162 200.571C160.537 200.083 162.748 197.797 161.807 199.705C161.34 200.652 159.53 202.945 159.53 201.886C159.53 200.635 161.153 199.687 161.997 199.128C162.763 198.62 164.4 196.852 164.4 197.781C164.4 199.988 160.625 204.822 159.309 206.825C158.031 208.769 163.916 198.79 163.135 200.988C162.507 202.758 161.465 204.389 160.415 205.927C159.043 207.938 158.895 207.303 160.194 205.478C161.511 203.628 163.545 202.07 165.254 200.603C167.7 198.504 167.191 200.144 165.981 202.143C164.668 204.313 162.571 205.799 161.68 208.236C160.803 210.639 163.41 206.027 163.831 205.478C164.909 204.073 166.384 202.711 167.246 201.18C168.142 199.592 165.44 204.349 164.527 205.927C163.51 207.684 160.348 212.694 161.933 211.444C163.771 209.994 164.393 207.519 165.855 205.767C166.172 205.387 169.46 201.789 169.46 202.656C169.46 204.393 167.002 207.517 166.108 208.942C165.414 210.048 164.61 213.683 163.546 214.33C161.349 215.667 165.283 209.391 166.677 207.21C168.077 205.019 169.721 202.023 171.8 200.411C174.884 198.019 172.353 203.194 171.8 204.035C169.87 206.971 168.091 210.078 166.108 212.951C163.551 216.656 165.984 212.749 166.93 211.123C168.538 208.361 170.162 204.896 172.37 202.592C174.904 199.945 174.962 201.828 173.508 204.356C171.731 207.445 170.014 210.663 168.385 213.849C166.069 218.379 169.975 211.749 170.662 210.674C172.252 208.185 173.554 205.52 175.342 203.169C178.093 199.553 177.06 202.679 175.785 205.157C173.9 208.821 171.827 212.35 170.124 216.126C169.649 217.181 170.098 219.398 168.954 219.398C168.671 219.398 169.476 215.905 169.523 215.741C170.582 212.102 172.905 208.865 174.963 205.735C175.102 205.523 177.569 201.859 177.493 203.875C177.415 205.927 174.974 209.778 173.951 211.508C173.485 212.295 169.785 219.244 170.978 215.613C171.511 213.991 172.925 212.527 173.951 211.251C174.149 211.004 179.201 204.77 178.315 207.467C177.588 209.678 175.673 211.572 174.52 213.56C174.345 213.863 179.706 206.694 179.706 206.953C179.706 208.633 176.787 210.721 175.817 211.828C175.281 212.44 172.88 216.326 172.939 214.843C173.028 212.593 174.825 211.391 176.228 209.968C176.562 209.629 180.276 205.149 180.276 206.376C180.276 209.048 174.599 213.14 178.188 208.044C179.095 206.757 180.298 205.841 181.351 204.773C181.69 204.428 180.699 204.837 180.655 204.837C180.165 204.837 180.339 203.754 180.339 203.458C180.339 201.34 179.598 200.851 177.746 200.315C175.362 199.624 179.045 196.448 175.785 198.102C174.912 198.544 174.137 199.002 173.382 199.577C172.629 200.149 174.678 198.148 175.5 197.685C177.375 196.628 178.667 197.753 179.896 199C181.083 200.204 181.541 201.727 182.173 203.169C183.22 205.558 183.635 206.123 181.193 207.499C179.436 208.489 176.918 208.787 175.342 210.225C173.904 211.538 173.098 212.562 171.547 213.849C166.599 217.955 164.969 206.341 164.969 203.169C164.969 200.965 165.059 199.705 167.531 199.705C170.324 199.705 165.128 195.905 164.4 195.536C160.283 193.448 165.518 198.083 166.677 198.839C167.752 199.54 168.806 200.326 169.808 201.116C170.466 201.636 170.946 203.037 169.966 202.143C167.761 200.13 164.633 198.99 162.692 196.53C161.323 194.794 158.846 197.576 158.012 198.422C156.934 199.515 157.492 203.415 157.569 204.901C157.706 207.531 160.275 208.864 161.807 210.417C163.13 211.759 164.053 213.465 165.412 214.843C165.894 215.331 166.486 215.838 166.804 216.447C167.702 218.169 168.113 216.922 166.709 216.447C164.839 215.815 163.139 212.406 160.985 212.406C158.561 212.406 162.321 216.151 162.977 216.447C163.698 216.772 165.155 218.564 164.938 217.794C164.493 216.216 163.029 215.016 162.123 213.689C161.809 213.228 159.779 210.646 159.846 212.277C159.894 213.448 162.083 214.467 162.692 215.549C163.016 216.124 166.373 219.122 166.993 219.301C167.536 219.458 168.352 220.353 168.701 219.847C169.575 218.58 169.834 217.861 171.231 217.152C173.302 216.102 174.928 214.503 176.354 212.694C177.734 210.945 179.188 210.808 176.923 212.983C175.234 214.606 172.025 215.922 170.946 217.89C169.678 220.205 173.321 216.594 174.077 215.87C176.696 213.361 180.464 209.266 182.047 206.055" stroke="black" stroke-width="3" stroke-linecap="round"/>
<path d="M176 201C175.225 201 174.65 201 174 201" stroke="black" stroke-width="3" stroke-linecap="round"/>
<path d="M174 201.52C174.549 202.055 175.177 202.934 175.988 202.319C176.246 202.123 177.077 200.813 176.714 201.52C176.2 202.52 174.122 205.215 175.451 202.626C176.431 200.719 177.408 200.121 177.408 202.872C177.408 205.427 177.436 203.566 179.112 202.749C180.685 201.983 180.546 204.742 179.68 205.269C178.934 205.723 179.28 208.318 179.995 207.82C182.582 206.021 179.386 207.086 179.143 207.912C179.052 208.224 178.421 207.605 176.84 207.605" stroke="black" stroke-width="3" stroke-linecap="round"/>
<path d="M158 205.476C158 202.959 159.49 211.204 162 212" stroke="black" stroke-width="3" stroke-linecap="round"/>
</svg>
