<svg width="563" height="1098" viewBox="0 0 563 1098" fill="none" xmlns="http://www.w3.org/2000/svg">
<path d="M554.562 744.267C554.562 808.187 549.615 788.974 549.615 827.398C549.615 892.329 549 976.97 546.5 1005.5C543.652 1038 522.5 1062.69 514.5 1068.5C506.5 1074.31 474.5 1094 433.115 1094C402.732 1094 349.585 1094 318.115 1094C259.567 1094 179 1093.87 98 1090.5C98 1090.5 52.1771 1078.4 34.5 1053.5C16.8229 1028.6 3 983.683 3 969.557C3.00125 854.029 3.00021 847.677 3.00021 820.019C3.00021 789.618 6.38497 774.084 6.38497 744.267C6.38497 727.292 6.38497 694.982 6.38497 677.775C6.38497 661.359 6.38497 646.405 6.38497 628.949C6.38497 591.223 6.38497 557.004 6.38497 519.258C6.38497 374.769 9.76994 270.394 9.76994 126.86C9.76994 91.1817 16.615 60.0349 34.615 35.8749C51.5535 13.1398 97.6423 5.54651 126.115 5.54651C189.759 5.54651 228.207 5.54651 290.722 5.54651C326.196 8.91633 417.279 5.54653 431.115 5.54653C460.777 5.54653 504.849 9.5863 524.615 33.964C544.381 58.3418 554.562 96.6739 554.562 133.82C554.562 169.181 554.75 198.653 554.75 234.695C554.75 270.524 554.562 299.098 554.562 333.422C554.562 353.579 554.562 377.51 554.562 397.667C554.562 420.897 554.75 445.527 554.75 468.71C554.75 531.386 554.393 594.025 554.562 656.709M554.562 744.267C554.562 734.024 554.654 690.845 554.562 656.709M554.562 744.267V656.709" stroke="black" stroke-width="6" stroke-linecap="round"/>
<path d="M169.115 1092.53C226.115 1093.89 377.615 1091.21 433.115 1092.53M169.115 1092.53H433.115M169.115 1092.53C79.5 1090.4 67 1086 38.5 1058.5C13.2381 1034.12 5.36914 994.5 5.36914 971.149C5.37036 856.818 5.36914 844.42 5.36914 817.049C5.36914 786.963 8.66732 758.183 8.66732 728.674C8.66732 711.876 11.9655 690.626 11.9655 673.598C11.9655 657.351 11.9655 642.553 11.9655 625.278C11.9655 587.942 11.9655 554.078 11.9655 516.723C11.9655 373.731 8.66732 270.438 8.66732 128.391C8.66732 93.0827 18.0217 63.4626 30 44.5C48.6051 15.0466 89.4119 9.55899 117 8.33494C195.885 4.83491 228.1 8.33491 289.012 8.33491C333.5 8.33494 421.634 5 435.115 5C533.357 5 547.615 59.0509 555.115 128.391C561.115 328.12 551.984 494.253 551.984 687.207C551.984 728.674 551.984 737.5 551.984 793.987C551.984 850.474 549.11 987.046 548 1000.5C545.237 1034 527 1054.06 512 1067C497 1079.94 474.5 1092.53 433.115 1092.53" stroke="black" stroke-width="10" stroke-linecap="round"/>
<path d="M493.221 632.557C490.009 632.962 485.6 634.631 482.76 638.15C478.213 643.784 480.45 637.188 472.983 633.887C464.983 630.351 457.001 631.527 452.992 640.304C449.626 647.673 452.846 656.176 456.485 663.024C458.926 667.617 474.433 692.404 479.69 687.61C484.1 683.588 489.677 681.198 493.792 676.648C497.443 672.611 501.243 668.489 503.922 663.69C509.11 654.396 509.48 630.508 493.221 632.557Z" stroke="white" stroke-width="6" stroke-linecap="round"/>
<path d="M472.251 788.938C471.828 787.736 470.562 783.632 470.244 781.971L468.437 775.973C461.992 775.973 446.792 772.051 448.371 758.823C448.898 754.405 450.152 750.543 452.644 746.42C458.393 738.563 464.678 733.445 474.323 731.019C481.507 729.211 495.248 726.789 502.001 730.552C508.187 733.999 511.494 740.845 510.654 747.885C509.442 758.042 506.664 766.042 498.165 771.984C495.125 774.109 490.322 775.597 483.795 776.427C480.471 776.277 478.28 780.277 476.461 782.979C476.055 783.373 472.667 789.809 472.251 788.938Z" stroke="white" stroke-width="6" stroke-linecap="round"/>
<path d="M484.379 828.901C483.965 830.252 482.898 840.41 482.549 840.51C468.833 840.51 464.515 842.899 455.498 850.82L453.104 853.575L451.052 856.674L449.343 860.267L448.485 863.421C447.291 868.383 449.969 866.081 452.231 864.034C455.747 860.852 460.478 857.067 464.515 854.747C466.966 853.338 483.769 852.874 483.769 855.536C483.769 856.773 484.968 864.929 485.511 865.611C487.49 868.098 504.396 851.373 508.685 848.439C512.654 845.725 492.089 829.734 486.905 826.974C484.559 825.725 485.134 826.433 484.379 828.901Z" stroke="white" stroke-width="6" stroke-linecap="round"/>
<path d="M204.991 37.4851C205.365 19.9081 239.078 30.6297 248.166 27.9598C257.333 25.2668 269.206 27.4079 278.755 27.6044C289.647 27.8287 300.539 28.0529 311.431 28.2771C329.203 28.643 352.458 20.5075 362.443 40.7265C372.607 61.3112 330.902 59.0759 320.666 58.8652C294.842 58.3335 269.017 57.8019 243.193 57.2702C230.118 57.0011 198.448 66.2225 198.954 42.4271C199.082 36.4273 206.389 29.6179 211.769 28.6882C226.805 26.0898 241.259 25.5659 256.712 25.8841C275.117 26.263 293.483 27.9076 311.958 28.288C324.56 28.5474 339.583 30.0428 350.935 36.4084C359.158 41.02 352.852 45.0181 346.51 49.1942C336.56 55.7472 325.61 53.9006 314.45 53.6709C302.408 53.423 290.492 52.0635 278.507 51.6643C269.462 51.3631 260.648 50.6835 251.653 49.9153C245.51 49.3906 239.01 50.4582 232.951 49.1784C225.726 47.6522 219.466 44.2387 212.684 41.4432C209.427 40.1006 212.253 37.5426 213.076 35.3998C214.527 31.6265 218.602 32.5648 221.978 32.1352C234.726 30.5124 249.384 30.7995 262.204 31.0634C274.765 31.322 287.326 31.5806 299.887 31.8392C310.601 32.0598 321.229 34.6028 331.982 35.0331C336.455 35.2121 348.95 34.5039 345.249 37.2061C343.363 38.5833 338.575 38.1775 336.592 38.2945C327.957 38.8039 319.327 38.5723 310.688 38.3945C292.216 38.0142 273.851 38.626 255.455 38.524C244.42 38.4628 232.761 40.5515 222.623 45.1661C221.401 45.7224 214.976 48.3145 214.37 45.8406C213.243 41.2392 218.94 42.8386 221.485 42.891C233.108 43.1302 244.79 43.0343 256.4 43.6801C271.369 44.5129 287.714 47.8396 302.701 45.1962C308.317 44.2057 314.245 44.4494 319.93 43.9325C326.397 43.3444 332.478 40.935 338.856 40.3113C343.644 39.8431 348.06 39.1639 352.983 39.2652C357.866 39.3657 351.238 40.3525 349.86 40.4675C340.994 41.2067 332.899 38.9014 324.115 40.3113C321.316 40.7607 319.234 44.1185 316.483 44.8467C306.886 47.3863 297.038 48.2453 287.309 49.9457C273.507 52.358 260.892 53.8349 246.963 53.5481C242.765 53.4617 214.912 56.2169 212.732 51.5768C211.707 49.3949 207.314 44.5215 207.255 42.598C207.083 36.9911 214.956 35.1571 219.539 35.2514C236.41 35.5988 252.857 34.6708 269.831 35.0202C284.413 35.3204 298.994 35.6206 313.575 35.9208C322.733 36.1093 331.884 38.8308 340.729 39.0129C344.931 39.0994 349.835 38.4549 353.899 39.5655C357.859 40.6476 363.549 43.1647 356.69 44.6893C344.804 47.3315 333.966 42.6734 322.334 42.434" stroke="black" stroke-width="11" stroke-linecap="round"/>
</svg>
