<svg width="338" height="386" viewBox="0 0 338 386" fill="none" xmlns="http://www.w3.org/2000/svg">
<path d="M93.8498 103.525C89.1651 103.987 84.3263 115.386 83.0337 119.366C81.1822 125.067 82.155 132.565 84.5914 138.019C90.6092 151.489 110.623 157.443 123.801 159.632C146.935 163.475 169.184 157.109 163.207 130.258C159.661 114.327 146.844 101.598 130.034 100.867C123.733 100.592 117.321 100.532 111.113 100.025C105.763 99.5884 96.6597 104.798 92.505 101.39" stroke="black" stroke-width="3" stroke-linecap="round"/>
<path d="M163.611 126.69C165.194 119.72 178.97 124.69 183.938 125.818" stroke="black" stroke-width="3" stroke-linecap="round"/>
<path d="M194.773 126.449C188.281 130.283 175.46 141.603 184.793 149.8C192.96 156.973 202.704 163.018 213.364 165.439C219.747 166.889 241.621 166.811 246.758 161.639C250.239 158.134 252.35 143.166 252.116 138.051C251.904 133.426 248.754 129.528 248.177 124.958C247.618 120.52 237.096 112.275 232.876 111.316C225.489 109.638 215.165 105.494 207.821 109.285C202.295 112.138 198.529 118.125 193.349 120.636C192.41 121.091 184.714 133.27 190.898 127.399" stroke="black" stroke-width="3" stroke-linecap="round"/>
<path d="M207.508 134.832C206.323 136.056 199.237 146.778 197.948 146.486C192.246 145.19 206.121 138.047 210.821 134.568C222.171 126.167 196.049 149.998 210.453 142.007C221.704 135.764 203.662 150.53 215.018 142.942C215.912 142.344 223.219 138.166 222.729 140.322C222.481 141.415 220.676 149.36 221.587 145.349" stroke="black" stroke-width="3" stroke-linecap="round"/>
<path d="M120.033 133.26C121.061 130.011 112.597 147.649 117.748 138.841C118.181 138.102 125.545 128.755 125.916 130.632C126.259 132.372 122.826 137.959 123.276 138.673C124.456 140.547 127.298 134.926 129.3 135.874C130.713 136.542 128.952 141.793 129.068 141.819C130.967 142.25 132.088 137.332 135.25 139.665C139.795 143.019 141.765 141.02 146.133 139.189" stroke="black" stroke-width="3" stroke-linecap="round"/>
<path d="M131.897 218.834C139.097 215.785 140.801 207.021 146.967 203.138C152.293 199.783 152.348 207.632 156.676 207.652C159.69 207.666 160.444 202.638 164.424 206.536C166.639 208.706 166.95 212.121 167.014 215.104C167.051 216.798 168.94 232.338 171.955 228.662" stroke="black" stroke-width="3" stroke-linecap="round"/>
<path d="M135.364 219.622C137.369 219.026 139.063 218.975 141.116 218.376C142.599 217.944 144.535 216.799 146.174 216.973C147.737 217.14 148.328 215.426 150.255 216.483C151.789 217.324 151.635 219.091 154.179 218.468C155.996 218.023 159.193 216.27 159.379 219.649C159.461 221.139 160.335 222.499 160.794 223.94C161.477 226.083 168.807 231.498 170.253 229.734" stroke="black" stroke-width="3" stroke-linecap="round"/>
<path d="M141.069 220.189C145.169 221.12 146.845 223.693 149.953 226.015C152.434 227.868 157.618 228.89 159.474 225.828" stroke="black" stroke-width="3" stroke-linecap="round"/>
<path d="M149.952 184.291C148.073 184.105 143.565 189.502 145.959 190.635C149.424 192.275 151.938 189.594 155.345 192.646C158.173 195.179 161.74 196.082 165.588 195.702C169.498 195.316 171.442 198.6 174.45 200.024C177.55 201.491 182.459 199.381 181.595 195.854" stroke="black" stroke-width="3" stroke-linecap="round"/>
<path d="M204.987 256.582C213.429 248.344 217.385 234.245 222.283 223.77C223.391 221.4 224.737 217.89 226.262 215.884C227.731 213.951 230.369 213.576 232.188 212.085C235.853 209.083 237.981 210.781 239.735 214.529C240.556 216.284 240.3 218.473 239.438 220.294C239.001 221.218 237.839 221.365 237.538 222.415C237.229 223.495 237.128 224.495 236.483 225.456C234.749 228.043 235.032 231.679 233.506 234.461C232.201 236.84 231.963 240.371 231.966 243.023C231.97 245.726 230.922 247.025 229.316 248.984C227.602 251.073 227.608 254.077 226.043 256.261C222.918 260.621 218.483 265.527 217.062 270.829C216.59 272.591 211.262 277.694 214.602 278.452C219.742 279.62 220.513 276.383 223.172 272.824C226.545 268.309 231.525 265.662 235.495 261.729C238.965 258.291 241.839 253.976 245.31 250.794C249.383 247.061 251.628 239.48 256.528 236.896C259.888 235.124 261.875 233.159 265.604 232.071C268.444 231.243 273.807 232.875 273.027 236.309C272 240.832 269.719 246.275 266.639 249.806C264.775 251.943 263.521 254.648 261.526 256.624C258.163 259.956 254.37 262.479 251.293 266.006C244.29 274.035 238.147 283.232 228.974 289.009C225.528 291.179 222.187 293.038 219.611 295.631C217.658 297.598 216.864 300.084 213.844 301.046C209.119 302.551 204.571 307.397 202.693 311.799C200.784 316.272 207.906 319.222 211.36 320.006C215.408 320.926 222.601 314.75 224.54 311.739C225.11 310.854 228.3 307.52 229.339 308.09C231.405 309.223 225.253 316.026 224.455 317.107C222.251 320.093 219.592 324.801 220.536 328.653C221.87 334.099 229.969 330.568 233.107 328.592C239.475 324.582 241.502 318.992 246.058 313.305C247.773 311.166 251.266 304.337 249.24 301.795C246.627 298.514 239.455 301.314 236.578 302.969C234.937 303.913 232.001 305.232 230.24 305.904C228.993 306.38 228.71 307.753 230.333 307.1C231.655 306.569 232.957 305.562 234.144 304.766C236.031 303.501 238.162 298.15 237.306 295.843C236.331 293.221 234.305 290.949 231.59 290.332C230.279 290.034 227.912 290.017 227.587 288.694" stroke="black" stroke-width="3" stroke-linecap="round"/>
<path d="M203.978 257.811C203.568 259.62 202.424 259.79 201.755 261.357C201.019 263.083 200.528 265.011 199.734 266.691C198.118 270.103 193.861 272.284 190.302 271.475C185.164 270.308 185.54 260.575 183.5 256.481C182.182 253.836 177.009 252.104 174.747 250.078C169.146 245.061 156.954 246.938 158.06 256.131C158.795 262.245 162.349 263.667 167.736 264.891C170.3 265.473 172.706 270.295 172.134 272.817C171.76 274.462 172.881 275.945 172.497 277.639C172.275 278.613 171.091 281.492 171.583 282.373C173.705 286.172 172.413 288.321 171.392 292.132C170.192 296.611 168.612 301.159 167.548 305.842C166.314 311.278 166.849 316.06 167.046 321.607C167.291 328.523 171.633 331.636 177.199 334.688C182.543 337.619 190.115 339.421 196.109 340.604C201.089 341.587 207.321 338.759 212.052 337.825C214.31 337.38 222.195 334.29 220.911 330.926" stroke="black" stroke-width="3" stroke-linecap="round"/>
<path d="M98.8068 67.5215C100.101 62.6899 105.389 58.5529 108.89 55.2292C114.827 49.5936 122.079 45.6392 128.279 40.3113C132.684 36.5266 136.919 33.5576 142.578 31.9334C148.282 30.2964 142.694 35.7873 146.487 38.0873C149.404 39.8564 158.224 36.6655 161.39 35.9634C165.164 35.1263 169.028 34.7647 172.805 33.8575C175.828 33.1317 180.887 31.3865 183.619 34.0454C185.684 36.0558 183.266 39.6235 184.49 41.9802C185.643 44.2017 191.82 41.2345 193.176 40.8341C198.789 39.1765 205.152 39.0025 210.984 38.7625C214.359 38.6236 219.927 38.2019 221.018 42.3786C221.984 46.0745 221.089 49.2354 226.135 49.455C231.965 49.7088 237.59 47.2722 243.395 47.2994C247.692 47.3196 252.226 48.5386 256.037 50.495C259.156 52.0966 260.638 54.5047 264.424 54.5876C270.735 54.7259 276.417 51.7912 282.58 51.3393C290.99 50.7227 302.497 50.8677 310.353 54.0832C314.652 55.843 319.106 57.9151 323.338 59.8683C326.219 61.1981 329.69 62.0236 331.963 64.339C333.016 65.4117 333.716 66.2946 334.107 67.7424C334.308 68.4899 335.434 68.7732 334.797 68.6283C332.945 68.2077 332.049 71.0933 331.693 72.6627C331.144 75.0773 326.873 78.3791 330.433 78.2096C332.612 78.1058 333.271 77.844 331.692 79.2652C329.627 81.1234 329.127 84.0183 326.797 86.0119C325.487 87.1328 325.495 89.2335 324.469 90.9111C323.357 92.729 321.729 94.2451 320.982 96.2762C320.555 97.437 320.841 99.2799 320.149 100.3C318.18 103.201 312.917 104.583 311.399 107.791C307.581 115.858 300.286 125.023 292.667 129.623C289.4 131.596 285.719 133.294 281.893 133.9C280.174 134.172 277.024 134.386 276.812 132.017C276.547 129.074 275.188 127.997 273.766 125.451C270.598 119.78 265.639 114.716 263.017 108.751C259.646 101.082 255.765 102.945 248.923 100C246.16 98.8107 243.364 96.8004 240.659 95.3682C237.276 93.5771 234.037 92.6794 230.454 91.43C221.352 88.2555 211.427 87.27 201.991 85.1267C191.687 82.786 181.522 80.1675 171.341 77.3949C161.292 74.6582 150.489 69.9093 139.9 70.2936C129.906 70.6562 120.35 70.9569 110.562 68.7335C107.179 67.9651 96.8105 67.0681 100.193 67.8365" stroke="black" stroke-width="3" stroke-linecap="round"/>
<path d="M278.121 136.845C278.48 135.262 277.246 140.026 276.36 141.387C274.37 144.441 272.762 147.767 271.241 151.08C267.352 159.556 264.903 168.787 262.966 177.88C261.26 185.895 262.86 193.955 262.588 202.018C262.391 207.836 261.948 213.172 259.049 218.308C256.862 222.184 254.382 226.032 252.422 230.008C249.939 235.043 246.236 238.721 243.028 243.187C241.06 245.927 239.359 250.057 236.628 252.103C233.679 254.312 231.272 256.718 227.927 258.309C225.567 259.431 222.114 264.639 223.487 258.597" stroke="black" stroke-width="3" stroke-linecap="round"/>
<path d="M271.473 156.48C273.696 151.751 281.061 149.305 283.577 155.624C284.928 159.018 281.54 166.731 280.74 170.252C280.018 173.434 279.601 176.919 278.488 179.988C277.392 183.014 275.197 185.024 274.417 188.461C273.395 192.961 276.116 197.871 273.07 202.414C271.726 204.42 271.839 206.132 270.152 207.949C268.354 209.886 266.063 210.562 263.506 210.814" stroke="black" stroke-width="3" stroke-linecap="round"/>
<path d="M103.439 64.4214C104.537 61.141 107.525 58.4405 109.615 55.7784C113.257 51.1373 116.76 47.0049 121.932 43.9935C126.863 41.1231 131.623 41.0071 136.72 39.1699C138.594 38.4943 133.459 41.3552 133.376 41.4079C125.231 46.594 117.21 52.0572 110.687 59.2625C109.733 60.3162 104.843 67.9414 105.662 67.114C112.09 60.623 118.852 56.906 127.33 53.4021C134.037 50.6296 141.993 48.6518 148.227 44.8624C149.389 44.1563 140.165 47.6814 139.309 48.1025C130.61 52.3798 119.523 55.8864 112.291 62.5434C110.411 64.2741 113.886 63.1634 113.98 63.1298C117.933 61.7283 121.733 59.7328 125.551 58.0211C136.345 53.1821 146.648 47.9254 157.006 42.2385C157.48 41.9783 167.324 36.7677 164.793 38.9845C154.617 47.898 141.111 52.8071 129.13 58.672C126.479 59.97 118.582 63.2558 121.534 63.2252C125.997 63.1788 132.146 59.5784 136.249 58.1827C148.422 54.042 160.826 50.562 172.943 46.2637C183.905 42.3746 165.868 50.3028 164.789 50.7714C150.463 56.9926 134.407 61.8674 121.438 70.7784C119.307 72.2427 126.304 69.0232 128.701 68.0532C136.583 64.8633 144.577 62.4883 152.828 60.4499C165.733 57.262 178.539 53.3968 191.459 50.348C200.186 48.2885 175.17 57.8556 166.946 61.4287C162.389 63.4083 149.073 69.5686 153.976 68.7716C163.474 67.2279 173.135 62.4557 182.056 59.1087C185.554 57.7964 189.04 56.4543 192.55 55.1733C195.357 54.1487 198.164 53.1211 201.005 52.1923C202.455 51.718 203.927 50.6282 205.415 50.9662C206.432 51.1972 203.674 52.1264 202.738 52.586C200.022 53.9197 197.235 55.1049 194.472 56.3391C188.344 59.0772 180.32 62.457 174.24 65.5161C172.367 66.4589 170.511 67.453 168.759 68.6053C166.302 70.2206 166.597 70.6846 169.155 70.0725C175.491 68.5558 181.71 65.5274 187.739 63.1543C195.58 60.0682 203.411 56.959 211.216 53.7826C216.114 51.7891 221.378 49.0472 226.604 47.9207C236.707 45.7427 209.544 59.7482 200.22 64.2069C194.905 66.7483 189.517 69.1416 184.216 71.7113C182.064 72.7547 188.692 70.0209 190.916 69.1419C205.194 63.5008 220.358 56.1328 235.558 53.4384C236.219 53.3212 237.053 53.0648 237.572 53.4906C239.047 54.7008 235.173 56.5339 233.598 57.6109C226.17 62.6899 217.966 66.4863 210.018 70.6454C206.293 72.5952 196.105 76.3776 193.989 80.939C192.39 84.3849 201.443 79.1996 204.879 77.5795C213.017 73.7422 221.107 69.7971 229.235 65.9368C235.644 62.8934 243.35 57.7047 250.467 56.4604C254.099 55.8253 244.897 61.3485 241.75 63.2705C233.192 68.4981 224.228 73.1976 216.174 79.2135C208.617 84.8579 216.513 81.3816 218.756 80.3267C227.458 76.2357 235.992 71.8137 244.733 67.7962C250.89 64.9659 257.109 61.8968 263.44 59.4476C266.794 58.15 267.277 58.9496 264 61.4382C251.379 71.0235 236.085 76.1858 222.977 84.931C220.311 86.7091 228.753 82.157 231.625 80.7384C239.917 76.6437 248.391 72.9848 256.868 69.297C262.493 66.8499 268.471 63.4747 274.414 61.7784C277.857 60.7959 269.052 66.5673 266.041 68.5045C257.78 73.8196 249.157 78.5174 240.832 83.7208C238.138 85.4047 230.758 90.8225 233.882 90.2437C241.023 88.9205 248.391 84.7826 254.937 81.9018C266.521 76.8034 277.987 71.4608 289.357 65.9017C292.677 64.2787 301.888 58.6752 299.545 61.5321C295.305 66.7003 286.369 71.0572 281.013 74.4575C272.351 79.9569 263.526 85.1973 254.819 90.6246C253.618 91.3732 252.433 92.1486 251.226 92.8872C250.415 93.3837 252.743 91.7341 253.548 91.2271C267.573 82.394 283.481 74.9658 299.092 69.4093C302.709 68.1219 305.363 68.0178 301.134 71.6555C294.514 77.3501 286.671 81.7019 279.414 86.4897C273.589 90.333 265.614 94.5019 260.962 99.9596C258.107 103.308 268.698 95.7585 272.475 93.501C280.498 88.7056 288.73 84.3013 296.901 79.7678C302.626 76.5917 308.76 72.1979 315.053 70.1183C329.502 65.3439 291.977 90.0614 279.409 98.6407C275.584 101.252 264.387 109.296 268.596 107.365C277.939 103.079 286.577 97.2094 295.889 92.7839C301.792 89.9788 308.143 86.8321 314.537 85.2319C320.722 83.6841 312.796 89.7095 312.69 89.7949C301.376 98.9321 265.027 122.405 278.471 116.859C289.997 112.103 298.855 102.018 310.601 97.7459C311.15 97.5461 311.917 97.0346 312.329 97.4498C313.597 98.7303 310.301 100.462 309.009 101.719C303.411 107.168 297.313 112.126 291.298 117.099C288.282 119.592 278.797 125.944 282.584 124.963C286.709 123.894 291.125 120.362 294.784 118.336C297.267 116.961 301.527 113.868 304.609 113.601C306.829 113.409 301.514 116.836 299.725 118.162C295.684 121.158 291.582 124.072 287.536 127.06C283.704 129.89 287.504 127.369 288.347 126.88C290.996 125.343 293.692 123.896 296.427 122.517C299.17 121.134 291.156 125.682 288.597 127.382C281.032 132.409 288.534 126.96 291.272 125.235C292.642 124.373 295.579 121.444 295.614 123.062C295.627 123.647 290.573 126.011 290.523 126.037C289.506 126.576 279.303 131.377 284.238 126.959C287.722 123.839 285.187 126.704 283.247 128.111C278.774 131.354 279.062 128.003 276.411 123.966C273.732 119.888 270.511 117.856 266.045 116.102C264.861 115.637 263.054 113.42 263.415 114.127C265.656 118.524 269.771 121.697 271.756 126.27C271.997 126.826 273.425 131.475 273.362 130.97C272.918 127.453 269.815 123.307 268.77 119.8C267.102 114.205 265.044 109.401 260.61 105.429C257.288 102.453 260.193 106.161 261.313 107.331C262.376 108.441 271.196 115.383 270.406 117.052C269.846 118.236 260.998 108.313 260.586 107.854C256.498 103.296 252.012 99.221 246.548 96.3615C245.885 96.0144 239.577 93.8973 240.173 94.4678C243.215 97.381 248.575 97.52 251.353 100.531C253.746 103.125 244.628 98.3903 241.269 97.3093C237.35 96.0478 235.096 95.7769 240.381 93.9075C243.586 92.7738 246.855 91.8149 250.088 90.7653C251.659 90.2553 256.216 89.3872 254.656 88.8458C248.271 86.63 238.107 90.9209 231.651 91.6814C222.2 92.7947 237.714 85.2202 239.375 84.6052C241.386 83.8607 247.452 82.3892 245.321 82.148C240.748 81.6305 235.276 83.5579 230.862 84.4539C228.096 85.0155 216.561 88.0699 224.51 83.173C225.774 82.3944 238.45 77.321 232.381 78.4797C227.871 79.3409 223.416 80.5931 218.989 81.7975C217.3 82.2572 212.291 84.4592 210.213 84.0571C205.876 83.218 217.901 79.59 222.083 78.1658C230.032 75.4581 206.077 83.2723 197.978 85.4908C196.296 85.9512 194.613 86.4442 192.886 86.6837C190.634 86.9962 189.373 86.8413 191.408 84.8087C194.963 81.2593 200.212 79.1859 204.819 77.485C207.067 76.6551 214.051 75.0337 211.672 75.3148C207.165 75.8473 202.653 76.9496 198.278 78.1056C195.149 78.9323 189.519 81.8233 186.082 81.3303C183.574 80.9707 194.523 74.9834 194.797 74.8844C195.957 74.464 202.106 72.0538 203.684 72.8523C204.011 73.0175 203.035 73.1985 202.688 73.3146C200.595 74.0146 195.428 75.3823 193.773 75.8264C191.935 76.3193 190.104 76.838 188.256 77.2873C186.629 77.6827 183.248 79.5291 183.266 77.8552C183.286 75.9169 190.8 73.3091 191.708 72.9675C194.674 71.8516 203.437 68.6277 200.893 70.517C198.773 72.0913 191.816 72.2416 189.581 72.5248C186.181 72.9555 172.659 73.4707 182.957 69.7644C183.615 69.5274 188.713 68.6118 189.123 67.7625C189.246 67.509 188.558 67.697 188.279 67.7328C186.002 68.0244 183.53 68.7277 181.386 69.3672C176.689 70.7682 172.092 72.8071 167.312 73.9071C166.944 73.9917 166.125 74.2662 166.18 73.8932C166.434 72.1791 169.096 71.9993 170.666 71.2664C173.119 70.121 185.411 65.8917 175.985 69.9631C172.36 71.5287 168.366 73.6713 164.447 74.3907C160.765 75.0666 170.656 70.1173 174.097 68.6432C175.064 68.2291 176.053 67.8673 177.033 67.4873C178.423 66.949 178.77 66.9163 176.897 67.3752C172.154 68.5373 167.441 69.8048 162.706 70.9977C160.126 71.6478 153.274 73.5593 154.731 71.3331C156.8 68.1719 162.066 66.4781 165.279 65.0199C166.275 64.5682 167.298 64.1788 168.289 63.7187C170.271 62.799 168.859 63.1971 167.394 63.5559C161.789 64.9294 156.28 66.691 150.664 68.0191C149.206 68.3637 147.747 68.752 146.255 68.8811C143.852 69.0891 144.077 68.3467 145.63 66.9972C148.516 64.4883 152.367 63.0048 155.954 61.8484C156.425 61.6966 157.513 61.0471 157.404 61.5296C157.275 62.0951 156.378 62.0735 155.849 62.3107C154.258 63.0236 152.64 63.6764 151.045 64.379C146.365 66.4398 141.639 69.2942 136.793 70.9447C135.067 71.5329 138.609 67.7088 139.955 66.4779C140.991 65.5307 142.073 64.6357 143.134 63.7164C144.056 62.9174 146.897 61.5447 145.743 61.1493C144.026 60.5609 137.164 64.3991 136.201 64.815C131.93 66.6586 126.543 69.8671 121.75 70.1201C119.142 70.2577 124.159 65.2957 126.21 63.6798C129.46 61.1203 131.319 59.9674 134.661 57.8625C136.008 57.0142 137.202 56.4248 135.178 57.3721C131.496 59.095 127.904 60.9989 124.235 62.7451C122.777 63.4392 119.562 64.9071 122.708 62.1552C123.879 61.1315 135.696 54.1584 130.566 56.8107C127.238 58.5308 124.055 60.4799 120.775 62.2833C119.981 62.7203 119.193 63.1815 118.349 63.5144C117.204 63.9662 116.619 63.9549 117.479 62.7091C122.629 55.243 134.62 50.4173 142.448 46.5877C143.022 46.3064 144.536 45.2646 144.204 45.8118C142.887 47.9831 139.732 48.2194 137.477 49.3879C131.891 52.283 126.358 55.3168 120.714 58.097C112.314 62.2342 136.074 47.2832 142.928 40.9043C148.429 35.7851 129.989 48.5577 123.691 52.6566C121.175 54.2946 129.036 49.9009 131.57 48.289C134.014 46.7337 138.19 43.9016 140.554 41.9043C142.648 40.1359 141.161 40.7505 139.777 41.4036C135.722 43.3172 131.896 45.6967 127.837 47.6031C124.741 49.0571 128.321 46.8973 128.663 46.8186C130.861 46.3136 129.064 48.627 130.155 49.345C132.719 51.0329 141.044 45.9166 142.733 45.1537C146.3 43.5422 151.757 40.0377 155.941 39.9713C158.249 39.9346 153.649 44.0705 151.943 45.6253C151.123 46.3722 142.949 52.1106 143.165 53.5963C143.237 54.0976 144.174 53.4168 144.632 53.2005C146.716 52.216 154.311 47.8557 155.655 47.1166C159.752 44.8616 166.857 39.5883 171.958 39.7208C175.858 39.822 166.857 45.744 163.646 47.9596C159.852 50.5772 147.702 57.0551 152.021 55.4459C157.227 53.5064 162.107 50.7832 167.386 48.9712C168.455 48.604 176.264 46.0785 170.975 50.1106C167.079 53.081 162.508 54.8506 158.408 57.464C149.116 63.3865 178.897 49.0904 189.634 46.6119C190.104 46.5032 191.262 46.2093 191.082 46.6572C189.808 49.8222 185.634 50.7914 182.699 52.5306C175.952 56.5287 166.515 59.8446 160.881 65.4792C156.979 69.3822 171.494 62.3597 176.579 60.2142C185.339 56.5179 194.227 51.9431 203.497 49.599C204.362 49.3804 206.018 48.5567 206.168 49.4358C206.343 50.4695 204.698 50.9541 203.827 51.5371C201.883 52.8375 199.824 53.9608 197.76 55.0606C190.252 59.0622 182.458 62.5761 174.743 66.1569C164.166 71.0656 195.296 55.0526 206.068 50.5879C206.783 50.2913 208.888 49.3712 208.265 49.8313C205.104 52.165 201.135 53.1369 197.522 54.6825C191.82 57.1222 175.043 65.0109 180.291 61.7055C186.214 57.9753 195.09 55.7458 201.605 53.8276C207.872 51.9826 220.063 47.1956 226.97 49.3406C231.831 50.8504 219.755 56.7764 215.231 59.1101C212.057 60.7475 208.792 62.2038 205.556 63.7178C201.619 65.5603 196.573 66.0345 193.816 69.3955C193.364 69.9461 195.251 69.3361 195.938 69.1484C198.996 68.3125 211.002 64.2284 213.18 63.505C217.788 61.974 225.198 59.5175 230.061 58.0228C231.851 57.4726 236.866 55.4384 235.534 56.7545C231.73 60.5126 222.191 63.1814 217.727 65.0645C212.018 67.4725 194.902 72.7096 201.068 73.3113C204.357 73.6323 211.766 70.35 214.548 73.1732C214.761 73.3889 214.045 74.0835 214.347 74.0591C218.164 73.7517 221.427 71.1336 224.925 69.5757C234.759 65.1964 244.546 60.6504 254.655 56.9256C259.786 55.0352 263.649 54.1534 256.59 58.2158C243.414 65.7989 202.554 85.1964 217.244 81.2794C226.608 78.7824 235.832 73.8392 244.866 70.419C250.809 68.1689 267.821 60.5035 263.055 64.7072C257.42 69.6774 248.039 72.8581 241.493 76.1745C237.068 78.416 223.848 85.1475 228.502 83.4316C238.392 79.7851 247.859 74.7476 257.488 70.491C260.928 68.9704 264.355 67.414 267.856 66.0408C270.435 65.0295 277.467 62.0552 276.005 64.4081C272.251 70.4485 259.594 75.0451 253.887 78.1393C249.434 80.554 236.216 87.9748 240.881 86.0005C253.933 80.4769 290.19 58.6597 279.237 67.6538C270.315 74.9803 240.693 92.9004 251.019 87.7361C258.451 84.0188 265.223 78.6085 271.993 73.8668C273.065 73.1159 284.451 63.4417 287.07 63.843C287.687 63.9375 286.308 64.8385 285.855 65.2683C283.478 67.5253 277.45 72.4697 275.505 74.0975C269.529 79.0993 262.969 83.9544 257.693 89.7384C250.023 98.1487 274.567 73.8723 284.903 69.1029C287.945 67.6991 281.7 75.0917 279.354 77.4832C272.401 84.5695 264.888 91.3505 258.917 99.333C258.331 100.115 256.789 101.394 257.593 101.949C258.467 102.552 259.487 100.96 260.317 100.299C262.545 98.5265 264.613 96.5612 266.741 94.6695C274.168 88.0669 281.497 81.3983 289.27 75.1989C290.213 74.4473 291.163 73.703 292.156 73.0187C294.007 71.742 288.745 75.9517 287.028 77.4035C282.102 81.5672 278.014 84.967 273.346 89.4861C272.24 90.5572 266.088 96.4246 264.997 99.1344C263.214 103.564 273.101 93.9973 276.652 90.8041C282.22 85.7962 287.515 80.4018 293.334 75.6764C296.508 73.0996 294.722 75.2547 297.356 74.1999C297.527 74.1316 304.215 69.5714 302.136 72.7742C297.046 80.6143 289.945 87.5221 283.961 94.6517C282.094 96.8753 280.19 99.0706 278.423 101.374C275.192 105.586 276.87 104.346 279.913 101.591C287.3 94.9041 293.826 87.3519 300.9 80.3521C301.549 79.7105 310.864 70.552 304.598 79.4097C298.842 87.5457 292.087 94.9799 285.782 102.681C284.197 104.618 282.582 106.533 281.089 108.542C280.672 109.104 279.46 110.727 280.065 110.375C281.521 109.529 282.585 108.139 283.796 106.969C291.24 99.774 298.282 92.1582 305.891 85.1314C306.079 84.958 316.208 75.3276 310.692 83.7914C304.601 93.1366 296.953 101.394 290.493 110.475C288.96 112.63 287.396 114.792 286.22 117.161C285.872 117.863 285.234 119.599 286.012 119.503C287.568 119.312 288.667 117.799 289.804 116.719C297.494 109.419 303.449 100.27 309.793 91.8508C313.327 87.1603 314.588 85.4484 317.81 81.5197C320.029 78.8153 313.384 86.9368 311.183 89.655C304.303 98.1497 297.246 106.633 291.163 115.731C285.592 124.064 290.981 118.761 293.166 116.186C298.93 109.393 303.966 102.018 309.614 95.1319C310.773 93.7199 311.923 92.292 313.224 91.0099C314.907 89.3519 315.015 90.2689 314.222 91.9658C309.828 101.369 290.502 125.9 297.484 118.22C303.365 111.751 319.135 91.3084 315.705 99.3508C313.619 104.239 309.742 108.853 306.63 113.087C305.67 114.393 304.713 115.703 303.685 116.956C301.81 119.241 302.945 117.184 303.534 116.192C306.435 111.308 309.709 106.636 312.749 101.839C314.393 99.2461 317.222 95.7161 318.05 92.5922C318.389 91.3117 312.627 99.672 313.908 98.6997C315.841 97.2326 325.296 79.5575 321.454 79.3902C321.32 79.3844 319.765 87.3426 325.924 82.7146C329.539 79.9981 333.984 67.7547 325.257 70.4918C320.984 71.8321 317.163 75.0997 313.902 78.0394C311.548 80.1619 312.585 79.7598 314.243 77.4283C315.38 75.8296 324.361 62.8526 317.749 68.0572C311.767 72.7671 310.203 76.8818 303.093 71.4119C294.944 65.1427 307.969 60.5162 312.671 58.316C320.313 54.7398 296.065 61.3336 287.811 63.0795C282.438 64.2159 284.814 63.0916 288.04 61.7138C294.058 59.1435 300.741 57.6285 306.616 54.8342C315.289 50.7088 288 60.5831 278.396 60.6574C272.79 60.7008 298.36 52.9641 292.833 52.0274C288.286 51.257 282.189 53.103 277.861 54.0952C274.689 54.8224 269.764 55.61 266.826 57.3811C263.519 59.3745 281.702 54.0087 277.845 53.8081C274.588 53.6386 271.139 53.9262 267.899 54.2627C267.328 54.322 264.158 55.0001 267.309 54.8983C267.441 54.8941 272.531 54.1062 272.279 53.8805C271.135 52.8558 264.343 54.3101 263.446 54.4261C258.915 55.0121 254.428 55.9506 249.893 56.4919C248.297 56.6824 245.938 57.0124 247.839 55.0127C248.833 53.9666 251.701 52.3989 251.809 50.7296C251.962 48.369 241.83 50.7661 241.243 50.8814C238.914 51.3387 232.077 53.306 234.311 52.507C236.342 51.7809 238.429 51.2697 240.418 50.4105C241.122 50.1066 244.507 48.4719 241.384 48.1185C237.997 47.7352 234.384 48.9869 231.259 50.0719C222.171 53.2274 228.33 52.1138 232.31 49.0143C237.163 45.2344 220.393 52.7525 214.241 52.7685C210.397 52.7785 206.623 51.3699 202.932 50.4832C201.288 50.0883 198.805 50.2747 200.836 48.8324C203.843 46.6967 206.94 44.6848 209.987 42.607C210.903 41.9822 211.831 41.3738 212.725 40.7175C214.413 39.4781 213.978 39.6341 212.114 40.3761C204.826 43.2782 183.295 52.2542 190.998 50.77C195.209 49.9587 199.318 47.9251 203.345 46.5262C206.427 45.4554 213.503 43.4105 205.603 47.2823C200.726 49.673 195.363 52.5742 190.049 53.8762C189.57 53.9936 188.609 54.2757 188.572 53.7836C188.391 51.3761 191.478 49.9106 193.165 48.1837C195.873 45.4121 204.978 38.8391 201.225 39.8066C195.682 41.2358 189.495 46.2725 184.558 48.9831C182.233 50.2596 175.172 53.9276 177.518 52.6906C181.23 50.7333 185.019 48.9437 188.792 47.1092C190.396 46.329 185.399 48.2145 183.711 48.7906C180.942 49.7353 174.783 52.891 175.016 49.9753C175.253 47.0051 186.332 39.8628 179.501 42.0013C176.231 43.025 172.852 44.5403 169.427 44.9789C167.944 45.1688 170.475 42.1042 171.468 40.9867C173.631 38.5509 180.939 32.4867 177.882 33.613C174.266 34.9455 170.701 38.7425 167.518 40.8996C167.009 41.2444 166.433 42.2718 165.958 41.882C165.495 41.5025 166.893 41.1345 167.381 40.7876C168.649 39.8856 169.931 39.0029 171.224 38.1363C174.215 36.131 175.602 35.2641 178.474 33.5044C179.838 32.6689 179.771 32.8097 177.714 33.8179C173.469 35.8983 169.169 37.9282 164.79 39.7129C163.461 40.2542 159.824 41.1808 160.491 39.9112C161.409 38.1648 164.942 34.4771 160.8 33.3787C155.39 31.9439 148.302 34.0844 143.303 36.0473C141.906 36.5954 134.312 42.7322 133.125 40.0142C132.224 37.9506 134.561 35.0121 133.7 33.3801C133.651 33.2867 125.771 38.473 124.977 38.9734C122.226 40.7056 130.523 35.5581 133.091 33.5658C137.059 30.4879 125.729 40.4049 122.249 44.025C116.593 49.9088 111.446 56.2646 107.509 63.4422C105.3 67.47 105.117 67.4871 103.02 63.2326C97.282 51.5911 117.356 45.8717 123.846 39.8507C124.988 38.7903 131.157 33.8241 130.036 31.859C127.852 28.0334 116.232 39.4437 115.132 40.5854C110.383 45.5117 106.569 51.1563 103.165 57.0678C101.431 60.0773 100.116 63.8542 97.9183 66.6106C97.6236 66.9803 97.664 65.5922 97.9164 65.1924C102.169 58.4552 109.384 53.5871 115.935 49.3554C120.104 46.6621 124.477 44.3016 129.006 42.2786C129.496 42.0594 130.005 41.8809 130.487 41.6429C131.698 41.0442 127.935 42.5375 126.684 43.0475C112.837 48.6912 101.648 56.5434 94.7654 70.1478C93.3409 72.9636 89.7891 82.2148 92.3355 72.9985C93.5921 68.4504 95.6952 64.4432 98.6057 60.7311C99.7729 59.2426 103.156 54.7046 105.381 54.0875C107.945 53.3763 102.611 58.6321 101.167 60.8674C97.9155 65.9028 94.8473 71.0483 91.7721 76.1921C90.5585 78.2222 86.95 84.3266 88.0505 82.2331C89.6467 79.1964 91.8918 76.3014 93.9779 73.6146C95.7094 71.3846 98.9568 66.1005 101.77 64.812C104.155 63.7195 99.7408 69.6613 98.4845 71.9647C96.7202 75.1994 94.5552 78.3545 92.9931 81.695C91.2507 85.421 97.6602 74.9165 99.8238 71.4183C100.474 70.3666 101.101 69.3003 101.758 68.2525C102.039 67.8044 103.141 66.0584 102.119 68.0914C100.374 71.5607 98.2831 74.8392 96.0567 78.016C89.5387 87.317 94.494 76.4764 96.0263 72.6216C96.4494 71.5574 96.9114 70.5071 97.2796 69.4226C97.8678 67.6901 97.4001 68.1929 96.5687 69.3422C93.6973 73.3114 91.1229 77.5401 88.4303 81.6307C87.3747 83.2346 84.3789 87.9009 84.6822 86.0049C85.3403 81.8913 86.5509 77.7782 87.4734 73.7169C87.7389 72.5485 88.0319 71.386 88.2697 70.2116C88.5208 68.9712 88.7274 68.0417 87.9124 69.6443C86.0278 73.3503 84.4168 77.1801 82.4143 80.8313C79.8372 85.5301 84.0717 74.7013 81.1786 84.8445C79.7827 89.7384 78.0674 94.5012 76.1711 99.2215C75.7724 100.214 75.3652 101.203 74.9318 102.181C74.2396 103.742 74.1391 103.796 74.6201 101.948C75.7196 97.7231 77.0659 93.4586 78.7962 89.4478C79.1043 88.7338 80.3481 86.9123 80.3298 87.6897C80.2914 89.3182 78.9881 93.8747 78.6848 94.9315C77.591 98.7422 75.9877 102.525 75.1091 106.393C74.3538 109.719 77.4375 99.9827 78.5905 96.7735C79.5009 94.2394 81.8315 89.994 82.0333 87.145C82.2434 84.1793 78.9565 92.2344 77.4942 94.8231C74.3694 100.355 71.4899 106.191 67.8874 111.437C65.5048 114.906 66.0702 111.261 66.2343 109.441C66.6527 104.801 68.2235 95.8396 64.9067 105.656C64.0451 108.205 63.4007 111.229 62.0502 113.594C61.6443 114.305 62.0135 112.025 62.3372 112.687C63.2548 114.564 62.8825 118.3 66.1562 115.135C72.5761 108.926 76.9465 99.9462 81.8151 92.564C82.8409 91.0085 83.8631 89.4499 84.9346 87.9255C85.1413 87.6315 85.7815 86.7822 85.6454 87.1148C85.3014 87.9552 84.7526 88.6964 84.2975 89.4822C81.7915 93.8088 79.1416 98.1003 77.0889 102.671C72.0968 113.785 87.5535 79.993 96.4464 71.6638C98.7381 69.5174 93.0475 76.9723 90.9776 79.3333C88.9509 81.6451 84.3318 88.2205 81.0128 89.1411C80.6876 89.2313 80.7456 88.4491 80.8761 88.1379C81.9691 85.5304 87.0307 77.4284 87.9167 76.0455C92.0719 69.5597 96.3819 62.6432 101.785 57.0784C111.419 47.156 84.3764 78.5874 76.2155 89.7527C74.7582 91.7465 73.3722 93.7919 71.9966 95.8428C71.0537 97.2484 69.643 99.8642 71.4189 96.6027C76.3559 87.5353 81.3346 78.5382 87.0755 69.9403C92.2881 62.1339 97.9194 54.6103 104.715 48.1031C105.906 46.9625 109.8 43.9048 108.577 45.0106C100.656 52.1692 93.1866 59.2875 86.4012 67.5592C86.1059 67.9191 85.848 68.8832 85.4751 68.6046C84.0666 67.5524 87.1001 65.4802 88.0588 64.0065C89.3092 62.0845 93.7402 53.7462 96.9276 54.0307C97.5024 54.0821 97.6657 55.0662 97.5756 55.6362C97.0387 59.0322 93.5049 65.3251 92.1633 67.6934C87.0577 76.7058 81.7158 86.8064 75.2741 94.967C72.7501 98.1644 82.624 80.4895 81.3309 84.3524C78.4295 93.0196 66.0633 117.504 69.0391 108.863C71.2372 102.479 80.2391 84.345 78.096 90.747C76.9916 94.0461 75.179 97.099 74.0404 100.398C73.8815 100.859 73.276 102.031 73.7166 101.824C76.2401 100.633 76.7145 97.1166 78.163 94.732C88.4133 77.8584 99.7101 60.3916 117.199 50.2097C118 49.7434 125.013 45.7527 121.264 50.323C118.867 53.2459 114.856 55.9686 113.376 59.5493C111.989 62.9044 122.976 56.1406 120.046 56.9327C115.118 58.2654 110.204 62.8708 106.589 66.0686C102.434 69.7439 90.8946 80.9977 96.0481 78.9458C98.2064 78.0864 100.756 73.3248 102.102 71.7332C103.573 69.9924 108.303 65.1587 107.158 67.1296C105.085 70.6974 101.131 73.6058 98.3344 76.5485C95.0821 79.9705 94.8797 80.5448 99.2135 77.3153C104.509 73.3692 109.785 68.9725 115.779 66.0903C116.411 65.7865 117.496 65.0077 117.829 65.6243C118.195 66.3022 117.097 66.9988 116.577 67.5679C115.361 68.9002 113.985 70.0783 112.652 71.2942C110.474 73.2823 103.738 79.0132 105.856 76.9609C108.884 74.0281 112.362 71.4899 116.063 69.4764C119.534 67.5878 120.307 68.0412 117.061 70.4323C113.741 72.8777 110.098 75.7051 106.376 77.5246C104.038 78.6678 109.447 73.289 111.315 71.4765C114.595 68.2934 120.413 64.737 122.754 60.7073C124.513 57.6786 116.411 63.8175 113.688 66.0205C113.245 66.3795 104.803 73.4572 112.017 71.5955C117.652 70.1411 122.657 65.8612 128.567 65.4304C141.385 64.4962 123.028 67.1595 132.878 67.1388C135.814 67.1326 137.017 64.0256 139.461 63.125" stroke="black" stroke-width="3" stroke-linecap="round"/>
<path d="M81.0376 121.31C75.7754 120.115 69.1983 122.136 63.8336 122.506C62.9015 122.57 57.9927 122.668 58.4602 122.622C62.5522 122.218 66.5997 121.508 70.7039 121.15C87.0249 119.726 65.7512 124.607 65.2415 123.798C64.5381 122.681 83.3843 118.913 68.6204 121.406" stroke="black" stroke-width="3" stroke-linecap="round"/>
<path d="M255.007 141.869C260.719 146.757 268.407 150.142 273.211 155.887C274.22 157.095 267.667 153.11 266.644 152.695C266.104 152.475 256.49 149.203 257.014 150.507C258.154 153.342 263.204 154.962 265.773 155.818C269.655 157.113 259.198 150.516 258.362 149.922C256.941 148.911 253.068 145.434 254.174 146.783C255.689 148.632 257.973 150.266 259.819 151.711C263.679 154.732 267.695 157.515 272.122 159.61" stroke="black" stroke-width="3" stroke-linecap="round"/>
<path d="M62.4532 248.639C56.6279 247.98 54.8074 259.395 61.5645 255.404C62.273 254.986 67.1172 252.107 65.9552 251.055C64.6833 249.903 59.0931 252.877 57.7264 253.398" stroke="black" stroke-width="3" stroke-linecap="round"/>
<path d="M54.9855 262.255C54.4515 264.605 53.4383 267.439 54.153 269.843C55.4218 274.11 59.5872 269.587 60.5259 267.645C63.1363 262.243 56.7526 265.301 54.7339 266.572" stroke="black" stroke-width="3" stroke-linecap="round"/>
<path d="M57.0676 278.768C54.189 282.697 59.4979 289.143 62.0128 284.995C62.6844 283.888 61.5407 282.616 60.5085 282.345C58.2397 281.749 56.0484 283.569 54.2634 284.693" stroke="black" stroke-width="3" stroke-linecap="round"/>
<path d="M59.7796 292.509C60.7346 295.232 68.8228 311.231 71.2528 305.485C72.6473 302.187 70.625 301.435 68.8259 304.042" stroke="black" stroke-width="3" stroke-linecap="round"/>
<path d="M69.3309 311.449C72.5628 313.613 76.3346 316.865 80.3131 317.67C81.5963 317.93 81.6249 317.1 80.4094 317.246C79.3252 317.377 78.7438 317.021 78.0931 317.814" stroke="black" stroke-width="3" stroke-linecap="round"/>
<path d="M84.0818 323.549C85.8532 326.794 88.231 331.621 92.361 332.397C94.4779 332.794 94.7352 328.37 93.2148 327.568C91.1912 326.5 87.626 331.801 94.0731 330.922" stroke="black" stroke-width="3" stroke-linecap="round"/>
<path d="M101.606 336.279C103.551 339.968 108.642 345.496 112.767 341.002C113.099 340.639 112.46 342.731 112.602 343.152C113.171 344.839 116.12 343.012 116.923 342.675" stroke="black" stroke-width="3" stroke-linecap="round"/>
<path d="M124.235 345.795C122.414 347.78 130.292 355.091 132.686 352.818C132.695 352.809 132.643 353.253 134.384 352.475" stroke="black" stroke-width="3" stroke-linecap="round"/>
<path d="M147.401 356.161C147.027 359.927 149.827 359.156 152.566 358.387C155.045 357.691 154.367 357.303 152.184 357.571C148.122 358.07 147.994 362.503 152.633 358.807" stroke="black" stroke-width="3" stroke-linecap="round"/>
<path d="M164.892 359.405C167.569 358.749 175 356.326 168.841 359.856C164.339 362.435 168.939 360.814 171.29 360.129" stroke="black" stroke-width="3" stroke-linecap="round"/>
<path d="M180.24 359.245C182.248 358.575 184.543 358.451 186.38 357.359C188.821 355.908 187.51 355.872 185.517 356.879C185.426 356.925 181.524 359.44 183.549 358.944C186.376 358.251 188.61 356.087 190.829 354.359" stroke="black" stroke-width="3" stroke-linecap="round"/>
<path d="M196.785 350.608C194.765 353.346 201.047 349.405 201.859 348.601C202.537 347.929 202.879 346.956 203.592 346.321" stroke="black" stroke-width="3" stroke-linecap="round"/>
<path d="M45.2758 172.377C46.9697 173.179 47.0701 175.436 49.4094 175.788C53.9859 176.477 58.513 172.9 61.8612 170.34" stroke="white" stroke-width="3" stroke-linecap="round"/>
<path d="M65.0619 127.858C65.4986 134.261 63.2187 140.367 63.692 146.823C64.0592 151.832 65.3626 156.779 67.0605 161.49C68.6251 165.83 67.09 171.489 66.4396 175.895C65.4348 182.701 67.9921 191.592 69.6928 198.167C72.0034 207.1 71.8632 216.208 73.8556 225.267C74.7267 229.228 72.1078 232.081 74.1928 235.77C78.0508 242.595 86.6063 243.352 92.2543 247.898C101.044 254.972 106.113 264.967 113.25 273.448C116.068 276.796 119.842 279.067 122.865 282.224C125.62 285.1 129.343 286.118 132.591 288.303C139.086 292.671 145.595 294.481 153.223 296.214C155.999 296.844 166.768 298.327 168.777 295.877" stroke="black" stroke-width="3" stroke-linecap="round"/>
<path d="M58.7067 130.284C62.7228 127.084 50.2724 124.746 48.301 125.305C45.2291 126.175 44.4592 129.804 44.0973 132.769C43.6506 136.43 43.7712 143.63 45.3875 146.964C46.7177 149.708 49.5415 151.487 51.3923 153.81C53.8103 156.845 54.0661 160.811 55.1892 164.382C57.016 170.19 55.4583 178.652 63.5346 177.169" stroke="black" stroke-width="3" stroke-linecap="round"/>
</svg>
