<svg width="1300" height="249" viewBox="0 0 1300 249" fill="none" xmlns="http://www.w3.org/2000/svg">
<path d="M196.636 28.0225C190.027 27.8884 184.482 27.5611 178.309 29.4805" stroke="black" stroke-width="3" stroke-linecap="round"/>
<path d="M192.867 33.4353C185.796 27.5391 175.001 40.9766 169.053 34.782" stroke="black" stroke-width="3" stroke-linecap="round"/>
<path d="M189.024 42.5061C176.792 42.6074 168.006 51.2286 155.916 50.9833" stroke="black" stroke-width="3" stroke-linecap="round"/>
<path d="M170.511 53.1092C162.504 54.1754 154.76 54.6195 146.697 54.4559" stroke="black" stroke-width="3" stroke-linecap="round"/>
<path d="M172.192 60.4626C160.008 64.1081 147.461 63.8704 135.464 67.0367" stroke="black" stroke-width="3" stroke-linecap="round"/>
<path d="M149.91 76.4778C140.285 80.1033 128.107 79.4805 120.424 86.8582" stroke="black" stroke-width="3" stroke-linecap="round"/>
<path d="M138.639 90.8875C128.848 93.1617 118.886 95.0608 109.227 97.6099" stroke="black" stroke-width="3" stroke-linecap="round"/>
<path d="M127.294 108.955C119.751 111.611 106.197 109.065 101.54 115.752" stroke="black" stroke-width="3" stroke-linecap="round"/>
<path d="M106.879 123.179C99.2995 125.535 93.042 127.491 86.5743 131.915" stroke="black" stroke-width="3" stroke-linecap="round"/>
<path d="M97.4369 137.625C89.7377 138.493 82.4808 141.806 75.3406 144.496" stroke="black" stroke-width="3" stroke-linecap="round"/>
<path d="M87.9582 153.9C80.1425 157.464 72.7331 160.91 64.0329 160.734" stroke="black" stroke-width="3" stroke-linecap="round"/>
<path d="M80.3825 166.555C73.4496 170.977 64.5221 171.723 56.4943 171.56" stroke="black" stroke-width="3" stroke-linecap="round"/>
<path d="M76.3536 184.771C65.0693 187.35 54.7802 193.006 43.2092 195.077" stroke="black" stroke-width="3" stroke-linecap="round"/>
<path d="M55.9378 198.995C45.1175 201.978 34.7992 205.505 24.6224 209.338" stroke="black" stroke-width="3" stroke-linecap="round"/>
<path d="M57.5443 210.006C45.6985 214.467 32.8595 216.47 20.7419 220.238" stroke="black" stroke-width="3" stroke-linecap="round"/>
<path d="M27.9465 225.873C16.9802 228.48 9.96933 234.168 2.00671 241.814" stroke="black" stroke-width="3" stroke-linecap="round"/>
<path d="M35.2996 224.192C44.301 224.375 51.4735 222.652 60.0817 220.222C67.2298 218.204 74.5569 220.548 81.571 218.218C91.9084 214.785 102.409 211.603 112.573 208.275C122.922 204.887 133.739 205.459 144.487 203.535C187.325 195.867 231.11 194.469 274.52 192.551C286.591 192.018 298.833 189.477 310.871 189.527C322.363 189.575 334.572 192.414 345.946 194.305C371.257 198.512 396.096 198.575 421.783 199.096C432.189 199.307 442.163 195.85 452.645 196.062C466.451 196.342 479.965 194.568 493.733 195.066C505.269 195.483 516.681 199.191 528.105 199.422C544.404 199.753 561.381 202.013 577.397 204.895C606.126 210.065 634.222 207.064 663.136 207.65C702.599 208.451 740.889 212.59 780.322 208.604C800.915 206.522 821.963 212.833 842.303 214.944C860.269 216.809 876.55 216.539 894.529 216.105C930.036 215.248 964.8 209.411 999.949 205.74C1015.52 204.114 1032 206.114 1047.37 203.449C1060 201.256 1072.07 196.021 1085.12 196.285C1089.81 196.381 1094.17 199.395 1098.87 199.919C1104.75 200.573 1110.85 200.263 1116.75 200.383C1128.2 200.615 1139.65 200.848 1151.1 201.08C1160.32 201.267 1166.46 205.312 1174.85 207.966C1184.37 210.976 1192.76 207.414 1202 207.601C1214.12 207.847 1225.62 206.251 1237.8 206.498" stroke="black" stroke-width="3" stroke-linecap="round"/>
<path d="M202.301 26.8107C207.991 24.0512 214.013 21.99 220.327 21.2139C229.08 20.1379 235.126 24.9577 243.639 24.398C267.285 22.8434 291.094 22.2747 314.635 20.1152C352.123 16.6762 388.688 10.0034 426.721 9.56034C460.618 9.16544 494.79 19.7443 528.88 19.3472C553.381 19.0617 578.205 20.602 602.884 20.3145C633.439 19.9586 665.337 16.953 695.773 19.6389C709.389 20.8405 722.766 20.7474 736.44 20.5881C750.328 20.4263 762.444 22.1921 776.012 23.5828C804.844 26.5381 834.741 24.9314 863.738 24.5936C889.023 24.299 914.352 21.4753 939.528 21.8812C956.373 22.1528 973.466 24.5287 990.101 20.9237C1010.1 20.9501 1016.6 20.9587 1033.77 23.5276C1047.04 28.5452 1055.83 33.3327 1070.47 33.1622C1081.27 33.0364 1091.61 34.7454 1102.5 34.6185C1106.75 34.569 1109.42 31.3252 1113.43 30.8322C1119.7 30.0616 1116.19 30.3508 1120.77 32.5762" stroke="black" stroke-width="3" stroke-linecap="round"/>
<path d="M1119.94 63.2172C1128.89 63.3987 1137.46 61.7428 1146.4 61.924C1151.58 62.0291 1153.31 65.4059 1158.39 62.1672" stroke="black" stroke-width="3" stroke-linecap="round"/>
<path d="M1134.5 67.1723C1144.98 67.3849 1168.26 63.1072 1176.49 71.6835" stroke="black" stroke-width="3" stroke-linecap="round"/>
<path d="M1150.74 78.48C1164.35 79.0655 1177.28 82.6778 1190.9 82.9541" stroke="black" stroke-width="3" stroke-linecap="round"/>
<path d="M1168.81 89.8247C1179.08 93.4836 1188.32 96.8406 1199.4 94.918C1204.03 94.1144 1207.91 92.4476 1212.67 92.544" stroke="black" stroke-width="3" stroke-linecap="round"/>
<path d="M1192.25 106.768C1204.39 108.82 1216.91 107.95 1228.76 111.168" stroke="black" stroke-width="3" stroke-linecap="round"/>
<path d="M1202.85 125.281C1214 125.507 1225.02 124.865 1235.74 127.777" stroke="black" stroke-width="3" stroke-linecap="round"/>
<path d="M1219.09 136.588C1233.64 139.174 1249.86 142.702 1264.7 143.003" stroke="black" stroke-width="3" stroke-linecap="round"/>
<path d="M1238.88 153.458C1249.17 154.07 1264.13 158.413 1273.44 163.307" stroke="black" stroke-width="3" stroke-linecap="round"/>
<path d="M1251.38 168.349C1258.48 172.496 1274.8 181.73 1282.36 174.467" stroke="black" stroke-width="3" stroke-linecap="round"/>
<path d="M1254.71 184.884C1263.58 185.064 1269.09 185.432 1276.67 189.802C1281.85 192.792 1285.76 192.798 1291.18 191.113" stroke="black" stroke-width="3" stroke-linecap="round"/>
<path d="M1261.84 194.177C1262.44 201.271 1292.75 209.208 1296.44 202.198" stroke="black" stroke-width="3" stroke-linecap="round"/>
<path d="M1241.38 210.23C1247.2 212.479 1253.21 212.079 1259.33 212.526C1264.67 212.915 1269.05 215.606 1274.2 216.284C1282.43 217.367 1290.29 215.621 1298.05 213.209" stroke="black" stroke-width="3" stroke-linecap="round"/>
<path d="M1116.84 35.7084C1128.4 34.7889 1136.68 37.0721 1144.46 27.1199" stroke="black" stroke-width="3" stroke-linecap="round"/>
<path d="M1114.79 46.6452C1120.56 41.6584 1134.84 41.5625 1142.34 41.7147" stroke="black" stroke-width="3" stroke-linecap="round"/>
<path d="M1118.26 55.8642C1128.42 55.7801 1148.81 57.774 1153.2 47.4241" stroke="black" stroke-width="3" stroke-linecap="round"/>
<path d="M192.321 37.0254C192.321 41.5824 186.411 43.9939 184.553 48.4071C183.554 50.7789 183.931 53.2441 182.566 55.6336C181.494 57.5082 178.526 55.8795 176.965 57.4402C172.855 61.5507 175.318 66.3839 170.461 70.3576C166.031 73.9823 168.507 81.8888 165.945 82.9136C159.726 85.4011 159.718 89.6376 156.55 94.2953C152.922 99.6305 144.806 99.6278 141.917 106.129C140.103 110.209 133.787 108.989 133.787 114.258C133.787 122.593 127.54 119.273 124.392 126.092C122.226 130.785 116.76 132.164 114.637 137.474C112.761 142.163 103.073 139.06 101.358 146.778C100.867 148.988 102.356 151.128 101.81 153.191C101.001 156.246 98.4184 159.329 97.1124 162.315C95.0526 167.023 90.4709 170.163 88.6213 174.871C87.495 177.737 89.618 182.143 87.8986 184.626C82.4421 192.508 78.3145 200.672 72.0003 208.564C69.9715 211.1 66.5734 214.255 63.0575 214.255C60.1132 214.255 59.1115 214.58 57.3667 217.146C56.5466 218.352 55.7407 222.46 55.7407 220.759" stroke="black" stroke-width="3" stroke-linecap="round"/>
<path d="M1094.73 37.0254C1082.74 43.0218 1093.99 41.4331 1100.87 43.8906C1107.63 46.3052 1104.67 51.1992 1107.74 56.1756C1111.23 61.8509 1117.58 59.0926 1120.38 66.654C1122.56 72.5387 1128.27 73.2206 1133.75 75.6871C1141.36 79.1088 1157.45 92.7139 1158.14 101.702C1158.45 105.747 1165.73 101.887 1167.54 106.58C1169.22 110.965 1171.78 116.451 1176.03 118.685C1187.09 124.507 1194.89 136.466 1203.67 145.242C1212.38 153.953 1219.6 163.03 1228.06 171.98C1232.96 177.168 1249.2 184.6 1249.2 193.118C1249.2 196.93 1244.92 216.681 1242.69 207.751" stroke="black" stroke-width="3" stroke-linecap="round"/>
<path d="M155.964 191.006C165.216 185.882 171.174 174.838 177.613 166.737C180.793 162.735 200.946 130.901 208.748 134.528C221.537 140.474 240.934 150.418 249.026 162.587C253.217 168.888 253.24 174.035 260.325 168.271C269.351 160.927 280.149 153.597 291.029 149.685C299.116 146.777 307.893 143.002 316.213 141.024C324.139 139.14 324.343 139.181 331.393 143.911C341.776 150.879 353.784 154.402 364.599 160.241C370.669 163.519 374.127 166.647 381.072 166.647C388.309 166.647 392.312 159.38 398.063 155.369C406.357 149.585 413.817 143.931 423.678 141.475C430.291 139.829 431.597 143.525 436.616 147.159C442.22 151.218 448.383 154.449 453.952 158.527C457.712 161.28 474.28 172.752 479.222 169.173C483.242 166.262 484.903 158.527 490.521 158.527C493.231 158.527 495.344 158.919 497.162 156.542C501.842 150.423 512.234 147.811 519.241 143.099C523.184 140.448 524.028 137.745 527.349 134.528C531.522 130.486 541.065 132.544 546.323 132.544C556.637 132.544 552.303 155.742 562.365 159.79C567.047 161.674 571.748 167.854 576.596 170.706C581.04 173.321 585.454 175.892 589.965 178.375C596.138 181.774 606.703 171.7 612.131 168.361C621.89 162.356 629.587 153.053 639.644 147.249C659.459 135.813 661.355 153.451 680.008 157.534C691.967 160.153 699.319 163.603 708.297 172.782C714.625 179.25 716.075 186.644 723.649 176.932C734.196 163.409 744.243 159.147 758.235 151.219C767.556 145.937 775.55 147.159 786.266 147.159C795.723 147.159 808.687 145.917 814.9 155.369C820.569 163.995 822.321 176.001 830.511 182.706C833.224 184.927 836.151 186.556 838.704 189.021C841.768 191.979 843.381 183.823 844.742 181.443C851.272 170.02 860.531 157.261 872.427 151.309C878.709 148.167 883.424 147.756 889.073 152.031C895.896 157.194 904.293 159.676 911.325 164.662C917.971 169.373 923.907 174.62 931.507 177.653C949.834 184.969 960.132 179.774 974.976 167.459C981.62 161.947 989.067 157.662 995.848 152.392C1001.52 147.982 1004.3 148.437 1010.68 152.121C1019.62 157.279 1030.53 158.961 1038.45 165.925C1047.57 173.935 1057.45 181.786 1067.52 171.248C1076.83 161.512 1085.05 158.781 1096.41 152.392C1107.62 146.09 1111.17 144.128 1121.94 150.407C1135.16 158.112 1150.05 161.173 1162.31 169.895C1170.15 175.473 1168.54 175.151 1172.14 166.556C1173.27 163.849 1176.55 155.318 1174.04 152.392C1173.12 151.325 1164.28 150.225 1162.74 149.595C1155.31 146.554 1115.27 139.714 1114.53 135.431C1113.97 132.259 1121.05 122.881 1122.29 119.552C1123.82 115.421 1122.91 110.876 1123.15 106.56C1123.34 103.13 1108.56 104.677 1104.52 104.034C1095.41 102.584 1085.78 100.78 1076.84 98.4407C1072.41 97.2828 1087.34 87.2061 1089 85.0882C1091.61 81.7428 1095.24 76.8182 1097.28 73.2695C1097.64 72.6323 1090.75 71.9042 1090.2 71.7357C1085.34 70.2333 1081.62 66.4541 1076.92 64.6986C1073.42 63.3895 1071.16 64.3377 1076.58 64.3377" stroke="black" stroke-width="3" stroke-linecap="round"/>
<path d="M158.176 189.866C157.348 182.413 148.551 178.804 145.168 172.884C143.711 170.333 131.319 160.723 131.438 160.689C138.758 158.598 146.132 154.04 152.576 149.94C156.668 147.335 160.515 145.951 164.68 143.978C170.684 141.134 172.713 140.99 168.745 137.022C165.678 133.956 164.131 131.441 162.964 127.357C161.534 122.351 166.903 121.308 171.545 118.324C175.278 115.924 195.352 105.819 195.573 102.064C196.068 93.6531 175.639 93.1109 184.553 84.5398C189.962 79.3388 202.945 71.8197 205.329 64.667" stroke="black" stroke-width="3" stroke-linecap="round"/>
<path d="M205.757 63.6778C205.757 59.4759 206.885 55.5771 206.885 51.8335C206.885 49.1084 207.231 42.4428 208.076 39.4877C208.641 37.509 212.005 32.0928 214.217 32.0928C218.823 32.0928 222.677 31.6149 222.677 37.169C222.677 41.7012 234.058 49.8963 238.47 50.1414C242.58 50.3697 243.552 44.8816 246.366 43.1225C247.901 42.163 249.736 39.377 251.129 37.9837C252.613 36.5001 254.219 37.0071 255.641 35.7276C258.165 33.456 264.079 32.9139 267.172 32.0302C270.606 31.0492 274.114 28.5963 277.45 27.6433C279.19 27.1461 288.217 30.2608 289.232 31.5288C290.987 33.7236 298.553 35.8036 301.139 36.5423C309.88 39.0397 309.907 47.1878 319.438 38.6104C322.35 35.9895 326.322 33.9076 329.841 32.3435C333.221 30.8411 338.102 30.6732 340.871 28.458C346.993 23.5602 354.588 22.0012 362.053 24.1339C368.392 25.9451 379.46 28.1271 383.987 33.7849C388.042 38.8542 394.423 43.3732 400.907 43.3732C409.685 43.3732 415.704 36.4475 423.468 35.4769C430.239 34.6305 437.446 27.5807 444.337 27.5807C450.381 27.5807 460.693 16.974 460.693 30.4008C460.693 37.5232 473.387 38.9879 478.742 41.3678C482.476 43.0276 487.725 43.0231 490.899 45.8799C493.338 48.0745 499.16 50.1414 502.43 50.1414" stroke="black" stroke-width="3" stroke-linecap="round"/>
<path d="M503.558 50.1417C507.579 46.5678 512.585 43.8724 516.217 40.2401C519.674 36.7834 526.588 31.8848 531.195 29.8371C541.908 25.076 555.138 24.35 566.227 27.5183C575.743 30.237 588.861 33.7813 596.308 39.7387C600.177 42.8341 609.311 41.1176 613.479 39.9267C618.435 38.5108 623.501 32.4031 628.77 32.0931C632.317 31.8845 635.333 29.6542 638.421 28.7717C641.049 28.0208 643.764 28.4458 645.942 26.7036C649.126 24.1561 657.902 23.0688 662.047 23.0688C669.139 23.0688 673.923 26.6247 680.409 28.9597C684.77 30.5294 693.484 33.4585 696.453 37.1693C699.299 40.7269 709.715 41.1174 713.937 41.1174C720.68 41.1174 727.227 40.3688 733.678 39.9894C739.48 39.6481 745.209 34.6069 751.162 33.2838C756.263 32.1504 760.982 28.709 766.391 28.709" stroke="black" stroke-width="3" stroke-linecap="round"/>
<path d="M767.519 28.7091C774.031 28.7091 780.033 35.8215 786.695 36.6053C789.543 36.9403 792.989 40.003 795.72 41.3681C798.617 42.8166 802.663 43.5134 804.995 45.3789C807.593 47.4579 812.174 46.1594 814.646 48.1364C816.898 49.9382 821.996 50.3213 825.049 50.1418C828.308 49.95 831.555 45.8322 835.201 45.6296C837.522 45.5007 842.146 43.4576 843.975 41.9948C848.162 38.6448 856.713 32.4021 862.274 32.0932C865.585 31.9092 869.118 29.8371 872.426 29.8371C876.224 29.8371 879.101 32.8121 882.578 33.2212C890.159 34.1131 895.901 41.3728 902.883 42.2455C905.762 42.6053 908.869 45.4509 911.907 45.6296C916.011 45.871 920.204 45.6296 924.316 45.6296C942.315 45.6296 957.518 28.6139 975.077 27.581C978.606 27.3735 981.622 27.1565 985.23 27.581C988.261 27.9376 995.043 32.4901 997.388 34.5999C1000.65 37.5336 1009.24 46.5111 1013.43 46.7577C1017.73 47.0107 1020.05 47.7083 1024.71 45.3789C1028.1 43.6828 1033.59 39.2763 1037.12 38.8614C1039.99 38.5238 1043.11 35.6556 1046.14 35.4773C1050.35 35.2299 1054.27 33.2212 1058.55 33.2212C1062.74 33.2212 1064.3 36.1953 1067.58 36.6053C1073 37.2828 1067.67 42.8547 1067.58 44.5016C1067.14 51.9013 1070.13 58.6309 1073.22 64.8062" stroke="black" stroke-width="3" stroke-linecap="round"/>
</svg>
