<svg width="51" height="47" viewBox="0 0 51 47" fill="none" xmlns="http://www.w3.org/2000/svg">
<path d="M2.35449 20.6215C3.72568 23.5353 5.9435 26.2671 7.58687 29.0973C8.70918 31.0302 10.0447 32.834 11.2281 34.7275C12.3373 36.5021 13.5413 38.5837 14.9612 40.1128C16.2218 41.4705 16.9516 43.3273 18.2658 44.6415C18.6737 45.0493 18.9573 45.9511 19.3674 45.131C19.9252 44.0153 20.9075 43.1061 21.5705 42.0406C24.0693 38.0246 26.8548 34.1766 29.0672 29.9847C30.6638 26.9595 33.2387 24.6446 35.0645 21.7842C37.3913 18.139 39.8691 14.5456 42.5 11.1053C43.7304 9.49622 44.8414 7.84594 46.2483 6.43898C47.1001 5.5872 47.8988 4.18408 48.482 3.13432C49.1258 1.97554 48.466 3.15033 47.9312 3.6851C46.3815 5.23484 44.7787 6.75623 43.2802 8.3514C38.2049 13.7542 33.7939 19.5655 29.4802 25.5785C26.7206 29.4253 23.7618 33.1062 20.9279 36.8847C20.0058 38.1141 18.9155 39.1714 17.9139 40.327C17.2332 41.1125 16.655 42.1217 15.7261 42.6525C15.3762 42.8525 15.6122 41.4197 15.5578 40.9849C15.3661 39.4514 14.4758 37.9794 13.7984 36.6246C12.3128 33.6534 9.99993 31.2011 7.99995 28.5924C6.74989 26.9619 4.00682 23.8481 4.00682 21.723C4.00682 21.1867 3.73596 19.5584 4.6188 20.4073C6.01006 21.745 7.14209 23.2586 8.53543 24.5993C9.86065 25.8745 11.4818 27.2838 13.0334 28.2712C14.4926 29.1997 16.2213 30.1413 17.2255 31.5758C18.034 32.7308 18.6725 33.8688 19.4286 35.0029C19.9335 35.7603 20.9748 37.069 21.0809 37.9709C21.0912 38.0587 21.4888 38.5755 21.1727 38.4605C20.2518 38.1257 18.9381 37.0534 18.2352 36.3798C16.7353 34.9424 15.1324 33.2341 14.1962 31.3616C12.7858 28.5409 9.68503 26.374 8.53543 23.5C8.03501 22.249 6.83623 20.7969 6.5 19.4893C6.06463 17.7962 9.19199 23.0108 9.5 23.5C12.2466 27.8622 13.7496 31.2587 16.5217 35.6148C17.4158 37.0198 18.4784 38.3042 19.2144 39.7763C19.9211 41.1897 19.6925 38.9724 19.7193 38.4911C20.4493 25.3505 31.8351 17.3088 39.3789 7.96892C40.2456 6.89587 41.291 5.89659 42.4082 5.07734C43.0716 4.59081 44.354 4.11245 44.7643 3.39441C45.1075 2.79374 46.6815 1.51472 45.6822 3.18022C43.5307 6.76612 40.3711 9.9173 37.3288 12.7423C34.1174 15.7243 30.6683 18.4696 27.5678 21.57C25.8093 23.3286 24.7492 25.4599 23.4064 27.5062C21.1731 30.9093 18.6603 34.1372 15.6037 36.8541C15.3106 37.1146 13.488 38.3457 14.5175 37.2519C17.5165 34.0654 20.263 30.6828 23.437 27.6439C26.2844 24.9176 29.3403 22.3959 32.0046 19.4893C34.3017 16.9834 36.4313 14.3362 38.7057 11.8091" stroke="black" stroke-width="3" stroke-linecap="round"/>
</svg>
