<svg width="144" height="15" viewBox="0 0 144 15" fill="none" xmlns="http://www.w3.org/2000/svg">
<path d="M142.371 1.70602C137.794 3.0497 135.184 1.83866 130.312 2.65457C127.384 3.14478 122.42 5.37634 120.306 7.27809C117.39 9.90113 113.657 10.3049 110.281 11.6294C106.401 13.1515 101.276 10.6968 97.5075 12.1751C94.3376 13.4187 91.629 11.1378 89.0009 10.2345C85.9445 9.18394 82.2765 8.50865 79.0925 7.88089C74.8062 7.03584 71.1683 8.33673 67.1358 9.01196C54.9915 11.0455 43.6175 13.9048 31.0861 13.243C29.5194 13.1603 27.9134 13.1677 26.3541 12.9931C25.5784 12.9062 23.7824 10.9894 22.8251 10.5019C19.9094 9.01726 16.989 8.83793 13.7704 8.66795C12.2408 8.58717 10.9228 9.6558 9.44738 9.65984C8.19106 9.66328 6.36427 9.41159 5.28451 10.1857C3.28632 11.6182 -0.797752 13.6617 3.33124 9.94694" stroke="black" stroke-width="3" stroke-linecap="round"/>
</svg>
