<svg width="963" height="557" viewBox="0 0 963 557" fill="none" xmlns="http://www.w3.org/2000/svg">
<path d="M7.06245 292.369C1.51606 328.387 4.75145 384.453 7.06245 407.983C12.0848 459.121 15.0619 510.814 23.5948 529.712C55.0599 535.271 227.318 535.271 289.181 535.271C413.442 539.162 676.895 535.271 710.493 535.271C729.735 535.271 879.907 532.121 952.614 529.712C958.48 497.474 951.547 465.235 952.614 448.56C953.204 439.343 950.208 378.327 946.421 314.047C943.356 262.036 939.772 207.888 937.148 177.31C934.588 133.288 917.594 44.094 909.416 5C897.044 6.77869 705.16 11.2995 610.765 13.3375H372.91C257.183 9.07611 25.3014 3.1101 23.5948 13.3375C21.8883 23.565 17.1952 79.4824 15.0619 106.163V156.744C14.7064 186.945 12.6088 256.351 7.06245 292.369Z" stroke="black" stroke-width="8" stroke-linejoin="round"/>
</svg>
