<svg width="161" height="155" viewBox="0 0 161 155" fill="none" xmlns="http://www.w3.org/2000/svg">
<path d="M35.387 18.7557C15.6867 20.7183 0.733098 62.9647 2.08524 79.1291C3.30272 93.6836 3.35258 111.968 14.4255 122.999C18.5951 127.153 23.8872 130.223 28.1181 134.282C32.4958 138.482 37.1845 140.431 42.0642 143.797C47.5281 147.565 53.9421 146.261 59.6448 149.102C76.6322 157.563 110.941 151.09 125.91 140.766C134.419 134.897 145.442 129.808 149.154 119.125C152.211 110.326 157.352 101.022 158.536 91.5911C159.537 83.6108 159.195 73.2019 154.732 66.3303C149.879 58.8584 149.565 50.7483 146.111 43.0061C143.22 36.5259 140.076 30.5941 135.039 25.5761C128.848 19.4089 128.746 13.0531 120.923 8.14612C105.786 -1.34863 85.0494 1.7027 69.1958 6.96728C62.1874 9.29461 55.5068 12.7016 48.3188 14.2929C44.1028 15.2263 37.306 20.4694 33.8656 18.7557" stroke="black" stroke-width="3" stroke-linecap="round"/>
<path d="M53.2931 61.5235C47.5063 67.1728 43.3949 73.5789 44.0736 82.1912C44.6747 89.8205 58.1129 99.7541 64.3906 103.525C78.6648 112.101 104 104.223 104 86.2747C104 78.3254 101.035 73.928 97.854 66.9404C94.5053 59.585 91.195 59.7454 84.793 56.2733C77.6997 52.4262 71.3682 58.5234 64.8174 58.5234C61.0907 58.5234 48.4688 61.9424 47.1467 64.5237" stroke="black" stroke-width="3" stroke-linecap="round"/>
<path d="M82.8164 10.8935C91.5379 8.24401 97.6764 11.9261 105.244 16.1933C110.17 18.9713 115.051 18.3977 107.078 15.5949C99.3098 12.8643 74.7654 11.2644 82.4829 14.1417C91.0447 17.3338 100.009 21.2457 108.162 25.4251C119.594 31.2856 102.172 26.516 98.8239 25.767C96.0461 25.1457 76.4938 25.891 84.6506 26.2799C92.966 26.6765 98.9711 33.0255 106.828 33.9731C114.186 34.8607 92.0599 32.4345 84.6506 32.4345C82.6854 32.4345 92.1573 35.4654 94.1551 36.3666C104.885 41.2073 100.298 40.1277 91.1537 40.1277C81.1151 40.1277 79.5213 40.1366 90.1532 42.5212C92.4395 43.0339 103.356 48.3944 95.3223 47.7355C70.5508 45.7036 108.463 47.8209 87.652 47.8209C82.0953 47.8209 90.1491 49.7498 91.8206 50.5563C93.3268 51.283 85.9492 50.8982 84.3171 50.8982" stroke="black" stroke-width="3" stroke-linecap="round"/>
<path d="M61.1023 111C62.6704 111.318 81.4012 114.002 73.8825 116.27C69.7848 117.505 55.7439 112.858 61.2738 117.119C64.0982 119.296 77.2226 121.709 69.3365 121.709C65.0928 121.709 47.966 117.48 59.8157 121.624C62.7537 122.652 79.6241 121.587 80.8301 123.579C82.4338 126.227 70.6092 127.423 70.1085 127.404C63.086 127.136 57.3343 123.347 50.6379 122.049C45.8745 121.126 49.9 125.317 51.4957 126.299C56.6648 129.478 63.1035 131.59 68.8219 133.608C76.4167 136.289 85.8396 135.503 71.2235 136.668C64.128 137.234 43.9462 131.011 49.9517 134.798C57.8318 139.767 69.0325 135.153 77.5707 138.538C88.1426 142.728 54.178 136.092 44.4622 130.208C40.9234 128.065 44.7149 129.011 46.3493 130.038C51.7266 133.42 56.4223 136.255 62.732 137.688C69.0229 139.116 88.1419 141.597 81.6878 141.597C70.5994 141.597 59.6711 140.001 48.7509 138.198C35.1927 135.959 56.3019 140.358 59.9014 141.597C64.9036 143.319 75.3492 147.368 79.6293 143.127" stroke="black" stroke-width="3" stroke-linecap="round"/>
<path d="M65.0003 92.3788C66.7685 94.0367 67.4792 96.981 68.2356 99.1504C68.3712 99.5394 68.7565 102 69.2487 102C69.8024 102 70.1483 99.9526 70.2944 99.61C71.0523 97.8336 71.8543 95.4904 73.2356 94.0334C73.5104 93.7436 73.9861 92.8803 74.1016 92.5014C74.3168 91.7952 74.688 91.5856 75.0003 91" stroke="black" stroke-width="3" stroke-linecap="round"/>
<path d="M77.0003 93.9726C77.0934 94.7712 77.9443 95.5287 78.2323 96.336C78.6873 97.6112 79.0255 98.9244 79.4643 100.203C79.8955 101.46 80.8332 103.194 80.8332 100.817C80.8332 98.9643 80.9656 96.9381 83.0234 98.6073C84.1755 99.5419 84.9085 99.4974 86.3087 99.4974C87.7352 99.4974 86.5635 98.269 86.2478 97.3489C85.8292 96.1287 85.5573 94.8597 85.1527 93.635C84.8453 92.7043 84.1185 91.9622 84.1185 90.9339C84.1185 90.4286 84.1185 88.9786 84.1185 89.0002" stroke="black" stroke-width="3" stroke-linecap="round"/>
<path d="M88.0003 87C88.6189 88.2778 89.227 89.5783 89.9092 90.8216C90.4465 91.8008 91.69 92.8842 91.965 93.9366C92.1222 94.5382 93.7113 97.0078 94.0942 95.5423C94.3497 94.5645 95.4159 93.6761 95.8709 92.7805C96.3321 91.8728 98.7294 90.4683 97.7799 90.4683" stroke="black" stroke-width="3" stroke-linecap="round"/>
<path d="M74.3872 79.4615C69.594 79.4615 75.3223 82.7324 75.9792 79.7356C76.2437 78.5288 73.9494 77.1713 73.3059 78.6393C72.7513 79.9046 73.109 80.4191 74.6275 79.9793C76.1552 79.5367 74.7354 78.3652 73.7264 78.3652C71.9844 78.3652 72.0388 80.978 73.7264 79.7661C76.0771 78.078 70.6161 78.33 72.3448 79.8879C73.2933 80.7427 73.3929 76.1915 72.7653 80.0097" stroke="black" stroke-width="3" stroke-linecap="round"/>
</svg>
